<svg width="48" height="48" viewBox="0 0 48 48" fill="none" xmlns="http://www.w3.org/2000/svg">
<path d="M31.9604 38.6879L27.9637 42.5568L28.9017 47.9876L23.9938 45.4253L19.0859 47.9876L20.0238 42.5568L16.0271 38.6879L21.5481 37.8912L23.9938 32.9701L26.4394 37.8912L31.9604 38.6879ZM47.9875 38.7004L42.4665 37.9037L40.0209 32.9825L37.5752 37.9037L32.0542 38.7004L36.0509 42.5693L35.113 48.0001L40.0209 45.4377L44.9289 48.0001L43.991 42.5693L47.9875 38.7004ZM10.4125 37.8496L7.96668 32.925L5.521 37.8496L0 38.6468L3.99674 42.5184L3.05883 47.953L7.96677 45.3889L12.8747 47.953L11.9368 42.5184L15.9335 38.6468L10.4125 37.8496ZM10.7424 30.6919L7.13599 29.6674C8.16276 26.053 10.3786 22.7972 13.3755 20.4997C14.5967 19.5634 15.9126 18.8021 17.2983 18.2222C15.0336 16.3295 13.5902 13.4852 13.5902 10.3098C13.5902 4.62499 18.2152 0 23.9 0C29.5849 0 34.2099 4.62499 34.2099 10.3098C34.2099 13.4279 32.8183 16.2268 30.6239 18.1189C32.0863 18.704 33.4738 19.4895 34.7573 20.4673C37.745 22.7436 39.9652 25.9736 41.0089 29.5624L37.409 30.6093C35.6984 24.7276 30.2204 20.6197 24.0875 20.6197C17.9147 20.6197 12.427 24.7615 10.7424 30.6919ZM17.3392 10.3099C17.3392 13.9275 20.2824 16.8707 23.9 16.8707C27.5177 16.8707 30.4608 13.9275 30.4608 10.3099C30.4608 6.69229 27.5177 3.74912 23.9 3.74912C20.2824 3.74912 17.3392 6.69229 17.3392 10.3099Z" fill="#FFC513"/>
</svg>
