<svg width="40" height="40" viewBox="0 0 40 40" fill="none" xmlns="http://www.w3.org/2000/svg">
<path d="M36.25 3.12494C36.145 2.89077 35.9966 2.67867 35.8125 2.49994C35.6138 2.30116 35.3765 2.14508 35.1153 2.04129C34.8542 1.9375 34.5745 1.88819 34.2936 1.89638C34.0126 1.90458 33.7363 1.9701 33.4816 2.08894C33.2269 2.20778 32.9992 2.37742 32.8125 2.58744L30.625 5.04994L23.925 2.82494C23.657 2.73483 23.3692 2.72162 23.0941 2.78679C22.819 2.85197 22.5677 2.99293 22.3687 3.19369L21.7 3.86244C21.633 3.92906 21.582 4.00998 21.5508 4.09914C21.5196 4.1883 21.509 4.28338 21.5198 4.37722C21.5306 4.47106 21.5626 4.56122 21.6133 4.64093C21.664 4.72064 21.7321 4.78783 21.8125 4.83744L27.6312 8.40619L25.1312 11.2249L22.35 10.7312C22.1559 10.6983 21.9568 10.7118 21.7689 10.7704C21.581 10.8291 21.4096 10.9313 21.2687 11.0687L20.8562 11.4812C20.7834 11.5533 20.7294 11.6421 20.699 11.7399C20.6687 11.8377 20.6628 11.9415 20.6819 12.0421C20.701 12.1428 20.7446 12.2371 20.8088 12.317C20.873 12.3968 20.9558 12.4596 21.05 12.4999L23.325 13.4749C23.2716 13.7051 23.2846 13.9456 23.3625 14.1687C23.4193 14.3418 23.5146 14.4998 23.6413 14.6307C23.7679 14.7617 23.9226 14.8623 24.0937 14.9249H24.1562C24.375 14.9857 24.6062 14.9857 24.825 14.9249L25.8 17.1937C25.84 17.2878 25.9026 17.3706 25.9821 17.4349C26.0617 17.4992 26.1558 17.543 26.2562 17.5624H26.375C26.4572 17.5629 26.5387 17.5472 26.6149 17.516C26.691 17.4849 26.7603 17.4391 26.8187 17.3812L27.2312 16.9687C27.3686 16.8278 27.4708 16.6564 27.5295 16.4685C27.5881 16.2806 27.6015 16.0815 27.5687 15.8874L27.075 13.1062L29.8937 10.6062L33.4625 16.4249C33.5121 16.5053 33.5793 16.5734 33.659 16.6241C33.7387 16.6748 33.8288 16.7067 33.9227 16.7176C34.0165 16.7284 34.1116 16.7178 34.2008 16.6866C34.2899 16.6554 34.3708 16.6044 34.4375 16.5374L35.1062 15.8687C35.2957 15.6755 35.4298 15.4349 35.4947 15.1722C35.5596 14.9095 35.5527 14.6341 35.475 14.3749L33.2437 7.68744L35.7437 5.48119L35.8562 5.37494C36.1362 5.08041 36.3229 4.70973 36.393 4.30943C36.463 3.90913 36.4133 3.49706 36.25 3.12494Z" fill="#EDA708"/>
<path d="M32.325 24.4375C32.2213 24.269 32.076 24.1299 31.9031 24.0336C31.7302 23.9373 31.5355 23.887 31.3375 23.8875H30.1813C29.8658 23.8862 29.5563 23.9733 29.2878 24.139C29.0194 24.3047 28.8028 24.5424 28.6625 24.825L28.5 25.1562L26.8438 20.6625C26.4938 19.7186 25.8641 18.9041 25.0387 18.3278C24.2133 17.7515 23.2317 17.4409 22.225 17.4375H13.1688C12.1611 17.4396 11.1781 17.7496 10.3515 18.326C9.52486 18.9024 8.89414 19.7176 8.54379 20.6625L6.87504 25.1562L6.71254 24.825C6.57175 24.5429 6.355 24.3056 6.08667 24.14C5.81835 23.9743 5.50912 23.8869 5.19379 23.8875H4.05004C3.85224 23.888 3.65782 23.9389 3.4852 24.0355C3.31258 24.1321 3.16747 24.2712 3.06359 24.4395C2.95971 24.6078 2.9005 24.7999 2.89157 24.9975C2.88263 25.1951 2.92427 25.3917 3.01254 25.5688L3.40004 26.3438C3.54025 26.6264 3.75688 26.864 4.02533 27.0297C4.29379 27.1954 4.60332 27.2826 4.91879 27.2813H6.11879C5.89349 28.0037 5.77763 28.7558 5.77504 29.5125V33.125C5.77667 33.3493 5.82267 33.5711 5.9104 33.7775C5.99813 33.984 6.12585 34.171 6.2862 34.3279C6.44655 34.4848 6.63636 34.6083 6.84469 34.6915C7.05302 34.7747 7.27575 34.8158 7.50004 34.8125H7.95004V35.8C7.95002 36.2476 8.12655 36.6772 8.44132 36.9955C8.75608 37.3138 9.18368 37.4951 9.63129 37.5H11.25C11.7009 37.5 12.1333 37.3209 12.4521 37.0021C12.7709 36.6833 12.95 36.2509 12.95 35.8V34.8125H22.45V35.8C22.45 36.2498 22.6283 36.6812 22.9458 36.9999C23.2632 37.3185 23.694 37.4983 24.1438 37.5H25.7563C26.2072 37.5 26.6396 37.3209 26.9584 37.0021C27.2772 36.6833 27.4563 36.2509 27.4563 35.8V34.8125H27.9063C28.355 34.8125 28.7855 34.6351 29.104 34.319C29.4224 34.0029 29.603 33.5737 29.6063 33.125V29.5188C29.6037 28.762 29.4878 28.0099 29.2625 27.2875H30.4625C30.7779 27.2881 31.0871 27.2007 31.3554 27.035C31.6237 26.8694 31.8405 26.6321 31.9813 26.35L32.3688 25.575C32.4602 25.3977 32.5043 25.1998 32.4966 25.0005C32.4889 24.8012 32.4298 24.6072 32.325 24.4375ZM10.625 32.0375C10.3251 32.0376 10.031 31.9539 9.776 31.7961C9.52095 31.6382 9.315 31.4123 9.18129 31.1438L8.94379 30.6625C8.90347 30.5806 8.88465 30.4898 8.88912 30.3987C8.89359 30.3075 8.9212 30.219 8.96935 30.1414C9.0175 30.0639 9.0846 29.9999 9.16432 29.9555C9.24405 29.9111 9.33378 29.8877 9.42504 29.8875H10.7813C11.0813 29.8874 11.3753 29.9711 11.6303 30.1289C11.8854 30.2868 12.0913 30.5127 12.225 30.7812L12.85 32.0312L10.625 32.0375ZM19.2188 32.575H16.1688C16.003 32.575 15.8441 32.5092 15.7269 32.3919C15.6096 32.2747 15.5438 32.1158 15.5438 31.95V31.5875C15.5438 31.4217 15.6096 31.2628 15.7269 31.1456C15.8441 31.0283 16.003 30.9625 16.1688 30.9625H19.2188C19.3846 30.9625 19.5435 31.0283 19.6607 31.1456C19.7779 31.2628 19.8438 31.4217 19.8438 31.5875V31.95C19.8438 32.1158 19.7779 32.2747 19.6607 32.3919C19.5435 32.5092 19.3846 32.575 19.2188 32.575ZM9.84379 28.3625C9.65726 28.3625 9.47346 28.3176 9.30793 28.2316C9.1424 28.1456 8.99999 28.0211 8.89273 27.8684C8.78547 27.7158 8.71651 27.5396 8.69168 27.3548C8.66684 27.1699 8.68686 26.9818 8.75004 26.8062L10.6688 21.425C10.8617 20.8862 11.2161 20.4201 11.6836 20.0902C12.1511 19.7602 12.7091 19.5825 13.2813 19.5813H22.0875C22.6598 19.5825 23.2177 19.7602 23.6852 20.0902C24.1528 20.4201 24.5072 20.8862 24.7 21.425L26.6188 26.8062C26.682 26.9818 26.702 27.1699 26.6772 27.3548C26.6523 27.5396 26.5834 27.7158 26.4761 27.8684C26.3688 28.0211 26.2264 28.1456 26.0609 28.2316C25.8954 28.3176 25.7116 28.3625 25.525 28.3625H9.84379ZM26.9688 30.6625L26.7313 31.1438C26.5976 31.4123 26.3916 31.6382 26.1366 31.7961C25.8815 31.9539 25.5875 32.0376 25.2875 32.0375H23.0688L23.6938 30.7875C23.8275 30.519 24.0335 30.2931 24.2885 30.1352C24.5435 29.9773 24.8376 29.8937 25.1375 29.8938H26.5C26.5905 29.8944 26.6793 29.9179 26.7582 29.962C26.8372 30.0061 26.9037 30.0694 26.9517 30.146C26.9997 30.2227 27.0275 30.3102 27.0327 30.4005C27.0379 30.4907 27.0202 30.5809 26.9813 30.6625H26.9688Z" fill="#EDA708"/>
</svg>
