<svg width="110" height="110" viewBox="0 0 110 110" fill="none" xmlns="http://www.w3.org/2000/svg">
<path d="M87.3821 60.9079C58.7954 65.6088 53.7134 71.5803 49.9018 106.392C49.7748 107.536 48.1231 107.536 47.996 106.392C44.1845 71.5803 39.1024 65.7359 10.5158 60.9079C9.37234 60.7809 9.37234 59.1292 10.5158 59.0022C39.1024 54.3012 44.1845 48.4569 47.996 13.6447C48.1231 12.5012 49.7748 12.5012 49.9018 13.6447C53.7134 48.4569 58.7954 54.1742 87.3821 59.0022C88.3985 59.1292 88.3985 60.6538 87.3821 60.9079Z" fill="#E12213"/>
<path d="M99.5793 20.7596C90.6857 22.5383 88.1446 25.4605 86.62 35.8787C86.493 37.0222 84.8413 37.0222 84.7143 35.8787C83.1896 25.4605 80.6486 22.5383 71.755 20.6325C70.7386 20.3784 70.7386 18.9809 71.755 18.7267C80.5215 16.948 83.1896 14.0258 84.7143 3.6076C84.8413 2.46413 86.493 2.46413 86.62 3.6076C88.1446 14.0258 90.6857 16.948 99.5793 18.8538C100.596 19.1079 100.596 20.6325 99.5793 20.7596Z" fill="#E12213"/>
</svg>
