<svg viewBox="0 0 543 437" xmlns="http://www.w3.org/2000/svg">
            <!-- Main Browser Window -->
            <rect x="71" y="40" width="400" height="340" rx="12" fill="#2B3139"/>
            <rect x="71" y="40" width="400" height="40" rx="12" fill="#1E2329"/>
            <circle cx="101" cy="60" r="6" fill="#FF6B6B"/>
            <circle cx="121" cy="60" r="6" fill="#FFD93D"/>
            <circle cx="141" cy="60" r="6" fill="#6BCB77"/>
            
            <!-- Code Elements - Larger and more prominent -->
            <rect x="91" y="100" width="200" height="15" rx="2" fill="#3B82F6" opacity="0.7"/>
            <rect x="91" y="125" width="300" height="15" rx="2" fill="#ffffff" opacity="0.3"/>
            <rect x="91" y="150" width="250" height="15" rx="2" fill="#ffffff" opacity="0.3"/>
            <rect x="91" y="175" width="280" height="15" rx="2" fill="#3B82F6" opacity="0.7"/>
            
            <!-- Design Elements - Larger -->
            <rect x="91" y="210" width="180" height="15" rx="2" fill="#ffffff" opacity="0.3"/>
            <rect x="91" y="235" width="220" height="15" rx="2" fill="#3B82F6" opacity="0.7"/>
            <rect x="91" y="260" width="160" height="15" rx="2" fill="#ffffff" opacity="0.3"/>
            
            <!-- Visual Design Elements -->
            <rect x="340" y="100" width="100" height="100" rx="8" fill="#3B82F6" opacity="0.8"/>
            <circle cx="390" cy="240" r="40" fill="#3B82F6" opacity="0.6"/>
            <rect x="360" y="290" width="60" height="45" rx="6" fill="#3B82F6" opacity="0.4"/>
            
            <!-- Floating Elements - Larger and more spread out -->
            <rect x="30" y="200" width="30" height="30" rx="6" fill="#3B82F6" opacity="0.5">
                <animate attributeName="y" values="200;180;200" dur="3s" repeatCount="indefinite"/>
            </rect>
            
            <circle cx="480" cy="280" r="15" fill="#3B82F6" opacity="0.5">
                <animate attributeName="cy" values="280;260;280" dur="2.5s" repeatCount="indefinite"/>
            </circle>
            
            <rect x="490" y="120" width="25" height="25" rx="4" fill="#3B82F6" opacity="0.5">
                <animate attributeName="y" values="120;100;120" dur="3.5s" repeatCount="indefinite"/>
            </rect>
            
            <!-- Additional Decorative Elements -->
            <circle cx="50" cy="150" r="20" fill="#3B82F6" opacity="0.3"/>
            <circle cx="500" cy="180" r="25" fill="#3B82F6" opacity="0.2"/>
        </svg>