<svg width="512" height="480" viewBox="0 0 512 480" fill="none" xmlns="http://www.w3.org/2000/svg">
<path d="M502.613 318.966L396.032 212.384C383.616 199.968 363.488 199.968 351.072 212.384C338.656 224.811 338.656 244.939 351.072 257.355L383.467 289.75C166.027 300.427 24.64 154.496 23.3386 4.90683C23.296 -0.50117 15.7013 -1.59984 14.016 3.37083C-38.4854 158.88 57.0026 354.197 306.571 389.515C330.741 392.661 355.189 395.051 379.829 396.779L351.061 425.547C338.645 437.963 338.645 458.102 351.061 470.507C363.477 482.923 383.605 482.934 396.021 470.507L502.603 363.926C515.029 351.51 515.029 331.382 502.613 318.966Z" fill="#E12213"/>
</svg>
