<svg width="158" height="63" viewBox="0 0 158 63" fill="none" xmlns="http://www.w3.org/2000/svg">
<g clip-path="url(#clip0_30_120)">
<path d="M119.811 22.5693L119.81 22.5679L119.809 22.5664C119.81 22.5676 119.811 22.5681 119.811 22.5693ZM119.811 22.5693L119.812 22.5708L119.813 22.5716C119.812 22.5708 119.812 22.57 119.811 22.5693ZM6.10848 3.85388C6.10912 3.8546 6.10976 3.85531 6.1104 3.85603ZM6.10848 3.85388L6.11174 3.85753ZM6.1104 3.85603C6.11085 3.85653 6.11129 3.85703 6.11174 3.85753ZM6.1104 3.85603C6.11085 3.85653 6.11129 3.85703 6.11174 3.85753ZM6.1104 3.85603C6.11085 3.85653 6.11129 3.85703 6.11174 3.85753ZM126.817 33.6169C122.619 31.781 118.802 28.6263 116.436 24.7151C116.431 24.7073 116.426 24.6989 116.42 24.6899C116.412 24.6761 116.403 24.6606 116.393 24.6436C116.38 24.6221 116.366 24.598 116.352 24.5718C116.303 24.4836 116.231 24.3449 116.166 24.1746C116.107 24.0219 116.012 23.7389 115.994 23.3861C115.976 23.0321 116.03 22.3815 116.539 21.8072C117.025 21.2589 117.629 21.1209 117.935 21.0826C118.257 21.0422 118.532 21.0748 118.689 21.1C118.861 21.1278 119.006 21.1664 119.101 21.1945C119.151 21.2093 119.194 21.2233 119.227 21.2347C119.236 21.2377 119.244 21.2405 119.252 21.2431C119.259 21.2457 119.266 21.2481 119.272 21.2504L119.29 21.2568L119.295 21.2588C124.874 23.3251 130.843 23.5173 137.117 23.626C137.153 23.6266 137.188 23.6282 137.224 23.6307C141.962 23.9668 146.722 23.7817 151.42 23.0789L151.444 23.0755C152.106 22.9846 152.779 23.0944 153.377 23.3899C153.975 23.6854 154.469 24.1524 154.799 24.7294C155.129 25.3064 155.281 25.9679 155.235 26.63C155.189 27.2921 154.948 27.9268 154.542 28.4531L154.537 28.4586L152.68 30.8438C147.398 38.3576 146.087 48.2962 144.925 57.9739C144.924 57.9836 144.923 57.9941 144.922 58.0051C144.917 58.0499 144.91 58.1069 144.899 58.1726C144.879 58.2956 144.841 58.4881 144.766 58.7045C144.698 58.9001 144.553 59.2517 144.253 59.5844C143.912 59.9609 143.342 60.3322 142.58 60.3322C141.806 60.3322 141.219 59.949 140.868 59.5336C140.566 59.1754 140.436 58.8012 140.378 58.6014C140.314 58.3778 140.287 58.1804 140.274 58.0565C140.268 57.9951 140.264 57.9413 140.262 57.8979C139.701 51.8575 139.605 45.6823 140.474 39.5476C119.46 53.6121 93.2223 55.5575 68.642 49.4002C42.4653 42.843 17.8867 27.0381 3.03327 6.40914C2.99793 6.36486 2.95549 6.30914 2.90969 6.24337C2.81643 6.10946 2.68016 5.8927 2.57029 5.6139C2.46405 5.34434 2.33768 4.90383 2.39792 4.37102C2.46474 3.78008 2.74626 3.22532 3.22082 2.80901C4.39259 1.78104 5.71831 2.32491 6.07794 2.50216C6.32972 2.62626 6.52947 2.76524 6.65668 2.86163C6.72373 2.91245 6.77958 2.95828 6.82223 2.99467C6.84372 3.01302 6.86234 3.02937 6.87784 3.04324L6.89888 3.06227L6.9077 3.07037L6.91168 3.07406L6.91356 3.07581L6.91448 3.07666C6.91485 3.077 6.91522 3.07735 6.14831 3.89973C6.1483 3.89971 6.14833 3.89974 6.14831 3.89973L6.91537 3.07749C6.95344 3.11301 6.99011 3.14999 7.02529 3.18836C15.431 12.356 27.0554 20.5412 38.9812 26.7876C50.9149 33.0381 62.9956 37.2666 72.2488 38.6293C94.9122 41.9601 110.555 39.8253 128.407 34.2423C127.869 34.054 127.338 33.8449 126.817 33.6169ZM119.816 22.5758C119.816 22.5755 119.816 22.576 119.816 22.5758ZM5.61287 4.47382L6.14831 3.89973C6.1483 3.89971 6.14833 3.89974 6.14831 3.89973C6.00029 4.05845 5.82356 4.24794 5.61287 4.47382Z" fill="#E53825"/>
<path d="M119.811 22.5693L119.81 22.5679L119.809 22.5664C119.81 22.5676 119.811 22.5681 119.811 22.5693ZM119.811 22.5693L119.812 22.5708L119.813 22.5716C119.812 22.5708 119.812 22.57 119.811 22.5693ZM6.10848 3.85388L6.10943 3.85495M6.10848 3.85388C6.10912 3.8546 6.10976 3.85531 6.1104 3.85603C6.11085 3.85653 6.11129 3.85703 6.11174 3.85753L6.10848 3.85388ZM6.14831 3.89973C6.91522 3.07735 6.91485 3.077 6.91448 3.07666L6.91356 3.07581L6.91168 3.07406L6.9077 3.07037L6.89888 3.06227L6.87784 3.04324C6.86234 3.02937 6.84372 3.01302 6.82223 2.99467C6.77958 2.95828 6.72373 2.91245 6.65668 2.86163C6.52947 2.76524 6.32972 2.62626 6.07794 2.50216C5.71831 2.32491 4.39259 1.78104 3.22082 2.80901C2.74626 3.22532 2.46474 3.78008 2.39792 4.37102C2.33768 4.90383 2.46405 5.34434 2.57029 5.6139C2.68016 5.8927 2.81643 6.10946 2.90969 6.24337C2.95549 6.30914 2.99793 6.36486 3.03327 6.40914C17.8867 27.0381 42.4653 42.843 68.642 49.4002C93.2223 55.5575 119.46 53.6121 140.474 39.5476C139.605 45.6823 139.701 51.8575 140.262 57.8979C140.264 57.9413 140.268 57.9951 140.274 58.0565C140.287 58.1804 140.314 58.3778 140.378 58.6014C140.436 58.8012 140.566 59.1754 140.868 59.5336C141.219 59.949 141.806 60.3322 142.58 60.3322C143.342 60.3322 143.912 59.9609 144.253 59.5844C144.553 59.2517 144.698 58.9001 144.766 58.7045C144.841 58.4881 144.879 58.2956 144.899 58.1726C144.91 58.1069 144.917 58.0499 144.922 58.0051C144.923 57.9941 144.924 57.9836 144.925 57.9739C146.087 48.2962 147.398 38.3576 152.68 30.8438L154.537 28.4586L154.542 28.4531C154.948 27.9268 155.189 27.2921 155.235 26.63C155.281 25.9679 155.129 25.3064 154.799 24.7294C154.469 24.1524 153.975 23.6854 153.377 23.3899C152.779 23.0944 152.106 22.9846 151.444 23.0755L151.42 23.0789C146.722 23.7817 141.962 23.9668 137.224 23.6307C137.188 23.6282 137.153 23.6266 137.117 23.626C130.843 23.5173 124.874 23.3251 119.295 21.2588L119.29 21.2568L119.272 21.2504C119.266 21.2481 119.259 21.2457 119.252 21.2431C119.244 21.2405 119.236 21.2377 119.227 21.2347C119.194 21.2233 119.151 21.2093 119.101 21.1945C119.006 21.1664 118.861 21.1278 118.689 21.1C118.532 21.0748 118.257 21.0422 117.935 21.0826C117.629 21.1209 117.025 21.2589 116.539 21.8072C116.03 22.3815 115.976 23.0321 115.994 23.3861C116.012 23.7389 116.107 24.0219 116.166 24.1746C116.231 24.3449 116.303 24.4836 116.352 24.5718C116.366 24.598 116.38 24.6221 116.393 24.6436C116.403 24.6606 116.412 24.6761 116.42 24.6899C116.426 24.6989 116.431 24.7073 116.436 24.7151C118.802 28.6263 122.619 31.781 126.817 33.6169C127.338 33.8449 127.869 34.054 128.407 34.2423C110.555 39.8253 94.9122 41.9601 72.2488 38.6293C62.9956 37.2666 50.9149 33.0381 38.9812 26.7876C27.0554 20.5412 15.431 12.356 7.02529 3.18836C6.99011 3.14999 6.95344 3.11301 6.91537 3.07749L6.14831 3.89973ZM6.14831 3.89973C6.14833 3.89974 6.1483 3.89971 6.14831 3.89973ZM6.14831 3.89973L5.61287 4.47382C5.82356 4.24794 6.00029 4.05845 6.14831 3.89973ZM119.816 22.5758C119.816 22.576 119.816 22.5755 119.816 22.5758Z" stroke="white" stroke-width="4" stroke-linejoin="round"/>
</g>
<defs>
<clipPath id="clip0_30_120">
<rect width="158" height="63" fill="white"/>
</clipPath>
</defs>
</svg>
