<svg width="110" height="110" viewBox="0 0 110 110" fill="none" xmlns="http://www.w3.org/2000/svg">
<g clip-path="url(#clip0_49_737)">
<path d="M89.6543 74.9805C83.2949 74.9805 78.1172 69.8027 78.1172 63.4434C78.1172 57.084 83.2949 51.9062 89.6543 51.9062C96.0137 51.9062 101.191 57.084 101.191 63.4434C101.191 69.8027 96.0137 74.9805 89.6543 74.9805ZM89.6543 54.0332C84.4766 54.0332 80.2656 58.2441 80.2656 63.4219C80.2656 68.5996 84.4766 72.8105 89.6543 72.8105C94.832 72.8105 99.043 68.5996 99.043 63.4219C99.043 58.2441 94.832 54.0332 89.6543 54.0332Z" fill="#E12213"/>
<path d="M20.002 74.9805C13.6426 74.9805 8.46484 69.8027 8.46484 63.4434C8.46484 57.084 13.6426 51.9062 20.002 51.9062C26.3613 51.9062 31.5391 57.084 31.5391 63.4434C31.5391 69.8027 26.3613 74.9805 20.002 74.9805ZM20.002 54.0332C14.8242 54.0332 10.6133 58.2441 10.6133 63.4219C10.6133 68.5996 14.8242 72.832 20.002 72.832C25.1797 72.832 29.3906 68.6211 29.3906 63.4434C29.3906 58.2656 25.1797 54.0332 20.002 54.0332Z" fill="#E12213"/>
<path d="M20.002 69.6523C16.5859 69.6523 13.793 66.8594 13.793 63.4434C13.793 60.0273 16.5859 57.2344 20.002 57.2344C23.418 57.2344 26.2109 60.0273 26.2109 63.4434C26.2109 66.8594 23.418 69.6523 20.002 69.6523ZM20.002 59.3613C17.7676 59.3613 15.9414 61.1875 15.9414 63.4219C15.9414 65.6563 17.7676 67.4824 20.002 67.4824C22.2363 67.4824 24.0625 65.6563 24.0625 63.4219C24.0625 61.1875 22.2363 59.3613 20.002 59.3613Z" fill="#E12213"/>
<path d="M89.6113 69.6523C86.1953 69.6523 83.4023 66.8594 83.4023 63.4434C83.4023 60.0273 86.1953 57.2344 89.6113 57.2344C93.0273 57.2344 95.8203 60.0273 95.8203 63.4434C95.8203 66.8594 93.0273 69.6523 89.6113 69.6523ZM89.6113 59.3613C87.377 59.3613 85.5508 61.1875 85.5508 63.4219C85.5508 65.6563 87.377 67.4824 89.6113 67.4824C91.8457 67.4824 93.6719 65.6563 93.6719 63.4219C93.6719 61.1875 91.8457 59.3613 89.6113 59.3613Z" fill="#E12213"/>
<path d="M106.348 69.6094H98.7637V67.4609H105.273V63.4219C105.273 63.2715 105.295 63.1211 105.359 62.9922L107.594 57.9004L103.318 54.6992C98.5918 51.1543 92.748 49.1992 86.8398 49.1992H77.7734C77.5586 49.1992 77.3438 49.1348 77.1719 49.0059L67.6543 42.5391C62.4551 39.0156 56.3965 37.1465 50.123 37.1465H27.6504L2.14844 44.9453V45.9766H3.4375C4.03906 45.9766 4.51172 46.4492 4.51172 47.0508V56.2891C4.51172 56.8906 4.03906 57.3633 3.4375 57.3633H2.14844V63.2285L5.37109 67.4609H10.8711V69.6094H4.83398C4.49023 69.6094 4.18945 69.459 3.97461 69.1797L0.214844 64.2383C0.0644531 64.0449 0 63.8301 0 63.5938V56.2891C0 55.6875 0.472656 55.2148 1.07422 55.2148H2.36328V48.125H1.07422C0.472656 48.125 0 47.6523 0 47.0508V44.1504C0 43.6777 0.300781 43.2695 0.751953 43.1191L27.1777 35.0625C27.2852 35.041 27.3926 35.0195 27.5 35.0195H50.123C56.8262 35.0195 63.3145 37.0176 68.8574 40.7773L78.0957 47.0508H86.8398C93.1992 47.0508 99.5156 49.1563 104.607 52.9805L109.57 56.6973C109.979 56.998 110.107 57.5352 109.914 57.9863L107.422 63.6582V68.5352C107.422 69.1367 106.949 69.6094 106.348 69.6094Z" fill="#E12213"/>
<path d="M65.1406 67.4609H80.5234V69.6094H65.1406V67.4609Z" fill="#E12213"/>
<path d="M29.1113 67.4609H60.8438V69.6094H29.1113V67.4609Z" fill="#E12213"/>
<path d="M8.09961 57.3633H3.4375C2.83594 57.3633 2.36328 56.8906 2.36328 56.2891V47.0508C2.36328 46.4492 2.83594 45.9766 3.4375 45.9766H8.12109C8.55078 45.9766 8.9375 46.2344 9.10938 46.6211L11.3652 51.8848C11.4941 52.1855 11.4727 52.5508 11.3223 52.8301L9.06641 56.8047C8.85156 57.1484 8.48633 57.3633 8.09961 57.3633ZM4.51172 55.2148H7.47656L9.15234 52.25L7.41211 48.125H4.51172V55.2148Z" fill="#E12213"/>
<path d="M71.1132 48.7695H54.9999C54.9355 48.7695 54.8925 48.7695 54.828 48.748L33.2363 45.418L33.5585 43.291L55.0859 46.6211H67.7616L66.8808 45.998C61.5527 42.1953 55.2792 40.1758 48.7265 40.1758H29.5839L23.955 41.8301L29.2831 42.6465L28.9609 44.7734L18.8632 43.2266C18.3691 43.1406 17.9823 42.7324 17.9609 42.2383C17.9179 41.7441 18.2402 41.2715 18.7343 41.1426L29.1542 38.0918C29.2616 38.0703 29.3476 38.0488 29.455 38.0488H48.748C55.7519 38.0488 62.455 40.1973 68.1484 44.2578L71.7577 46.8359C72.1445 47.1152 72.2948 47.5879 72.1659 48.0391C71.9941 48.4688 71.5859 48.7695 71.1132 48.7695Z" fill="#E12213"/>
<path d="M41.9375 46.7715C41.873 46.7715 41.8301 46.7715 41.7656 46.75L37.3828 46.084C36.8672 45.998 36.4805 45.5469 36.4805 45.0313V39.1016C36.4805 38.5 36.9531 38.0273 37.5547 38.0273H41.9375C42.5391 38.0273 43.0117 38.5 43.0117 39.1016V45.6758C43.0117 45.998 42.8828 46.2773 42.6465 46.4922C42.4531 46.6641 42.1953 46.7715 41.9375 46.7715ZM38.6289 44.0859L40.8633 44.4297V40.1758H38.6289V44.0859Z" fill="#E12213"/>
<path d="M76.5276 64.4962L41.594 62.4122C41.2932 62.3907 41.0139 62.2403 40.8205 62.004L34.1819 53.6251C33.967 53.3672 33.9026 53.0235 33.9885 52.7012C34.0744 52.379 34.2893 52.1212 34.5901 51.9708L41.5295 48.8555C41.7229 48.7696 41.9162 48.7481 42.1311 48.7696L76.1623 53.9258L75.8401 56.0528L42.1096 50.961L36.7385 53.3672L42.217 60.2852L76.6779 62.3477L76.5276 64.4962Z" fill="#E12213"/>
<path d="M102.266 56.5039H108.926V58.6523H102.266V56.5039Z" fill="#E12213"/>
</g>
<defs>
<clipPath id="clip0_49_737">
<rect width="110" height="110" fill="white"/>
</clipPath>
</defs>
</svg>
