<svg width="41" height="40" viewBox="0 0 41 40" fill="none" xmlns="http://www.w3.org/2000/svg">
<g clip-path="url(#clip0_14_156)">
<path d="M18.3819 10.5338L14.0976 6.2494C13.3048 5.45658 12.0147 5.45658 11.2219 6.2494L9.5265 7.94479C8.73368 8.73761 8.73368 10.0277 9.5265 10.8205L13.8108 15.1048C14.2073 15.5013 14.7279 15.6994 15.2487 15.6994C15.7693 15.6994 16.2902 15.5012 16.6865 15.1048L18.3819 13.4095C19.1747 12.6167 19.1747 11.3266 18.3819 10.5338ZM17.5768 12.6044L15.8814 14.2997C15.7124 14.4687 15.4877 14.5619 15.2487 14.5619C15.0096 14.5619 14.785 14.4687 14.6159 14.2997L10.3316 10.0154C9.98267 9.66652 9.98267 9.09878 10.3316 8.74988L12.027 7.05456C12.2014 6.8801 12.4306 6.79284 12.6598 6.79284C12.8889 6.79284 13.1181 6.8801 13.2925 7.05448L17.5768 11.3389C17.7458 11.5079 17.839 11.7326 17.839 11.9716C17.839 12.2107 17.7458 12.4354 17.5768 12.6044Z" fill="#EDA708"/>
<path d="M13.1903 15.7256L8.90588 11.4412C8.11306 10.6484 6.82306 10.6484 6.03024 11.4412L4.33485 13.1366C3.54203 13.9294 3.54203 15.2195 4.33485 16.0123L8.61916 20.2967C9.01557 20.6931 9.53627 20.8913 10.057 20.8913C10.5777 20.8913 11.0985 20.6931 11.4949 20.2967L13.1903 18.6013C13.9831 17.8085 13.9831 16.5184 13.1903 15.7256ZM12.3852 17.7962L10.6898 19.4915C10.3409 19.8404 9.77315 19.8403 9.42424 19.4915L5.13993 15.2071C4.97094 15.0381 4.87782 14.8134 4.87782 14.5744C4.87782 14.3354 4.97086 14.1106 5.13993 13.9416L6.83533 12.2463C7.00978 12.0718 7.23892 11.9846 7.46806 11.9846C7.6972 11.9846 7.92634 12.0718 8.1008 12.2463L12.3852 16.5306C12.7341 16.8795 12.7341 17.4473 12.3852 17.7962Z" fill="#EDA708"/>
<path d="M39.4988 13.2162L34.1071 7.82446C33.2971 7.01445 32.1766 6.5918 31.0337 6.66422C30.7686 6.68109 30.5083 6.72531 30.2558 6.79297C29.3321 6.08828 28.2151 5.44429 26.9922 4.91999C25.174 4.14038 23.325 3.711 21.7853 3.711C21.7851 3.711 21.7849 3.711 21.7847 3.711C21.5721 3.711 21.3683 3.71991 21.1728 3.73639C20.7199 3.21444 20.0749 2.86366 19.347 2.79459L14.1459 2.30092C12.8119 2.17428 11.5037 2.64506 10.5563 3.59249L5.11418 9.03462C4.89183 9.25688 4.89183 9.61735 5.11418 9.8397C5.33644 10.062 5.69691 10.062 5.91926 9.8397L11.3614 4.39757C12.0679 3.69108 13.0436 3.33983 14.0384 3.43436L19.2395 3.92804C20.0143 4.00163 20.6301 4.61741 20.7037 5.39226L20.9824 8.3293C20.9772 8.32462 20.9719 8.31993 20.9666 8.31516C20.9193 8.2729 20.8726 8.23055 20.827 8.18797C20.7868 8.15063 20.7473 8.11313 20.7085 8.07555C20.6903 8.05782 20.6722 8.04016 20.6542 8.02235C20.5996 7.96829 20.5458 7.91415 20.494 7.85977C20.4487 7.81211 20.4053 7.76469 20.3629 7.71735C20.3528 7.70602 20.3427 7.69477 20.3327 7.68352C20.2925 7.63805 20.2534 7.59274 20.2159 7.54766C20.2074 7.53758 20.1996 7.52758 20.1913 7.5175C20.1617 7.48149 20.1331 7.44571 20.1054 7.41C20.0938 7.39516 20.0821 7.38024 20.0709 7.36547C20.0407 7.32578 20.0116 7.28625 19.9836 7.24703C19.9698 7.22758 19.9566 7.20836 19.9433 7.18906C19.9331 7.17414 19.9232 7.15938 19.9133 7.14461C20.2384 6.4675 20.1226 5.63007 19.5621 5.0696C18.8527 4.36022 17.6984 4.36015 16.9889 5.0696C16.2795 5.77906 16.2795 6.93336 16.9889 7.64282C17.3436 7.9975 17.8096 8.17485 18.2755 8.17485C18.5604 8.17485 18.8451 8.10774 19.1045 7.97508C19.2676 8.19672 19.4556 8.42032 19.6691 8.64462C20.0825 9.07915 20.5764 9.50243 21.1318 9.90384L21.1973 10.5934C21.2917 11.588 20.9406 12.5638 20.2341 13.2703L11.0419 22.4626C10.8066 22.6978 10.4939 22.8273 10.1612 22.8273C9.82857 22.8273 9.51583 22.6978 9.2806 22.4626L2.16909 15.351C1.93385 15.1158 1.80432 14.8031 1.80432 14.4704C1.80432 14.1378 1.93385 13.825 2.16909 13.5898L3.28948 12.4694C3.51183 12.2471 3.51183 11.8867 3.28948 11.6643C3.06722 11.442 2.70675 11.442 2.4844 11.6643L1.36408 12.7846C0.434628 13.714 0.434628 15.2264 1.36408 16.156L8.4756 23.2675C8.92583 23.7177 9.52451 23.9658 10.1613 23.9658C10.7981 23.9658 11.3968 23.7178 11.847 23.2675L21.0392 14.0753C21.9389 13.1755 22.4078 11.9502 22.3443 10.6868C22.9057 11.0117 23.5059 11.3137 24.135 11.5834C24.4887 11.7351 24.8436 11.8731 25.1971 11.9977L21.9974 16.1336C20.9034 17.5476 20.8994 19.5008 21.9149 20.9136L19.2874 23.5411C18.9918 23.8368 18.8683 24.2731 18.9651 24.6799C18.971 24.7049 18.9635 24.7318 18.9452 24.7501L17.0492 26.6461C16.9736 26.7217 16.91 26.8081 16.8601 26.903L15.7926 28.9364L13.8767 29.9268C13.674 30.0317 13.5077 30.2026 13.4085 30.4082L12.6572 31.9662L10.3762 33.395C10.1367 33.5449 9.97888 33.7917 9.9431 34.0718L9.61177 36.6607C9.57458 36.9514 9.67209 37.2369 9.87927 37.444C10.0575 37.6222 10.2937 37.7193 10.5412 37.7193C10.5814 37.7193 10.6219 37.7167 10.6626 37.7115L13.2516 37.3802C13.5316 37.3443 13.7783 37.1866 13.9284 36.9472L15.3572 34.6662L16.9151 33.9148C17.1207 33.8157 17.2917 33.6492 17.3966 33.4465L18.3869 31.5308L20.4204 30.4632C20.5153 30.4134 20.6018 30.3497 20.6773 30.2742L22.5732 28.3782C22.5917 28.3597 22.6181 28.3522 22.6434 28.3584C23.0503 28.4551 23.4867 28.3316 23.7822 28.0359L26.4094 25.4087C27.1011 25.9059 27.9218 26.1592 28.746 26.1591C29.6053 26.1591 30.4679 25.8844 31.1897 25.326L34.2348 22.9701C34.4834 22.7777 34.5291 22.4202 34.3367 22.1715C34.1444 21.923 33.7868 21.8772 33.5381 22.0696L30.493 24.4255C29.3752 25.2902 27.7865 25.203 26.7691 24.231C26.7682 24.2302 26.7675 24.2293 26.7668 24.2285L26.7439 24.2069C26.7364 24.1999 26.729 24.193 26.7218 24.1858L23.1377 20.6017C23.1306 20.5946 23.1238 20.5872 23.1169 20.58L23.0945 20.5563C23.0939 20.5557 23.0932 20.5551 23.0926 20.5545C22.1206 19.5372 22.0331 17.9482 22.898 16.8304L26.3581 12.3579C27.4138 12.6415 28.432 12.7925 29.3419 12.7925C29.342 12.7925 29.3423 12.7925 29.3425 12.7925C29.613 12.7925 29.8699 12.7789 30.1126 12.7524L34.6568 17.2966C34.9862 17.6259 35.4188 17.7906 35.8513 17.7906C36.2839 17.7906 36.7165 17.6259 37.0459 17.2966C37.7045 16.6379 37.7045 15.5663 37.0459 14.9076L32.4158 10.2776C32.0968 9.95853 31.6726 9.78282 31.2213 9.78282C30.7701 9.78282 30.3458 9.95853 30.0268 10.2776C29.7077 10.5967 29.5319 11.0209 29.5319 11.4721C29.5319 11.5322 29.5355 11.5917 29.5417 11.6507C29.4763 11.6527 29.4101 11.654 29.3423 11.654C29.3421 11.654 29.342 11.654 29.3418 11.654C28.6608 11.654 27.907 11.5581 27.1178 11.3759L29.0324 8.90102C29.5333 8.2536 30.289 7.8525 31.1058 7.80063C31.9229 7.74844 32.7232 8.05086 33.3019 8.62962L38.6937 14.0214C39.2724 14.6002 39.5746 15.4006 39.5227 16.2175C39.4708 17.0343 39.0697 17.7901 38.4223 18.2909L36.5827 19.7141C36.334 19.9065 36.2884 20.264 36.4807 20.5127C36.673 20.7613 37.0306 20.8069 37.2793 20.6147L39.1189 19.1915C40.0249 18.4905 40.5862 17.4329 40.6589 16.2897C40.7317 15.1464 40.3088 14.0262 39.4988 13.2162ZM18.2756 7.03703C18.0937 7.03703 17.9227 6.96617 17.794 6.83758C17.6654 6.70891 17.5945 6.53789 17.5945 6.35601C17.5945 6.17414 17.6654 6.00312 17.794 5.87453C17.9227 5.74593 18.0937 5.67507 18.2756 5.67507C18.3038 5.67507 18.3317 5.67742 18.3594 5.68078C18.2953 6.08765 18.3571 6.52648 18.5396 6.98398C18.4571 7.01867 18.3677 7.03703 18.2756 7.03703ZM22.6823 21.7564L25.5668 24.6409L22.9771 27.2307C22.9589 27.2489 22.9318 27.2565 22.9069 27.2505C22.5002 27.1538 22.0638 27.2773 21.7681 27.573L19.8803 29.4607L17.8359 30.5341C17.6424 30.6356 17.4871 30.7919 17.3866 30.9862L16.397 32.9007L14.8423 33.6505C14.6619 33.7374 14.5105 33.8731 14.4041 34.0428L13.0134 36.263L10.7738 36.5496L11.0605 34.31L13.2805 32.9194C13.4501 32.8131 13.5859 32.6617 13.6729 32.4813L14.4227 30.9265L16.3372 29.9368C16.5313 29.8365 16.6876 29.6812 16.7892 29.4877L17.8627 27.443L19.7502 25.5554C20.046 25.2598 20.1695 24.8234 20.0728 24.4166C20.0667 24.3911 20.0742 24.3648 20.0926 24.3464L22.6823 21.7564ZM32.3178 11.7896L36.2407 15.7125C36.4555 15.9273 36.4555 16.2767 36.2407 16.4914C36.1366 16.5954 35.9984 16.6527 35.8512 16.6527C35.7041 16.6527 35.5659 16.5954 35.4618 16.4914L31.4033 12.4328C31.7805 12.2705 32.0882 12.0551 32.3178 11.7896ZM30.8319 11.0826C30.9359 10.9785 31.0742 10.9213 31.2213 10.9213C31.3187 10.9213 31.412 10.9469 31.4944 10.9941C31.334 11.2071 31.0519 11.3752 30.6713 11.4881C30.6712 11.4828 30.6705 11.4774 30.6705 11.472C30.6705 11.3249 30.7278 11.1866 30.8319 11.0826ZM28.1319 8.20415L25.9339 11.0453C25.487 10.8999 25.035 10.7306 24.5836 10.537C23.7219 10.1675 22.9209 9.7372 22.2153 9.27001L21.8371 5.28452C21.8229 5.13577 21.7964 4.9907 21.7598 4.84968C21.7681 4.84968 21.7763 4.84937 21.7847 4.84937C21.7849 4.84937 21.785 4.84937 21.7853 4.84937C23.174 4.84937 24.8639 5.24601 26.5435 5.96625C27.4668 6.36219 28.3211 6.82797 29.0624 7.33414C28.7113 7.57008 28.3962 7.8625 28.1319 8.20415Z" fill="#EDA708"/>
</g>
<defs>
<clipPath id="clip0_14_156">
<rect width="40" height="40" fill="white" transform="translate(0.666748)"/>
</clipPath>
</defs>
</svg>
