<svg width="41" height="40" viewBox="0 0 41 40" fill="none" xmlns="http://www.w3.org/2000/svg">
<g clip-path="url(#clip0_14_184)">
<path d="M23.5633 17.13C21.4579 15.0247 19.2961 13.2166 17.476 12.0389C15.2358 10.5894 13.832 10.2747 13.0583 11.0483C12.9104 11.1962 12.8025 11.3674 12.7345 11.563L0.6759 38.9025C0.54587 39.1973 0.609986 39.5416 0.837364 39.7699C0.987177 39.9203 1.18766 40 1.39142 40C1.49698 40 1.6034 39.9786 1.70418 39.9346L29.138 27.9549C29.3301 27.8867 29.4992 27.7808 29.6451 27.6349C30.4188 26.8612 30.1039 25.4575 28.6543 23.2172C27.4767 21.3972 25.6686 19.2354 23.5633 17.13ZM21.5858 29.5463L19.5273 27.4878C19.222 27.1825 18.7269 27.1825 18.4215 27.4878C18.1161 27.7932 18.1161 28.2883 18.4215 28.5937L20.0464 30.2186L12.3626 33.5739L7.06977 28.2811L10.4485 20.6207L13.9983 24.1704C14.151 24.3231 14.3511 24.3995 14.5512 24.3995C14.7513 24.3995 14.9515 24.3231 15.1041 24.1704C15.4094 23.8651 15.4094 23.37 15.1041 23.0646L11.1254 19.0859L13.2916 14.1745C13.4954 14.5701 13.7472 14.9995 14.0489 15.4658C15.2267 17.2859 17.0347 19.4477 19.14 21.5531C21.2453 23.6584 23.4071 25.4664 25.2273 26.6442C25.6896 26.9434 26.1159 27.1937 26.5088 27.3965L21.5858 29.5463ZM22.4574 18.2359C24.3163 20.0947 25.9568 22.0241 27.0769 23.6687C28.1576 25.2555 28.4469 26.13 28.4852 26.4751C28.1402 26.4368 27.2655 26.1475 25.6788 25.0668C24.0341 23.9467 22.1047 22.3062 20.2459 20.4473C18.3871 18.5885 16.7465 16.6591 15.6264 15.0145C14.5457 13.4277 14.2564 12.5531 14.2181 12.2081C14.5632 12.2464 15.4378 12.5358 17.0245 13.6164C18.6693 14.7364 20.5986 16.377 22.4574 18.2359ZM6.39288 29.8157L10.8232 34.2461L2.91582 37.6991L6.39288 29.8157Z" fill="#EDA708"/>
<path d="M33.1058 8.30413C33.0078 7.73686 33.0031 7.54819 33.1608 7.39048C33.3185 7.23269 33.5072 7.23738 34.0746 7.33535C34.6841 7.4406 35.6055 7.59964 36.36 6.84486C36.6653 6.53953 36.6653 6.04443 36.3599 5.73909C36.0547 5.43384 35.5595 5.43376 35.2542 5.73917C35.0964 5.8968 34.9076 5.89219 34.3404 5.7943C33.7308 5.68905 32.8095 5.53017 32.0549 6.28478C31.3004 7.03948 31.4595 7.96072 31.5647 8.57029C31.6627 9.13757 31.6674 9.32624 31.5097 9.48403C31.3521 9.64166 31.1636 9.63712 30.5961 9.53907C29.9866 9.43391 29.0653 9.27479 28.3107 10.0294C27.5561 10.784 27.7153 11.7053 27.8207 12.3148C27.9187 12.882 27.9233 13.0707 27.7658 13.2283C27.6081 13.386 27.4194 13.3814 26.8523 13.2833C26.2428 13.1781 25.3215 13.0189 24.5669 13.7736C24.2615 14.079 24.2616 14.5741 24.5669 14.8794C24.7196 15.032 24.9196 15.1083 25.1197 15.1083C25.3198 15.1083 25.52 15.032 25.6726 14.8793C25.8303 14.7217 26.0189 14.7264 26.5861 14.8243C27.1957 14.9296 28.1169 15.0887 28.8716 14.334C29.6261 13.5794 29.4669 12.6581 29.3616 12.0485C29.2636 11.4814 29.259 11.2927 29.4165 11.1351C29.5741 10.9775 29.7628 10.9821 30.33 11.0801C30.9397 11.1854 31.8609 11.3444 32.6154 10.5897C33.3702 9.83503 33.2111 8.91378 33.1058 8.30413Z" fill="#EDA708"/>
<path d="M17.6114 9.15387C17.7641 9.30658 17.9641 9.38289 18.1642 9.38289C18.3643 9.38289 18.5645 9.3065 18.7171 9.15387C20.6617 7.20904 20.6617 4.04459 18.7171 2.09976C18.4119 1.79442 17.9168 1.79435 17.6114 2.09976C17.306 2.40509 17.3059 2.90012 17.6114 3.20553C18.9463 4.54063 18.9463 6.71308 17.6114 8.04818C17.306 8.35351 17.306 8.84862 17.6114 9.15387Z" fill="#EDA708"/>
<path d="M35.7191 23.2267C34.3869 23.2267 33.1343 23.7456 32.1924 24.6877C31.887 24.9931 31.887 25.4881 32.1924 25.7935C32.4977 26.0988 32.9929 26.0988 33.2982 25.7934C33.9449 25.1467 34.8046 24.7905 35.7192 24.7905C36.6337 24.7905 37.4934 25.1467 38.1401 25.7934C38.2927 25.9462 38.4929 26.0225 38.693 26.0225C38.8931 26.0225 39.0932 25.9462 39.2458 25.7935C39.5512 25.4882 39.5512 24.9931 39.2459 24.6877C38.3037 23.7456 37.0513 23.2267 35.7191 23.2267Z" fill="#EDA708"/>
<path d="M38.0723 3.90953C38.5041 3.90953 38.8542 3.55939 38.8542 3.12762L38.8541 0.781905C38.8541 0.350137 38.504 0 38.0722 0C37.6403 0 37.2903 0.350137 37.2903 0.781905L37.2904 3.12762C37.2904 3.55947 37.6404 3.90953 38.0723 3.90953Z" fill="#EDA708"/>
<path d="M24.1132 5.47981H24.8888V6.25538C24.8888 6.68723 25.2389 7.03728 25.6708 7.03728C26.1025 7.03728 26.4526 6.68715 26.4526 6.25538V5.47981H27.2281C27.6599 5.47981 28.01 5.12967 28.01 4.6979C28.01 4.26613 27.6598 3.916 27.2281 3.916H26.4525V3.14043C26.4525 2.70858 26.1024 2.35852 25.6705 2.35852C25.2388 2.35852 24.8887 2.70866 24.8887 3.14043V3.916H24.1132C23.6814 3.916 23.3313 4.26613 23.3313 4.6979C23.3313 5.12967 23.6814 5.47981 24.1132 5.47981Z" fill="#EDA708"/>
<path d="M39.2757 11.0249L36.93 11.025C36.4983 11.025 36.1482 11.3751 36.1482 11.8069C36.1482 12.2387 36.4983 12.5888 36.9302 12.5888L39.2759 12.5887C39.7077 12.5887 40.0577 12.2386 40.0577 11.8068C40.0577 11.375 39.7077 11.0248 39.2757 11.0249Z" fill="#EDA708"/>
<path d="M34.1934 20.5641C35.4868 20.5641 36.5391 19.5118 36.5391 18.2184C36.5391 16.925 35.4868 15.8727 34.1934 15.8727C32.8999 15.8727 31.8477 16.925 31.8477 18.2184C31.8477 19.5118 32.8999 20.5641 34.1934 20.5641ZM34.1934 17.4365C34.6245 17.4365 34.9753 17.7873 34.9753 18.2184C34.9753 18.6495 34.6245 19.0003 34.1934 19.0003C33.7622 19.0003 33.4115 18.6495 33.4115 18.2184C33.4115 17.7873 33.7622 17.4365 34.1934 17.4365Z" fill="#EDA708"/>
<path d="M16.7629 25.0474C16.3311 25.0474 15.981 25.3974 15.981 25.8293C15.981 26.2611 16.3311 26.6112 16.7629 26.6112H16.7636C17.1954 26.6112 17.5452 26.2611 17.5452 25.8293C17.5452 25.3974 17.1947 25.0474 16.7629 25.0474Z" fill="#EDA708"/>
<path d="M34.2714 28.1675C33.8396 28.1675 33.4895 28.5175 33.4895 28.9494C33.4895 29.3812 33.8396 29.7313 34.2714 29.7313H34.2722C34.704 29.7313 35.0537 29.3812 35.0537 28.9494C35.0537 28.5175 34.7032 28.1675 34.2714 28.1675Z" fill="#EDA708"/>
<path d="M38.9628 15.6381C38.531 15.6381 38.1809 15.9881 38.1809 16.42C38.1809 16.8518 38.531 17.2019 38.9628 17.2019H38.9636C39.3954 17.2019 39.7451 16.8518 39.7451 16.42C39.7451 15.9881 39.3946 15.6381 38.9628 15.6381Z" fill="#EDA708"/>
<path d="M28.7719 18.0387C28.3401 18.0387 27.99 18.3888 27.99 18.8206C27.99 19.2524 28.3401 19.6025 28.7719 19.6025H28.7727C29.2044 19.6025 29.5542 19.2524 29.5542 18.8206C29.5542 18.3888 29.2037 18.0387 28.7719 18.0387Z" fill="#EDA708"/>
<path d="M22.4718 10.2429C22.0401 10.2429 21.6899 10.593 21.6899 11.0248C21.6899 11.4567 22.0401 11.8067 22.4718 11.8067H22.4726C22.9044 11.8067 23.2541 11.4567 23.2541 11.0248C23.2541 10.593 22.9036 10.2429 22.4718 10.2429Z" fill="#EDA708"/>
<path d="M31.9328 0.859619C31.501 0.859619 31.1509 1.20968 31.1509 1.64152C31.1509 2.07337 31.501 2.42343 31.9328 2.42343H31.9336C32.3653 2.42343 32.7151 2.07337 32.7151 1.64152C32.7151 1.20968 32.3646 0.859619 31.9328 0.859619Z" fill="#EDA708"/>
<path d="M13.9418 4.69141C13.51 4.69141 13.1599 5.04147 13.1599 5.47331C13.1599 5.90516 13.51 6.25522 13.9418 6.25522H13.9426C14.3744 6.25522 14.7241 5.90516 14.7241 5.47331C14.7241 5.04147 14.3736 4.69141 13.9418 4.69141Z" fill="#EDA708"/>
</g>
<defs>
<clipPath id="clip0_14_184">
<rect width="40" height="40" fill="white" transform="translate(0.333496)"/>
</clipPath>
</defs>
</svg>
