<svg width="69" height="68" viewBox="0 0 69 68" fill="none" xmlns="http://www.w3.org/2000/svg">
<g clip-path="url(#clip0_76_149)">
<path d="M34.3333 0C15.586 0 0.333252 15.2527 0.333252 34C0.333252 52.7473 15.586 68 34.3333 68C53.0805 68 68.3333 52.7473 68.3333 34C68.3333 15.2527 53.0805 0 34.3333 0ZM34.3333 63.75C17.9288 63.75 4.58327 50.4044 4.58327 34C4.58327 17.5956 17.9288 4.25002 34.3333 4.25002C50.7377 4.25002 64.0832 17.5956 64.0832 34C64.0832 50.4044 50.7377 63.75 34.3333 63.75Z" fill="#E12213"/>
<path d="M36.4583 12.7501H32.2083V34.8799L45.5808 48.2524L48.5857 45.2475L36.4583 33.1201V12.7501Z" fill="#E12213"/>
</g>
<defs>
<clipPath id="clip0_76_149">
<rect width="68" height="68" fill="white" transform="translate(0.333252)"/>
</clipPath>
</defs>
</svg>
