<svg width="48" height="48" viewBox="0 0 48 48" fill="none" xmlns="http://www.w3.org/2000/svg">
<path d="M2.6988 25.414L10.5321 33.414C10.7128 33.6051 10.9289 33.7574 11.1678 33.8622C11.4067 33.9671 11.6637 34.0222 11.9237 34.0245C12.1837 34.0268 12.4416 33.9762 12.6823 33.8757C12.923 33.7751 13.1416 33.6266 13.3255 33.4388C13.5094 33.251 13.6548 33.0277 13.7532 32.7819C13.8517 32.5362 13.9013 32.2728 13.899 32.0072C13.8967 31.7417 13.8427 31.4792 13.7401 31.2352C13.6374 30.9912 13.4883 30.7705 13.3012 30.586L6.85243 24L13.3012 17.414C13.4883 17.2295 13.6374 17.0089 13.7401 16.7648C13.8427 16.5208 13.8967 16.2584 13.899 15.9928C13.9013 15.7273 13.8517 15.4639 13.7532 15.2181C13.6548 14.9723 13.5094 14.749 13.3255 14.5612C13.1416 14.3735 12.923 14.225 12.6823 14.1244C12.4416 14.0238 12.1837 13.9732 11.9237 13.9755C11.6637 13.9778 11.4067 14.033 11.1678 14.1378C10.9289 14.2427 10.7128 14.395 10.5321 14.586L2.6988 22.586C2.33167 22.9611 2.12543 23.4697 2.12543 24C2.12543 24.5304 2.33167 25.039 2.6988 25.414Z" fill="#43B7FF"/>
<path d="M36.8012 14.586C36.6206 14.395 36.4045 14.2427 36.1655 14.1378C35.9266 14.033 35.6696 13.9778 35.4096 13.9755C35.1496 13.9732 34.8917 14.0238 34.651 14.1244C34.4104 14.225 34.1917 14.3735 34.0078 14.5612C33.824 14.749 33.6786 14.9723 33.5801 15.2181C33.4816 15.4639 33.4321 15.7273 33.4343 15.9928C33.4366 16.2584 33.4906 16.5208 33.5933 16.7648C33.6959 17.0089 33.8451 17.2295 34.0321 17.414L40.4809 24L34.0321 30.586C33.8451 30.7705 33.6959 30.9912 33.5933 31.2352C33.4906 31.4792 33.4366 31.7417 33.4343 32.0072C33.4321 32.2728 33.4816 32.5362 33.5801 32.7819C33.6786 33.0277 33.824 33.251 34.0078 33.4388C34.1917 33.6266 34.4104 33.7751 34.651 33.8757C34.8917 33.9762 35.1496 34.0268 35.4096 34.0245C35.6696 34.0222 35.9266 33.9671 36.1655 33.8622C36.4045 33.7574 36.6206 33.6051 36.8012 33.414L44.6345 25.414C45.0017 25.039 45.2079 24.5304 45.2079 24C45.2079 23.4697 45.0017 22.9611 44.6345 22.586L36.8012 14.586Z" fill="#43B7FF"/>
<path d="M25.7014 9.45202L17.8681 37.452C17.7255 37.9618 17.7869 38.5085 18.0388 38.972C18.2907 39.4355 18.7125 39.778 19.2115 39.924C19.3869 39.9735 19.568 39.9991 19.75 40C20.1756 39.9997 20.5895 39.8578 20.9291 39.5958C21.2686 39.3338 21.5154 38.966 21.632 38.548L29.4653 10.548C29.547 10.2923 29.5773 10.0224 29.5544 9.7545C29.5316 9.48656 29.4561 9.22608 29.3324 8.98864C29.2087 8.7512 29.0394 8.54168 28.8346 8.3726C28.6298 8.20353 28.3937 8.07837 28.1404 8.00463C27.8872 7.93088 27.622 7.91006 27.3607 7.94341C27.0993 7.97676 26.8473 8.06359 26.6196 8.19872C26.3919 8.33384 26.1932 8.51448 26.0355 8.72982C25.8777 8.94517 25.7641 9.1908 25.7014 9.45202Z" fill="#43B7FF"/>
</svg>
