<svg width="40" height="40" viewBox="0 0 40 40" fill="none" xmlns="http://www.w3.org/2000/svg">
<path d="M2.15497 21.1784L8.82164 27.8451C8.97538 28.0042 9.15929 28.1312 9.36263 28.2186C9.56597 28.3059 9.78467 28.3519 10.006 28.3538C10.2273 28.3557 10.4467 28.3136 10.6516 28.2298C10.8564 28.146 11.0425 28.0222 11.199 27.8657C11.3554 27.7092 11.4792 27.5231 11.563 27.3183C11.6468 27.1135 11.689 26.894 11.6871 26.6727C11.6851 26.4514 11.6392 26.2327 11.5518 26.0294C11.4645 25.826 11.3375 25.6421 11.1783 25.4884L5.68997 20.0001L11.1783 14.5117C11.3375 14.358 11.4645 14.1741 11.5518 13.9707C11.6392 13.7674 11.6851 13.5487 11.6871 13.3274C11.689 13.1061 11.6468 12.8866 11.563 12.6818C11.4792 12.477 11.3554 12.2909 11.199 12.1344C11.0425 11.9779 10.8564 11.8542 10.6516 11.7704C10.4467 11.6865 10.2273 11.6444 10.006 11.6463C9.78467 11.6482 9.56597 11.6942 9.36263 11.7816C9.15929 11.8689 8.97538 11.9959 8.82164 12.1551L2.15497 18.8217C1.84252 19.1343 1.66699 19.5581 1.66699 20.0001C1.66699 20.442 1.84252 20.8658 2.15497 21.1784Z" fill="white"/>
<path d="M31.1782 12.1551C31.0245 11.9959 30.8406 11.8689 30.6372 11.7816C30.4339 11.6942 30.2152 11.6482 29.9939 11.6463C29.7726 11.6444 29.5531 11.6865 29.3483 11.7704C29.1435 11.8542 28.9574 11.9779 28.8009 12.1344C28.6444 12.2909 28.5207 12.477 28.4369 12.6818C28.3531 12.8866 28.3109 13.1061 28.3128 13.3274C28.3147 13.5487 28.3607 13.7674 28.4481 13.9707C28.5354 14.1741 28.6624 14.358 28.8216 14.5117L34.3099 20.0001L28.8216 25.4884C28.6624 25.6421 28.5354 25.826 28.4481 26.0294C28.3607 26.2327 28.3147 26.4514 28.3128 26.6727C28.3109 26.894 28.3531 27.1135 28.4369 27.3183C28.5207 27.5231 28.6444 27.7092 28.8009 27.8657C28.9574 28.0222 29.1435 28.146 29.3483 28.2298C29.5531 28.3136 29.7726 28.3557 29.9939 28.3538C30.2152 28.3519 30.4339 28.3059 30.6372 28.2186C30.8406 28.1312 31.0245 28.0042 31.1782 27.8451L37.8449 21.1784C38.1573 20.8658 38.3329 20.442 38.3329 20.0001C38.3329 19.5581 38.1573 19.1343 37.8449 18.8217L31.1782 12.1551Z" fill="white"/>
<path d="M21.7318 7.87672L15.0651 31.2101C14.9437 31.6348 14.996 32.0904 15.2104 32.4767C15.4248 32.863 15.7838 33.1483 16.2084 33.2701C16.3577 33.3113 16.5119 33.3326 16.6668 33.3334C17.029 33.3331 17.3812 33.2149 17.6702 32.9966C17.9592 32.7782 18.1692 32.4717 18.2684 32.1234L24.9351 8.79006C25.0046 8.57698 25.0304 8.35207 25.0109 8.12879C24.9915 7.90551 24.9272 7.68844 24.822 7.49057C24.7167 7.29271 24.5726 7.1181 24.3983 6.97721C24.224 6.83631 24.0231 6.73202 23.8075 6.67056C23.592 6.60911 23.3663 6.59176 23.1439 6.61955C22.9215 6.64734 22.707 6.7197 22.5132 6.8323C22.3194 6.94491 22.1503 7.09544 22.0161 7.27489C21.8818 7.45435 21.7851 7.65904 21.7318 7.87672Z" fill="white"/>
</svg>
