<svg width="158" height="63" viewBox="0 0 158 63" fill="none" xmlns="http://www.w3.org/2000/svg">
<g clip-path="url(#clip0_28_118)">
<path d="M120.281 22.9842L120.28 22.9828L120.279 22.9814L120.278 22.9806C120.279 22.9818 120.28 22.983 120.281 22.9842ZM6.57772 4.2688C6.57836 4.26951 6.579 4.27023 6.57964 4.27095ZM6.57772 4.2688L6.58098 4.27245ZM6.57964 4.27095C6.58009 4.27145 6.58053 4.27195 6.58098 4.27245ZM6.57964 4.27095C6.58009 4.27145 6.58053 4.27195 6.58098 4.27245ZM6.57964 4.27095C6.58009 4.27145 6.58053 4.27195 6.58098 4.27245ZM127.286 34.0318C123.088 32.1959 119.272 29.0413 116.905 25.13C116.9 25.1222 116.895 25.1138 116.89 25.1048C116.881 25.091 116.872 25.0755 116.862 25.0585C116.849 25.037 116.836 25.013 116.821 24.9867C116.772 24.8985 116.701 24.7598 116.635 24.5896C116.577 24.4368 116.482 24.1538 116.464 23.801C116.446 23.447 116.499 22.7964 117.008 22.2221C117.495 21.6738 118.098 21.5359 118.404 21.4975C118.727 21.4571 119.002 21.4897 119.158 21.5149C119.331 21.5427 119.476 21.5814 119.57 21.6094C119.62 21.6242 119.663 21.6382 119.697 21.6496C119.705 21.6526 119.713 21.6554 119.721 21.6581C119.728 21.6606 119.735 21.663 119.741 21.6653L119.759 21.6717L119.764 21.6737C125.344 23.74 131.313 23.9322 137.586 24.0409C137.622 24.0415 137.658 24.0431 137.693 24.0456C142.431 24.3817 147.191 24.1967 151.89 23.4938L151.913 23.4904C152.575 23.3995 153.248 23.5093 153.846 23.8048C154.444 24.1003 154.939 24.5673 155.269 25.1443C155.599 25.7213 155.75 26.3829 155.704 27.0449C155.659 27.707 155.418 28.3418 155.011 28.868L155.007 28.8735L153.149 31.2587C147.867 38.7725 146.556 48.7111 145.394 58.3888C145.393 58.3986 145.392 58.409 145.391 58.42C145.386 58.4647 145.379 58.5217 145.368 58.5875C145.348 58.7104 145.31 58.903 145.235 59.1195C145.167 59.315 145.023 59.6666 144.722 59.9994C144.382 60.3759 143.812 60.7471 143.049 60.7471C142.275 60.7471 141.688 60.3639 141.337 59.9485C141.035 59.5903 140.905 59.2161 140.848 59.0163C140.783 58.7927 140.756 58.5953 140.743 58.4714C140.737 58.41 140.733 58.3562 140.731 58.3128C140.171 52.2724 140.074 46.0972 140.943 39.9626C119.929 54.027 93.6916 55.9724 69.1112 49.8151C42.9346 43.2579 18.3559 27.453 3.50251 6.82406C3.46717 6.77978 3.42473 6.72405 3.37893 6.65829C3.28567 6.52438 3.14941 6.30761 3.03953 6.02882C2.93329 5.75926 2.80692 5.31875 2.86716 4.78594C2.93398 4.19499 3.2155 3.64024 3.69006 3.22392C4.86183 2.19596 6.18755 2.73983 6.54718 2.91708C6.79896 3.04117 6.99872 3.18015 7.12592 3.27655C7.19298 3.32736 7.24882 3.3732 7.29147 3.40959C7.31296 3.42793 7.33158 3.44428 7.34708 3.45815L7.36812 3.47718L7.37694 3.48529L7.38092 3.48897L7.3828 3.49072L7.38372 3.49157C7.38409 3.49192 7.38446 3.49226 6.61756 4.31464C6.61755 4.31463 6.61757 4.31466 6.61756 4.31464L7.38461 3.49241C7.42268 3.52792 7.45935 3.56491 7.49454 3.60328C15.9002 12.7709 27.5246 20.9561 39.4504 27.2025C51.3841 33.453 63.4648 37.6815 72.718 39.0443C95.3814 42.375 111.024 40.2402 128.876 34.6572C128.338 34.4689 127.808 34.2599 127.286 34.0318ZM120.285 22.9907C120.285 22.9904 120.285 22.991 120.285 22.9907ZM6.08211 4.88873L6.61756 4.31464C6.61755 4.31463 6.61757 4.31466 6.61756 4.31464C6.46954 4.47336 6.2928 4.66286 6.08211 4.88873Z" fill="#E53825"/>
<path d="M120.281 22.9842L120.28 22.9828L120.279 22.9814L120.278 22.9806C120.279 22.9818 120.28 22.983 120.281 22.9842ZM120.281 22.9842L120.282 22.9857M6.57772 4.2688L6.57867 4.26986M6.57772 4.2688C6.57836 4.26951 6.579 4.27023 6.57964 4.27095C6.58009 4.27145 6.58053 4.27195 6.58098 4.27245L6.57772 4.2688ZM6.61756 4.31464C7.38446 3.49226 7.38409 3.49192 7.38372 3.49157L7.3828 3.49072L7.38092 3.48897L7.37694 3.48529L7.36812 3.47718L7.34708 3.45815C7.33158 3.44428 7.31296 3.42793 7.29147 3.40959C7.24882 3.3732 7.19298 3.32736 7.12592 3.27655C6.99872 3.18015 6.79896 3.04117 6.54718 2.91708C6.18755 2.73983 4.86183 2.19596 3.69006 3.22392C3.2155 3.64024 2.93398 4.19499 2.86716 4.78594C2.80692 5.31875 2.93329 5.75926 3.03953 6.02882C3.14941 6.30761 3.28567 6.52438 3.37893 6.65829C3.42473 6.72405 3.46717 6.77978 3.50251 6.82406C18.3559 27.453 42.9346 43.2579 69.1112 49.8151C93.6916 55.9724 119.929 54.027 140.943 39.9626C140.074 46.0972 140.171 52.2724 140.731 58.3128C140.733 58.3562 140.737 58.41 140.743 58.4714C140.756 58.5953 140.783 58.7927 140.848 59.0163C140.905 59.2161 141.035 59.5903 141.337 59.9485C141.688 60.3639 142.275 60.7471 143.049 60.7471C143.812 60.7471 144.382 60.3759 144.722 59.9994C145.023 59.6666 145.167 59.315 145.235 59.1195C145.31 58.903 145.348 58.7104 145.368 58.5875C145.379 58.5217 145.386 58.4647 145.391 58.42C145.392 58.409 145.393 58.3986 145.394 58.3888C146.556 48.7111 147.867 38.7725 153.149 31.2587L155.007 28.8735L155.011 28.868C155.418 28.3418 155.659 27.707 155.704 27.0449C155.75 26.3829 155.599 25.7213 155.269 25.1443C154.939 24.5673 154.444 24.1003 153.846 23.8048C153.248 23.5093 152.575 23.3995 151.913 23.4904L151.89 23.4938C147.191 24.1967 142.431 24.3817 137.693 24.0456C137.658 24.0431 137.622 24.0415 137.586 24.0409C131.313 23.9322 125.344 23.74 119.764 21.6737L119.759 21.6717L119.741 21.6653C119.735 21.663 119.728 21.6606 119.721 21.6581C119.713 21.6554 119.705 21.6526 119.697 21.6496C119.663 21.6382 119.62 21.6242 119.57 21.6094C119.476 21.5814 119.331 21.5427 119.158 21.5149C119.002 21.4897 118.727 21.4571 118.404 21.4975C118.098 21.5359 117.495 21.6738 117.008 22.2221C116.499 22.7964 116.446 23.447 116.464 23.801C116.482 24.1538 116.577 24.4368 116.635 24.5896C116.701 24.7598 116.772 24.8985 116.821 24.9867C116.836 25.013 116.849 25.037 116.862 25.0585C116.872 25.0755 116.881 25.091 116.89 25.1048C116.895 25.1138 116.9 25.1222 116.905 25.13C119.272 29.0413 123.088 32.1959 127.286 34.0318C127.808 34.2599 128.338 34.4689 128.876 34.6572C111.024 40.2402 95.3814 42.375 72.718 39.0443C63.4648 37.6815 51.3841 33.453 39.4504 27.2025C27.5246 20.9561 15.9002 12.7709 7.49454 3.60328C7.45935 3.56491 7.42268 3.52792 7.38461 3.49241L6.61756 4.31464ZM6.61756 4.31464C6.61757 4.31466 6.61755 4.31463 6.61756 4.31464ZM6.61756 4.31464L6.08211 4.88873C6.2928 4.66286 6.46954 4.47336 6.61756 4.31464ZM120.285 22.9907C120.285 22.991 120.285 22.9904 120.285 22.9907Z" stroke="white" stroke-width="4" stroke-linejoin="round"/>
</g>
<defs>
<clipPath id="clip0_28_118">
<rect width="158" height="63" fill="white"/>
</clipPath>
</defs>
</svg>
