<svg width="72" height="72" viewBox="0 0 72 72" fill="none" xmlns="http://www.w3.org/2000/svg">
<g clip-path="url(#clip0_50_290)">
<mask id="path-1-outside-1_50_290" maskUnits="userSpaceOnUse" x="0.125" y="-1" width="72" height="74" fill="black">
<rect fill="white" x="0.125" y="-1" width="72" height="74"/>
<path d="M53.9578 15.281L39.1005 0.331875C38.9959 0.226694 38.8716 0.143224 38.7347 0.0862679C38.5978 0.0293118 38.4509 -6.33102e-06 38.3026 1.02546e-09L5.76562 1.02546e-09C4.53529 0.00141431 3.35575 0.49079 2.48577 1.36077C1.61579 2.23075 1.12641 3.41029 1.125 4.64062V67.3594C1.12641 68.5897 1.61579 69.7692 2.48577 70.6392C3.35575 71.5092 4.53529 71.9986 5.76562 72H49.6447C50.875 71.9986 52.0546 71.5092 52.9246 70.6392C53.7945 69.7692 54.2839 68.5897 54.2853 67.3594V45.3937L68.9507 30.7281C70.187 29.4917 70.8816 27.8149 70.8816 26.0664C70.8816 24.3179 70.187 22.641 68.9507 21.4047C67.7143 20.1683 66.0375 19.4737 64.289 19.4737C62.5405 19.4737 60.8636 20.1683 59.6273 21.4047L54.2849 26.747V16.0736C54.2848 15.7766 54.1672 15.4917 53.9578 15.281ZM56.0306 28.1835L62.1719 34.3247L40.6422 55.8544L34.5009 49.7132L56.0306 28.1835ZM59.1334 25.0806L65.2746 31.2218L63.7628 32.7337L57.6219 26.5922L59.1334 25.0806ZM33.4839 51.8766L38.4564 56.8492L32.2509 58.0063L33.4839 51.8766ZM39.9835 4.41211L49.8132 14.3018H39.9835V4.41211ZM52.0353 67.3594C52.0346 67.9932 51.7825 68.6008 51.3343 69.049C50.8862 69.4972 50.2785 69.7493 49.6447 69.75H5.76562C5.13181 69.7493 4.52415 69.4972 4.07598 69.049C3.6278 68.6008 3.37571 67.9932 3.375 67.3594V4.64062C3.37571 4.00681 3.6278 3.39915 4.07598 2.95098C4.52415 2.5028 5.13181 2.25071 5.76562 2.25H37.7335V15.4266C37.7335 15.7249 37.852 16.0111 38.063 16.2221C38.274 16.433 38.5601 16.5516 38.8585 16.5516H52.035V28.9969L31.9413 49.0912C31.7845 49.2479 31.6776 49.4475 31.6339 49.6648L29.7166 59.1962C29.6803 59.3767 29.6888 59.5633 29.7415 59.7397C29.7941 59.916 29.8892 60.0768 30.0184 60.2079C30.1476 60.339 30.307 60.4363 30.4826 60.4915C30.6583 60.5466 30.8447 60.5577 31.0257 60.524L40.6752 58.725C40.8985 58.6834 41.104 58.5752 41.2646 58.4146L52.0353 47.6437V67.3594ZM67.3594 22.9958C68.1699 23.8123 68.6247 24.916 68.6247 26.0665C68.6247 27.2169 68.1699 28.3206 67.3594 29.1371L66.8655 29.631L60.7244 23.4897L61.2181 22.9958C62.0332 22.1827 63.1375 21.726 64.2888 21.726C65.4401 21.726 66.5444 22.1827 67.3594 22.9958ZM28.4119 52.7354C28.4119 53.0337 28.2933 53.3199 28.0824 53.5309C27.8714 53.7418 27.5852 53.8604 27.2869 53.8604H9.72239C9.42402 53.8604 9.13787 53.7418 8.9269 53.5309C8.71592 53.3199 8.59739 53.0337 8.59739 52.7354C8.59739 52.437 8.71592 52.1508 8.9269 51.9399C9.13787 51.7289 9.42402 51.6104 9.72239 51.6104H27.2865C27.4342 51.6103 27.5806 51.6394 27.7171 51.6959C27.8536 51.7524 27.9777 51.8352 28.0822 51.9397C28.1867 52.0442 28.2696 52.1682 28.3262 52.3047C28.3828 52.4413 28.4119 52.5876 28.4119 52.7354ZM8.59781 42.931C8.59781 42.6326 8.71634 42.3465 8.92732 42.1355C9.1383 41.9245 9.42444 41.806 9.72281 41.806H32.9309C33.2292 41.806 33.5154 41.9245 33.7264 42.1355C33.9373 42.3465 34.0559 42.6326 34.0559 42.931C34.0559 43.2294 33.9373 43.5155 33.7264 43.7265C33.5154 43.9375 33.2292 44.056 32.9309 44.056H9.72239C9.42402 44.056 9.13787 43.9375 8.9269 43.7265C8.71592 43.5155 8.59739 43.2294 8.59739 42.931H8.59781ZM8.59781 33.1266C8.59781 32.8282 8.71634 32.5421 8.92732 32.3311C9.1383 32.1201 9.42444 32.0016 9.72281 32.0016H45.6879C45.9863 32.0016 46.2725 32.1201 46.4834 32.3311C46.6944 32.5421 46.8129 32.8282 46.8129 33.1266C46.8129 33.425 46.6944 33.7111 46.4834 33.9221C46.2725 34.1331 45.9863 34.2516 45.6879 34.2516H9.72239C9.42402 34.2516 9.13787 34.1331 8.9269 33.9221C8.71592 33.7111 8.59739 33.425 8.59739 33.1266H8.59781ZM8.59781 23.3224C8.59781 23.024 8.71634 22.7379 8.92732 22.5269C9.1383 22.3159 9.42444 22.1974 9.72281 22.1974H45.6879C45.9863 22.1974 46.2725 22.3159 46.4834 22.5269C46.6944 22.7379 46.8129 23.024 46.8129 23.3224C46.8129 23.6207 46.6944 23.9069 46.4834 24.1179C46.2725 24.3288 45.9863 24.4474 45.6879 24.4474H9.72239C9.42402 24.4474 9.13787 24.3288 8.9269 24.1179C8.71592 23.9069 8.59739 23.6207 8.59739 23.3224H8.59781ZM8.59781 13.518C8.59781 13.2196 8.71634 12.9335 8.92732 12.7225C9.1383 12.5115 9.42444 12.393 9.72281 12.393H33.5379C33.8363 12.393 34.1225 12.5115 34.3334 12.7225C34.5444 12.9335 34.6629 13.2196 34.6629 13.518C34.6629 13.8164 34.5444 14.1025 34.3334 14.3135C34.1225 14.5245 33.8363 14.643 33.5379 14.643H9.72239C9.42402 14.643 9.13787 14.5245 8.9269 14.3135C8.71592 14.1025 8.59739 13.8164 8.59739 13.518H8.59781Z"/>
</mask>
<path d="M53.9578 15.281L39.1005 0.331875C38.9959 0.226694 38.8716 0.143224 38.7347 0.0862679C38.5978 0.0293118 38.4509 -6.33102e-06 38.3026 1.02546e-09L5.76562 1.02546e-09C4.53529 0.00141431 3.35575 0.49079 2.48577 1.36077C1.61579 2.23075 1.12641 3.41029 1.125 4.64062V67.3594C1.12641 68.5897 1.61579 69.7692 2.48577 70.6392C3.35575 71.5092 4.53529 71.9986 5.76562 72H49.6447C50.875 71.9986 52.0546 71.5092 52.9246 70.6392C53.7945 69.7692 54.2839 68.5897 54.2853 67.3594V45.3937L68.9507 30.7281C70.187 29.4917 70.8816 27.8149 70.8816 26.0664C70.8816 24.3179 70.187 22.641 68.9507 21.4047C67.7143 20.1683 66.0375 19.4737 64.289 19.4737C62.5405 19.4737 60.8636 20.1683 59.6273 21.4047L54.2849 26.747V16.0736C54.2848 15.7766 54.1672 15.4917 53.9578 15.281ZM56.0306 28.1835L62.1719 34.3247L40.6422 55.8544L34.5009 49.7132L56.0306 28.1835ZM59.1334 25.0806L65.2746 31.2218L63.7628 32.7337L57.6219 26.5922L59.1334 25.0806ZM33.4839 51.8766L38.4564 56.8492L32.2509 58.0063L33.4839 51.8766ZM39.9835 4.41211L49.8132 14.3018H39.9835V4.41211ZM52.0353 67.3594C52.0346 67.9932 51.7825 68.6008 51.3343 69.049C50.8862 69.4972 50.2785 69.7493 49.6447 69.75H5.76562C5.13181 69.7493 4.52415 69.4972 4.07598 69.049C3.6278 68.6008 3.37571 67.9932 3.375 67.3594V4.64062C3.37571 4.00681 3.6278 3.39915 4.07598 2.95098C4.52415 2.5028 5.13181 2.25071 5.76562 2.25H37.7335V15.4266C37.7335 15.7249 37.852 16.0111 38.063 16.2221C38.274 16.433 38.5601 16.5516 38.8585 16.5516H52.035V28.9969L31.9413 49.0912C31.7845 49.2479 31.6776 49.4475 31.6339 49.6648L29.7166 59.1962C29.6803 59.3767 29.6888 59.5633 29.7415 59.7397C29.7941 59.916 29.8892 60.0768 30.0184 60.2079C30.1476 60.339 30.307 60.4363 30.4826 60.4915C30.6583 60.5466 30.8447 60.5577 31.0257 60.524L40.6752 58.725C40.8985 58.6834 41.104 58.5752 41.2646 58.4146L52.0353 47.6437V67.3594ZM67.3594 22.9958C68.1699 23.8123 68.6247 24.916 68.6247 26.0665C68.6247 27.2169 68.1699 28.3206 67.3594 29.1371L66.8655 29.631L60.7244 23.4897L61.2181 22.9958C62.0332 22.1827 63.1375 21.726 64.2888 21.726C65.4401 21.726 66.5444 22.1827 67.3594 22.9958ZM28.4119 52.7354C28.4119 53.0337 28.2933 53.3199 28.0824 53.5309C27.8714 53.7418 27.5852 53.8604 27.2869 53.8604H9.72239C9.42402 53.8604 9.13787 53.7418 8.9269 53.5309C8.71592 53.3199 8.59739 53.0337 8.59739 52.7354C8.59739 52.437 8.71592 52.1508 8.9269 51.9399C9.13787 51.7289 9.42402 51.6104 9.72239 51.6104H27.2865C27.4342 51.6103 27.5806 51.6394 27.7171 51.6959C27.8536 51.7524 27.9777 51.8352 28.0822 51.9397C28.1867 52.0442 28.2696 52.1682 28.3262 52.3047C28.3828 52.4413 28.4119 52.5876 28.4119 52.7354ZM8.59781 42.931C8.59781 42.6326 8.71634 42.3465 8.92732 42.1355C9.1383 41.9245 9.42444 41.806 9.72281 41.806H32.9309C33.2292 41.806 33.5154 41.9245 33.7264 42.1355C33.9373 42.3465 34.0559 42.6326 34.0559 42.931C34.0559 43.2294 33.9373 43.5155 33.7264 43.7265C33.5154 43.9375 33.2292 44.056 32.9309 44.056H9.72239C9.42402 44.056 9.13787 43.9375 8.9269 43.7265C8.71592 43.5155 8.59739 43.2294 8.59739 42.931H8.59781ZM8.59781 33.1266C8.59781 32.8282 8.71634 32.5421 8.92732 32.3311C9.1383 32.1201 9.42444 32.0016 9.72281 32.0016H45.6879C45.9863 32.0016 46.2725 32.1201 46.4834 32.3311C46.6944 32.5421 46.8129 32.8282 46.8129 33.1266C46.8129 33.425 46.6944 33.7111 46.4834 33.9221C46.2725 34.1331 45.9863 34.2516 45.6879 34.2516H9.72239C9.42402 34.2516 9.13787 34.1331 8.9269 33.9221C8.71592 33.7111 8.59739 33.425 8.59739 33.1266H8.59781ZM8.59781 23.3224C8.59781 23.024 8.71634 22.7379 8.92732 22.5269C9.1383 22.3159 9.42444 22.1974 9.72281 22.1974H45.6879C45.9863 22.1974 46.2725 22.3159 46.4834 22.5269C46.6944 22.7379 46.8129 23.024 46.8129 23.3224C46.8129 23.6207 46.6944 23.9069 46.4834 24.1179C46.2725 24.3288 45.9863 24.4474 45.6879 24.4474H9.72239C9.42402 24.4474 9.13787 24.3288 8.9269 24.1179C8.71592 23.9069 8.59739 23.6207 8.59739 23.3224H8.59781ZM8.59781 13.518C8.59781 13.2196 8.71634 12.9335 8.92732 12.7225C9.1383 12.5115 9.42444 12.393 9.72281 12.393H33.5379C33.8363 12.393 34.1225 12.5115 34.3334 12.7225C34.5444 12.9335 34.6629 13.2196 34.6629 13.518C34.6629 13.8164 34.5444 14.1025 34.3334 14.3135C34.1225 14.5245 33.8363 14.643 33.5379 14.643H9.72239C9.42402 14.643 9.13787 14.5245 8.9269 14.3135C8.71592 14.1025 8.59739 13.8164 8.59739 13.518H8.59781Z" fill="#43B7FF"/>
<path d="M53.9578 15.281L39.1005 0.331875C38.9959 0.226694 38.8716 0.143224 38.7347 0.0862679C38.5978 0.0293118 38.4509 -6.33102e-06 38.3026 1.02546e-09L5.76562 1.02546e-09C4.53529 0.00141431 3.35575 0.49079 2.48577 1.36077C1.61579 2.23075 1.12641 3.41029 1.125 4.64062V67.3594C1.12641 68.5897 1.61579 69.7692 2.48577 70.6392C3.35575 71.5092 4.53529 71.9986 5.76562 72H49.6447C50.875 71.9986 52.0546 71.5092 52.9246 70.6392C53.7945 69.7692 54.2839 68.5897 54.2853 67.3594V45.3937L68.9507 30.7281C70.187 29.4917 70.8816 27.8149 70.8816 26.0664C70.8816 24.3179 70.187 22.641 68.9507 21.4047C67.7143 20.1683 66.0375 19.4737 64.289 19.4737C62.5405 19.4737 60.8636 20.1683 59.6273 21.4047L54.2849 26.747V16.0736C54.2848 15.7766 54.1672 15.4917 53.9578 15.281ZM56.0306 28.1835L62.1719 34.3247L40.6422 55.8544L34.5009 49.7132L56.0306 28.1835ZM59.1334 25.0806L65.2746 31.2218L63.7628 32.7337L57.6219 26.5922L59.1334 25.0806ZM33.4839 51.8766L38.4564 56.8492L32.2509 58.0063L33.4839 51.8766ZM39.9835 4.41211L49.8132 14.3018H39.9835V4.41211ZM52.0353 67.3594C52.0346 67.9932 51.7825 68.6008 51.3343 69.049C50.8862 69.4972 50.2785 69.7493 49.6447 69.75H5.76562C5.13181 69.7493 4.52415 69.4972 4.07598 69.049C3.6278 68.6008 3.37571 67.9932 3.375 67.3594V4.64062C3.37571 4.00681 3.6278 3.39915 4.07598 2.95098C4.52415 2.5028 5.13181 2.25071 5.76562 2.25H37.7335V15.4266C37.7335 15.7249 37.852 16.0111 38.063 16.2221C38.274 16.433 38.5601 16.5516 38.8585 16.5516H52.035V28.9969L31.9413 49.0912C31.7845 49.2479 31.6776 49.4475 31.6339 49.6648L29.7166 59.1962C29.6803 59.3767 29.6888 59.5633 29.7415 59.7397C29.7941 59.916 29.8892 60.0768 30.0184 60.2079C30.1476 60.339 30.307 60.4363 30.4826 60.4915C30.6583 60.5466 30.8447 60.5577 31.0257 60.524L40.6752 58.725C40.8985 58.6834 41.104 58.5752 41.2646 58.4146L52.0353 47.6437V67.3594ZM67.3594 22.9958C68.1699 23.8123 68.6247 24.916 68.6247 26.0665C68.6247 27.2169 68.1699 28.3206 67.3594 29.1371L66.8655 29.631L60.7244 23.4897L61.2181 22.9958C62.0332 22.1827 63.1375 21.726 64.2888 21.726C65.4401 21.726 66.5444 22.1827 67.3594 22.9958ZM28.4119 52.7354C28.4119 53.0337 28.2933 53.3199 28.0824 53.5309C27.8714 53.7418 27.5852 53.8604 27.2869 53.8604H9.72239C9.42402 53.8604 9.13787 53.7418 8.9269 53.5309C8.71592 53.3199 8.59739 53.0337 8.59739 52.7354C8.59739 52.437 8.71592 52.1508 8.9269 51.9399C9.13787 51.7289 9.42402 51.6104 9.72239 51.6104H27.2865C27.4342 51.6103 27.5806 51.6394 27.7171 51.6959C27.8536 51.7524 27.9777 51.8352 28.0822 51.9397C28.1867 52.0442 28.2696 52.1682 28.3262 52.3047C28.3828 52.4413 28.4119 52.5876 28.4119 52.7354ZM8.59781 42.931C8.59781 42.6326 8.71634 42.3465 8.92732 42.1355C9.1383 41.9245 9.42444 41.806 9.72281 41.806H32.9309C33.2292 41.806 33.5154 41.9245 33.7264 42.1355C33.9373 42.3465 34.0559 42.6326 34.0559 42.931C34.0559 43.2294 33.9373 43.5155 33.7264 43.7265C33.5154 43.9375 33.2292 44.056 32.9309 44.056H9.72239C9.42402 44.056 9.13787 43.9375 8.9269 43.7265C8.71592 43.5155 8.59739 43.2294 8.59739 42.931H8.59781ZM8.59781 33.1266C8.59781 32.8282 8.71634 32.5421 8.92732 32.3311C9.1383 32.1201 9.42444 32.0016 9.72281 32.0016H45.6879C45.9863 32.0016 46.2725 32.1201 46.4834 32.3311C46.6944 32.5421 46.8129 32.8282 46.8129 33.1266C46.8129 33.425 46.6944 33.7111 46.4834 33.9221C46.2725 34.1331 45.9863 34.2516 45.6879 34.2516H9.72239C9.42402 34.2516 9.13787 34.1331 8.9269 33.9221C8.71592 33.7111 8.59739 33.425 8.59739 33.1266H8.59781ZM8.59781 23.3224C8.59781 23.024 8.71634 22.7379 8.92732 22.5269C9.1383 22.3159 9.42444 22.1974 9.72281 22.1974H45.6879C45.9863 22.1974 46.2725 22.3159 46.4834 22.5269C46.6944 22.7379 46.8129 23.024 46.8129 23.3224C46.8129 23.6207 46.6944 23.9069 46.4834 24.1179C46.2725 24.3288 45.9863 24.4474 45.6879 24.4474H9.72239C9.42402 24.4474 9.13787 24.3288 8.9269 24.1179C8.71592 23.9069 8.59739 23.6207 8.59739 23.3224H8.59781ZM8.59781 13.518C8.59781 13.2196 8.71634 12.9335 8.92732 12.7225C9.1383 12.5115 9.42444 12.393 9.72281 12.393H33.5379C33.8363 12.393 34.1225 12.5115 34.3334 12.7225C34.5444 12.9335 34.6629 13.2196 34.6629 13.518C34.6629 13.8164 34.5444 14.1025 34.3334 14.3135C34.1225 14.5245 33.8363 14.643 33.5379 14.643H9.72239C9.42402 14.643 9.13787 14.5245 8.9269 14.3135C8.71592 14.1025 8.59739 13.8164 8.59739 13.518H8.59781Z" stroke="#43B7FF" mask="url(#path-1-outside-1_50_290)"/>
</g>
<defs>
<clipPath id="clip0_50_290">
<rect width="72" height="72" fill="white"/>
</clipPath>
</defs>
</svg>
