<svg width="72" height="72" viewBox="0 0 72 72" fill="none" xmlns="http://www.w3.org/2000/svg">
<g clip-path="url(#clip0_50_210)">
<path d="M24.348 38.7207C24.348 38.1379 23.8761 37.666 23.2933 37.666H8.30078C7.71851 37.666 7.24609 38.1379 7.24609 38.7207C7.24609 39.303 7.71851 39.7754 8.30078 39.7754H23.2933C23.8761 39.7748 24.348 39.303 24.348 38.7207Z" fill="#43B7FF"/>
<path d="M56.5126 39.7749C57.0948 39.7749 57.5673 39.303 57.5673 38.7202C57.5673 38.1379 57.0948 37.6655 56.5126 37.6655H46.5029C45.9207 37.6655 45.4482 38.1379 45.4482 38.7202C45.4482 39.303 45.9207 39.7749 46.5029 39.7749H56.5126Z" fill="#43B7FF"/>
<path d="M36.3987 39.7749C36.9816 39.7749 37.4534 39.303 37.4534 38.7202C37.4534 38.1379 36.9816 37.6655 36.3987 37.6655H28.5122C27.9299 37.6655 27.4575 38.1379 27.4575 38.7202C27.4575 39.303 27.9299 39.7749 28.5122 39.7749H36.3987Z" fill="#43B7FF"/>
<path d="M51.4163 46.2432C51.4163 45.6603 50.9445 45.1885 50.3616 45.1885H35.3691C34.7869 45.1885 34.3145 45.6603 34.3145 46.2432C34.3145 46.8254 34.7869 47.2979 35.3691 47.2979H50.3616C50.9445 47.2979 51.4163 46.8254 51.4163 46.2432Z" fill="#43B7FF"/>
<path d="M31.3035 46.2432C31.3035 45.6603 30.8311 45.1885 30.2488 45.1885H22.3623C21.7795 45.1885 21.3076 45.6603 21.3076 46.2432C21.3076 46.8254 21.7795 47.2979 22.3623 47.2979H30.2488C30.8311 47.2979 31.3035 46.8254 31.3035 46.2432Z" fill="#43B7FF"/>
<path d="M25.709 55.0536H40.7015C41.2838 55.0536 41.7562 54.5812 41.7562 53.9989C41.7562 53.4161 41.2838 52.9442 40.7015 52.9442H25.709C25.1267 52.9442 24.6543 53.4161 24.6543 53.9989C24.6543 54.5812 25.1267 55.0536 25.709 55.0536Z" fill="#43B7FF"/>
<path d="M8.2876 55.0536H16.1741C16.757 55.0536 17.2288 54.5812 17.2288 53.9989C17.2288 53.4161 16.757 52.9442 16.1741 52.9442H8.2876C7.70532 52.9442 7.23291 53.4161 7.23291 53.9989C7.23291 54.5812 7.70532 55.0536 8.2876 55.0536Z" fill="#43B7FF"/>
<path d="M70.9451 52.9442H68.2314C67.6492 52.9442 67.1768 53.4161 67.1768 53.9989C67.1768 54.5812 67.6492 55.0536 68.2314 55.0536H70.9451C71.5273 55.0536 71.9998 54.5812 71.9998 53.9989C71.9998 53.4161 71.5273 52.9442 70.9451 52.9442Z" fill="#43B7FF"/>
<path d="M63.3312 52.6942H61.3296V50.4949H68.8508C70.6774 50.4949 72.1638 49.0092 72.1638 47.1824V11.3599C72.1638 9.53261 70.6774 8.04688 68.8508 8.04688H13.8966C12.0694 8.04688 10.5836 9.53264 10.5836 11.3599V21.5952H3.02344C1.21819 21.5952 -0.25 23.0634 -0.25 24.8687V60.7698C-0.25 62.575 1.21819 64.0432 3.02344 64.0432H58.0562C59.8614 64.0432 61.3296 62.5744 61.3296 60.7698V58.9417C61.3296 58.2207 60.7452 57.637 60.0249 57.637C59.3046 57.637 58.7202 58.2207 58.7202 58.9417V60.7698C58.7202 61.1355 58.4223 61.4338 58.0562 61.4338H3.02344C2.65733 61.4338 2.35938 61.1355 2.35938 60.7698V33.6578H58.7202V52.6942H51.55C50.8292 52.6942 50.2454 53.278 50.2454 53.9989C50.2454 54.7192 50.8291 55.3036 51.55 55.3036H63.3312C64.0516 55.3036 64.6359 54.7192 64.6359 53.9989C64.6359 53.2779 64.0515 52.6942 63.3312 52.6942ZM13.193 11.3599C13.193 10.9717 13.5084 10.6562 13.8966 10.6562H68.8508C69.2385 10.6562 69.5544 10.9718 69.5544 11.3599V17.5001H16.8849C16.1645 17.5001 15.5802 18.0844 15.5802 18.8047C15.5802 19.5257 16.1646 20.1094 16.8849 20.1094H69.5544V47.1824C69.5544 47.5699 69.2386 47.8855 68.8508 47.8855H61.3296V24.8687C61.3296 23.0634 59.8614 21.5952 58.0567 21.5952H13.193V11.3599ZM2.35938 31.0484V24.8687C2.35938 24.5025 2.65724 24.2046 3.02344 24.2046H58.0567C58.4225 24.2046 58.7208 24.5025 58.7208 24.8687V31.0484H2.35938Z" fill="#43B7FF" stroke="#43B7FF" stroke-width="0.5"/>
<path d="M20.3115 14.0471C20.3115 12.3414 18.9233 10.9539 17.2177 10.9539C15.5121 10.9539 14.1245 12.3414 14.1245 14.0471C14.1245 15.7527 15.5121 17.1408 17.2177 17.1408C18.9233 17.1408 20.3115 15.7527 20.3115 14.0471ZM16.2339 14.0471C16.2339 13.5049 16.6755 13.0632 17.2177 13.0632C17.7604 13.0632 18.2021 13.5049 18.2021 14.0471C18.2021 14.5898 17.7604 15.0314 17.2177 15.0314C16.6755 15.0314 16.2339 14.5898 16.2339 14.0471Z" fill="#43B7FF"/>
<path d="M24.6425 17.1408C26.3481 17.1408 27.7363 15.7527 27.7363 14.0471C27.7363 12.3414 26.3481 10.9539 24.6425 10.9539C22.9369 10.9539 21.5493 12.3414 21.5493 14.0471C21.5493 15.7527 22.9369 17.1408 24.6425 17.1408ZM24.6425 13.0632C25.1852 13.0632 25.6269 13.5043 25.6269 14.0471C25.6269 14.5898 25.1852 15.0309 24.6425 15.0309C24.1003 15.0309 23.6587 14.5898 23.6587 14.0471C23.6587 13.5043 24.1003 13.0632 24.6425 13.0632Z" fill="#43B7FF"/>
<path d="M32.0668 17.1408C33.7725 17.1408 35.1606 15.7527 35.1606 14.0471C35.1606 12.3414 33.7725 10.9539 32.0668 10.9539C30.3612 10.9539 28.9736 12.3414 28.9736 14.0471C28.9736 15.7527 30.3612 17.1408 32.0668 17.1408ZM32.0668 13.0632C32.6096 13.0632 33.0512 13.5043 33.0512 14.0471C33.0512 14.5898 32.6096 15.0309 32.0668 15.0309C31.5247 15.0309 31.083 14.5898 31.083 14.0471C31.083 13.5043 31.5247 13.0632 32.0668 13.0632Z" fill="#43B7FF"/>
<path d="M6.38422 24.5022C4.67859 24.5022 3.29102 25.8898 3.29102 27.5954C3.29102 29.301 4.67859 30.6886 6.38422 30.6886C8.08984 30.6886 9.47797 29.301 9.47797 27.5954C9.47797 25.8898 8.08984 24.5022 6.38422 24.5022ZM6.38422 28.5792C5.84149 28.5792 5.40039 28.1381 5.40039 27.5954C5.40039 27.0532 5.84149 26.6116 6.38422 26.6116C6.92694 26.6116 7.36859 27.0532 7.36859 27.5954C7.36859 28.1381 6.92694 28.5792 6.38422 28.5792Z" fill="#43B7FF"/>
<path d="M13.8085 24.5022C12.1029 24.5022 10.7153 25.8898 10.7153 27.5954C10.7153 29.301 12.1029 30.6886 13.8085 30.6886C15.5142 30.6886 16.9023 29.301 16.9023 27.5954C16.9023 25.8898 15.5142 24.5022 13.8085 24.5022ZM13.8085 28.5792C13.2664 28.5792 12.8247 28.1381 12.8247 27.5954C12.8247 27.0532 13.2664 26.6116 13.8085 26.6116C14.3513 26.6116 14.7929 27.0532 14.7929 27.5954C14.7929 28.1381 14.3513 28.5792 13.8085 28.5792Z" fill="#43B7FF"/>
<path d="M21.2333 24.5022C19.5277 24.5022 18.1401 25.8898 18.1401 27.5954C18.1401 29.301 19.5277 30.6886 21.2333 30.6886C22.9395 30.6886 24.3271 29.301 24.3271 27.5954C24.3271 25.8898 22.939 24.5022 21.2333 24.5022ZM21.2333 28.5792C20.6912 28.5792 20.2495 28.1381 20.2495 27.5954C20.2495 27.0532 20.6912 26.6116 21.2333 26.6116C21.7761 26.6116 22.2177 27.0532 22.2177 27.5954C22.2177 28.1381 21.7761 28.5792 21.2333 28.5792Z" fill="#43B7FF"/>
<path d="M11.0653 43.0999C10.6533 42.6879 9.98532 42.6879 9.57388 43.0999L7.17667 45.4971C6.76468 45.9091 6.76468 46.5771 7.17667 46.9885L9.57388 49.3857C9.77988 49.5917 10.0496 49.695 10.3193 49.695C10.5896 49.695 10.8593 49.5917 11.0653 49.3857C11.4773 48.9743 11.4773 48.3063 11.0653 47.8943L9.41348 46.2431L11.0653 44.5913C11.4773 44.1793 11.4773 43.5119 11.0653 43.0999Z" fill="#43B7FF"/>
<path d="M17.7713 45.4971L15.3741 43.0999C14.9627 42.6879 14.2947 42.6879 13.8827 43.0999C13.4707 43.5119 13.4707 44.1793 13.8827 44.5913L15.534 46.2431L13.8827 47.8943C13.4707 48.3063 13.4707 48.9743 13.8827 49.3857C14.0887 49.5917 14.3584 49.695 14.6287 49.695C14.8984 49.695 15.1681 49.5917 15.3741 49.3857L17.7713 46.9885C18.1833 46.5771 18.1833 45.9091 17.7713 45.4971Z" fill="#43B7FF"/>
<path d="M23.2694 50.8557C22.8574 50.4438 22.19 50.4438 21.778 50.8557L19.3808 53.253C18.9688 53.6649 18.9688 54.3329 19.3808 54.7444L21.778 57.1416C21.984 57.3476 22.2537 57.4508 22.524 57.4508C22.7937 57.4508 23.0634 57.3476 23.2694 57.1416C23.6814 56.7296 23.6814 56.0622 23.2694 55.6502L21.6181 53.9989L23.2694 52.3471C23.6814 51.9352 23.6814 51.2677 23.2694 50.8557Z" fill="#43B7FF"/>
<path d="M43.3603 57.1416C43.5663 57.3476 43.836 57.4508 44.1057 57.4508C44.3759 57.4508 44.6457 57.3476 44.8517 57.1416L47.2489 54.7444C47.6609 54.3324 47.6609 53.6649 47.2489 53.253L44.8517 50.8557C44.4397 50.4438 43.7717 50.4438 43.3603 50.8557C42.9483 51.2677 42.9483 51.9357 43.3603 52.3471L45.0115 53.9989L43.3603 55.6502C42.9483 56.0622 42.9483 56.7296 43.3603 57.1416Z" fill="#43B7FF"/>
<path d="M40.422 41.3371L43.6437 38.1159C44.0557 37.7039 44.0557 37.036 43.6437 36.6245C43.2317 36.2126 42.5638 36.2126 42.1523 36.6245L38.9306 39.8457C38.5186 40.2577 38.5186 40.9257 38.9306 41.3371C39.1366 41.5431 39.4063 41.6464 39.6765 41.6464C39.9463 41.6464 40.216 41.5431 40.422 41.3371Z" fill="#43B7FF"/>
</g>
<defs>
<clipPath id="clip0_50_210">
<rect width="72" height="72" fill="white"/>
</clipPath>
</defs>
</svg>
