<svg xmlns="http://www.w3.org/2000/svg" version="1.1" xmlns:xlink="http://www.w3.org/1999/xlink" width="512" height="512" x="0" y="0" viewBox="0 0 512 512" style="enable-background:new 0 0 512 512" xml:space="preserve" class=""><g><path d="M435.84 413.909v88.09H10v-88.35c0-41.17 34.63-71.66 72.59-80.24l50.62-11.44 34.34-7.52 8.59-50.03c13.2 7.49 28.46 12.14 44.72 12.14 17 0 32.85-4.94 46.45-13.07l9.82 50.96 35.23 8.08 13.97 3.21 11.75 2.69c2.36 39.88 33.63 73.1 74.63 76.74 7.7.68 15.24.28 22.48-1.08.43 3.2.65 6.48.65 9.82z" style="stroke-width:20;stroke-linecap:round;stroke-linejoin:round;stroke-miterlimit:10;" fill="none" stroke="#e53825" stroke-width="20" stroke-linecap="round" stroke-linejoin="round" stroke-miterlimit="10" data-original="#000000" opacity="1" class=""></path><path d="M311.785 151.798v33.704c0 32.647-17.934 61.895-44.472 77.983-13.151 7.946-29.121 12.699-44.56 13.053-14.909.226-29.867-3.329-43.067-10.204-29.347-15.243-49.746-45.866-49.746-80.86v-33.979c1.807.383 3.683.58 5.579.58h172.416a26.586 26.586 0 0 0 3.85-.277z" style="stroke-width:20;stroke-linecap:round;stroke-linejoin:round;stroke-miterlimit:10;" fill="none" stroke="#e53825" stroke-width="20" stroke-linecap="round" stroke-linejoin="round" stroke-miterlimit="10" data-original="#000000" opacity="1" class=""></path><path d="m220.421 181.73-7.743 25.211c-.735 2.203.906 4.479 3.228 4.479h14.83M277.135 314.448h0l-54.214 37.394-55.374-37.394 8.594-50.031.039-.01a86.408 86.408 0 0 0 3.506 1.925c13.2 6.875 28.158 10.43 43.067 10.204 15.439-.353 31.409-5.107 44.56-13.053l9.822 50.965zM318.66 105.882v7.026H126.896v-7.026c0-34.002 15.685-58.53 39.787-74.195.206.687.511 1.385.894 2.102l22.904 34.714c2.564 4.783 7.877 7.818 13.701 7.818h35.416c5.824 0 11.147-3.035 13.711-7.818l22.904-34.714c.56-1.041.933-2.063 1.159-3.055a88.514 88.514 0 0 1 13.2 10.028c17.353 15.98 28.088 36.991 28.088 65.12z" style="stroke-width:20;stroke-linecap:round;stroke-linejoin:round;stroke-miterlimit:10;" fill="none" stroke="#e53825" stroke-width="20" stroke-linecap="round" stroke-linejoin="round" stroke-miterlimit="10" data-original="#000000" opacity="1" class=""></path><path d="M179.812 15.835h0c-9.763 3.077-16.683 9.674-12.24 17.958l22.905 34.709c2.565 4.782 7.882 7.813 13.706 7.813h35.414c5.824 0 11.141-3.031 13.706-7.813l22.905-34.709c4.443-8.284-2.395-15.353-12.24-17.958h0a154.655 154.655 0 0 0-84.156 0zM221.265 112.905h-94.37l-20.913 13.43c3.41 15.132 15.583 25.737 29.541 25.737l85.742.001 86.67-.001c13.637 0 25.613-10.132 29.318-24.804l-18.593-14.363h-97.395z" style="stroke-width:20;stroke-linecap:round;stroke-linejoin:round;stroke-miterlimit:10;" fill="none" stroke="#e53825" stroke-width="20" stroke-linecap="round" stroke-linejoin="round" stroke-miterlimit="10" data-original="#000000" opacity="1" class=""></path><path d="M311.79 151.799c-.09.01-.19.03-.28.04l.25-.35.03.31zM75.963 427.641v74.358M369.878 427.641v74.358M167.547 314.444l-48.293 10.679 33.383 80.376 70.283-53.657zM277.135 314.444l49.195 11.295-33.126 79.76-70.284-53.657z" style="stroke-width:20;stroke-linecap:round;stroke-linejoin:round;stroke-miterlimit:10;" fill="none" stroke="#e53825" stroke-width="20" stroke-linecap="round" stroke-linejoin="round" stroke-miterlimit="10" data-original="#000000" opacity="1" class=""></path><path d="m222.934 351.842-.023.054v-.054l-37.049 28.291 17.907 39.694h38.306l17.906-39.691zM256.66 501.999h-67.43l14.54-82.17h38.35zM490.107 280.95c-13.078-21.536-35.86-36.788-62.881-39.189-28.536-2.535-54.951 9.867-71.532 30.737h-31.246l15.828 31.493a82.63 82.63 0 0 0-2.014 12.218c-4.009 45.125 29.322 84.956 74.447 88.965 32.363 2.875 61.999-13.458 77.655-39.571" style="stroke-width:20;stroke-linecap:round;stroke-linejoin:round;stroke-miterlimit:10;" fill="none" stroke="#e53825" stroke-width="20" stroke-linecap="round" stroke-linejoin="round" stroke-miterlimit="10" data-original="#000000" opacity="1" class=""></path><path d="m386.699 329.206 21.301 21.3 46.241-46.242M502 323.466h0M152.637 405.499l37.636 90.614M293.204 405.499l-37.584 90.49" style="stroke-width:20;stroke-linecap:round;stroke-linejoin:round;stroke-miterlimit:10;" fill="none" stroke="#e53825" stroke-width="20" stroke-linecap="round" stroke-linejoin="round" stroke-miterlimit="10" data-original="#000000" opacity="1" class=""></path></g></svg>