<svg width="72" height="72" viewBox="0 0 72 72" fill="none" xmlns="http://www.w3.org/2000/svg">
<g clip-path="url(#clip0_50_332)">
<path d="M10.8046 51.3528H10.8043L3.60435 51.3528L3.60409 51.3528C1.47896 51.355 -0.24335 53.0771 -0.245605 55.202V55.2023V70.8001C-0.245605 71.6009 0.403536 72.2499 1.20433 72.2499H13.2042C14.005 72.2499 14.6541 71.6009 14.6541 70.8001V55.2023V55.202C14.6518 53.0771 12.9297 51.3552 10.8046 51.3528ZM11.7542 69.3503H2.65427L2.65427 55.2026C2.65427 55.2026 2.65427 55.2025 2.65427 55.2024C2.65504 54.6782 3.07995 54.2533 3.60436 54.2525C3.60442 54.2525 3.60447 54.2525 3.60453 54.2525H10.8038C10.8039 54.2525 10.8039 54.2525 10.804 54.2525C11.3285 54.2533 11.7534 54.6783 11.7541 55.2026L11.7542 69.3503Z" fill="#43B7FF" stroke="#43B7FF" stroke-width="0.5"/>
<path d="M30.0042 34.5552H30.004L22.8041 34.5552L22.8038 34.5552C20.6787 34.5574 18.9564 36.2795 18.9541 38.4044V38.4047V70.8003C18.9541 71.601 19.6032 72.25 20.404 72.25H32.4039C33.2047 72.25 33.8538 71.601 33.8538 70.8003V38.4047V38.4044C33.8515 36.2793 32.1294 34.5574 30.0042 34.5552ZM30.9539 69.3503H21.854L21.854 38.405C21.854 38.4049 21.854 38.4049 21.854 38.4048C21.8547 37.8806 22.2797 37.4557 22.8041 37.4549C22.8041 37.4549 22.8042 37.4549 22.8042 37.4549H30.0035C30.0036 37.4549 30.0036 37.4549 30.0037 37.4549C30.5282 37.4557 30.9531 37.8807 30.9538 38.405L30.9539 69.3503Z" fill="#43B7FF" stroke="#43B7FF" stroke-width="0.5"/>
<path d="M49.2044 41.7542H49.2042L42.0043 41.7542L42.004 41.7542C39.8789 41.7564 38.1566 43.4785 38.1543 45.6034V45.6037V70.8002C38.1543 71.601 38.8034 72.25 39.6042 72.25H51.6041C52.4049 72.25 53.054 71.601 53.054 70.8002V45.6037V45.6034C53.0519 43.4783 51.3296 41.7564 49.2044 41.7542ZM50.1543 69.3503H41.0543L41.0543 45.604C41.0543 45.6039 41.0543 45.6039 41.0543 45.6038C41.0551 45.0795 41.48 44.6546 42.0044 44.6539C42.0045 44.6539 42.0045 44.6539 42.0046 44.6539H49.2039C49.2039 44.6539 49.204 44.6539 49.204 44.6539C49.7285 44.6546 50.1535 45.0796 50.1541 45.604L50.1543 69.3503Z" fill="#43B7FF" stroke="#43B7FF" stroke-width="0.5"/>
<path d="M68.4041 32.1555H68.4039L61.204 32.1555L61.2037 32.1555C59.0786 32.1578 57.3563 33.8798 57.354 36.0048V36.005V70.8003C57.354 71.6011 58.0031 72.2501 58.8039 72.2501H70.8038C71.6046 72.2501 72.2537 71.6011 72.2537 70.8003V36.005V36.0048C72.2515 33.8798 70.5293 32.1578 68.4041 32.1555ZM69.3537 36.0053V69.3504H60.2539L60.2539 36.0053C60.2539 36.0053 60.2539 36.0052 60.2539 36.0052C60.2546 35.4809 60.6796 35.056 61.204 35.0552C61.204 35.0552 61.2041 35.0552 61.2041 35.0552H68.4034C68.4035 35.0552 68.4035 35.0552 68.4036 35.0552C68.9281 35.056 69.353 35.481 69.3537 36.0053Z" fill="#43B7FF" stroke="#43B7FF" stroke-width="0.5"/>
<path d="M64.804 2.15947C62.3176 2.15758 59.9944 3.39686 58.6116 5.46302C57.268 7.47031 56.9845 10.0004 57.8406 12.2496L51.0235 16.5102C49.6978 15.0916 47.8656 14.2472 45.9199 14.1643C43.9741 14.0815 42.0769 14.7674 40.6355 16.0684L33.1153 10.429C34.6996 7.14183 33.6672 3.17384 30.6526 1.08054C27.5798 -1.05318 23.4008 -0.577158 20.8869 2.1931C18.4206 4.9109 18.3075 9.00956 20.5908 11.8561L10.7986 23.4914C7.48861 21.6668 3.31758 22.6112 1.12217 25.7151C-1.11413 28.8767 -0.554797 33.2243 2.40918 35.717C5.37313 38.2096 9.75271 38.0158 12.4849 35.2712C15.1671 32.5768 15.383 28.3062 13.0182 25.358L22.8098 13.7235C25.5776 15.2647 29.0237 14.8717 31.3734 12.7469L38.8935 18.3863C37.4371 21.4133 38.1879 25.0545 40.7474 27.2573C43.3606 29.5063 47.1761 29.6677 49.9701 27.6478C52.7067 25.6693 53.7629 22.1047 52.5676 18.9654L59.385 14.7047C61.6707 17.1355 65.3076 17.7538 68.2758 16.1919C71.3066 14.597 72.8584 11.1404 72.0358 7.81603C71.2132 4.49178 68.2287 2.15759 64.804 2.15947ZM64.804 2.15947L64.8038 2.40947M64.804 2.15947C64.8039 2.15947 64.8038 2.15947 64.8037 2.15947L64.8038 2.40947M64.8038 2.40947C62.4009 2.40764 60.1557 3.60532 58.8193 5.60206L59.4291 14.3823C61.6274 16.8564 65.2303 17.5119 68.1594 15.9706C71.0884 14.4293 72.588 11.0888 71.7931 7.87608C70.9982 4.66338 68.1137 2.4075 64.8038 2.40947ZM64.8038 5.05919C67.3166 5.05919 69.3536 7.09586 69.3537 9.60819C69.3508 12.1196 67.3153 14.155 64.8036 14.1578C62.2908 14.1576 60.2539 12.1209 60.2539 9.60849C60.2539 7.09602 62.2908 5.05919 64.8038 5.05919ZM7.20418 34.5552C4.69146 34.555 2.65457 32.5182 2.65457 30.0059C2.65457 27.4934 4.69162 25.4566 7.20447 25.4566C9.71723 25.4566 11.7542 27.4933 11.7544 30.0056C11.7514 32.517 9.71599 34.5522 7.20418 34.5552ZM26.4039 11.7582C23.8912 11.7581 21.8543 9.72127 21.8543 7.20891C21.8543 4.69645 23.8914 2.65961 26.4042 2.65961C28.917 2.65961 30.954 4.69629 30.9541 7.20863C30.9513 9.72004 28.9157 11.7554 26.4039 11.7582ZM45.6037 26.1562C43.091 26.1561 41.0541 24.1193 41.0541 21.6069C41.0541 19.0945 43.0911 17.0576 45.604 17.0576C48.1167 17.0576 50.1537 19.0943 50.1539 21.6067C50.1511 24.1181 48.1156 26.1534 45.6037 26.1562Z" fill="#43B7FF" stroke="#43B7FF" stroke-width="0.5"/>
</g>
<defs>
<clipPath id="clip0_50_332">
<rect width="72" height="72" fill="white"/>
</clipPath>
</defs>
</svg>
