<svg width="25" height="24" viewBox="0 0 25 24" fill="none" xmlns="http://www.w3.org/2000/svg">
<g clip-path="url(#clip0_75_216)">
<path d="M12.5 24C5.88293 24 0.5 18.6171 0.5 12C0.5 5.38293 5.88293 0 12.5 0C19.1171 0 24.5 5.38293 24.5 12C24.5 18.6171 19.1171 24 12.5 24ZM12.5 1.5C6.71002 1.5 2 6.21002 2 12C2 17.79 6.71002 22.5 12.5 22.5C18.29 22.5 23 17.79 23 12C23 6.21002 18.29 1.5 12.5 1.5Z" fill="#BABABA"/>
<path d="M8.7879 16.4618C8.59583 16.4618 8.40375 16.3889 8.25781 16.2419C7.96484 15.9489 7.96484 15.4739 8.25781 15.181L15.6827 7.75586C15.9759 7.46289 16.4509 7.46289 16.7438 7.75586C17.0368 8.04883 17.0368 8.5238 16.7438 8.81696L9.31873 16.2419C9.17078 16.3889 8.97888 16.4618 8.7879 16.4618Z" fill="#BABABA"/>
<path d="M16.2118 16.4618C16.0199 16.4618 15.8278 16.3889 15.6819 16.2419L8.25697 8.81789C7.96382 8.52492 7.96382 8.04994 8.25697 7.75697C8.54994 7.46382 9.02492 7.46382 9.31789 7.75697L16.7428 15.1819C17.036 15.4749 17.036 15.9498 16.7428 16.2428C16.596 16.3889 16.4039 16.4618 16.2118 16.4618Z" fill="#BABABA"/>
</g>
<defs>
<clipPath id="clip0_75_216">
<rect width="24" height="24" fill="white" transform="translate(0.5)"/>
</clipPath>
</defs>
</svg>
