<svg width="49" height="48" viewBox="0 0 49 48" fill="none" xmlns="http://www.w3.org/2000/svg">
<g clip-path="url(#clip0_47_205)">
<mask id="path-1-outside-1_47_205" maskUnits="userSpaceOnUse" x="-0.666626" y="6.1123" width="50" height="36" fill="black">
<rect fill="white" x="-0.666626" y="6.1123" width="50" height="36"/>
<path d="M48.193 22.7328L42.9341 8.57394C42.7261 8.01397 42.3112 7.5681 41.7659 7.31806C41.2202 7.0685 40.612 7.04506 40.052 7.25263L36.5321 8.55978C35.3733 8.99028 34.7806 10.2834 35.2109 11.4421L35.268 11.5959C34.4353 11.912 33.5058 11.5667 32.0851 10.9717C29.9639 10.0836 27.0868 8.8911 23.4344 11.1755C20.47 9.33041 18.1439 9.78556 16.084 10.1957C15.0376 10.4037 14.041 10.5994 13.0117 10.4929C12.9827 10.2224 12.9086 9.95591 12.7806 9.70588C12.5069 9.17169 12.0433 8.77644 11.4751 8.59316L7.90185 7.4405C7.33345 7.25722 6.72623 7.3071 6.19223 7.5801C5.65823 7.85375 5.26298 8.31744 5.07989 8.88556L0.441792 23.2601C0.0623855 24.4365 0.710761 25.7023 1.88732 26.0818L5.46051 27.2348C5.68598 27.3076 5.91745 27.3437 6.14798 27.3437C6.49889 27.3437 6.84773 27.2601 7.16995 27.0952C7.36898 26.9932 7.54101 26.8573 7.69767 26.707C7.7197 26.8157 7.74923 26.9233 7.77585 27.0313L6.88129 28.7037C6.49767 29.4213 6.42332 30.2915 6.67776 31.0908C6.92545 31.8691 7.44782 32.4907 8.13295 32.833C8.73004 33.1525 9.38779 33.2523 10.0124 33.1603C9.83395 33.7519 9.83732 34.4008 10.0307 35.0088C10.2784 35.7871 10.8008 36.4089 11.4859 36.7512C12.2025 37.1344 13.0274 37.2144 13.8091 36.9779C14.1214 36.8832 14.4116 36.7425 14.6716 36.5618C14.9225 37.328 15.4409 37.9395 16.1182 38.278C16.8346 38.6612 17.6595 38.7412 18.4412 38.5048C18.6148 38.452 18.7816 38.3852 18.94 38.3053C19.175 39.2488 19.846 40.0892 20.6823 40.5366C21.0818 40.7501 21.5522 40.8877 22.0406 40.8877C22.928 40.8877 23.8743 40.4329 24.5589 39.1533L24.6924 38.9036C24.7444 38.9308 24.7962 38.958 24.8437 38.9829L25.2007 39.1691C25.6379 39.3942 26.0654 39.4933 26.4672 39.4933C27.4696 39.4933 28.3117 38.8755 28.7422 38.055C29.0386 37.4905 29.143 36.8192 28.9992 36.1677C29.3609 36.1864 29.7266 36.1434 30.084 36.0351C30.8868 35.7918 31.5456 35.2528 31.939 34.5174C32.2568 33.9232 32.3718 33.2563 32.276 32.5985C32.9474 32.8772 33.69 32.9135 34.3982 32.699C35.2079 32.4537 35.8724 31.9097 36.2692 31.168C36.5935 30.5613 36.7086 29.8796 36.6056 29.2086C37.6999 29.6448 38.7558 29.4453 39.4889 28.6421C40.2322 27.828 40.4821 26.5809 40.2042 25.468C40.2616 25.4473 40.3199 25.4264 40.3845 25.4032L40.3949 25.3995L40.4699 25.6013C40.8052 26.5035 41.6635 27.0624 42.5739 27.0624C42.8327 27.0624 43.0956 27.0174 43.3519 26.9222L46.8717 25.6151C48.0306 25.1846 48.6233 23.8918 48.193 22.7328ZM7.04798 25.3913C6.97092 25.6299 6.80432 25.825 6.57857 25.9405C6.35245 26.056 6.09698 26.0773 5.85876 26.0005L2.28539 24.8472C1.78964 24.6873 1.51635 24.154 1.6762 23.6582L6.31448 9.28381C6.39135 9.04541 6.55795 8.85031 6.7836 8.73481C6.92001 8.66497 7.06757 8.62944 7.2156 8.62944C7.31235 8.62944 7.40901 8.64444 7.50323 8.67481C7.50342 8.67481 7.50342 8.67481 7.50342 8.675L11.0768 9.82785C11.3152 9.90472 11.5103 10.0713 11.6258 10.297C11.7413 10.5227 11.7626 10.7782 11.6858 11.0168L7.98295 22.4935C7.96673 22.5248 7.95107 22.5568 7.93992 22.5915C7.90739 22.6918 7.88226 22.7934 7.85367 22.8943L7.04798 25.3913ZM8.72892 31.6809C8.34379 31.4885 8.05429 31.1393 7.91395 30.6975C7.76507 30.2298 7.80567 29.7261 8.02523 29.3156L9.03585 27.426C9.03604 27.4258 9.03632 27.4257 9.03642 27.4254L9.51914 26.5228C9.96885 25.6824 11.0109 25.3576 11.8565 25.7844C12.4112 26.1722 13.2433 26.9969 12.6119 28.1771L12.268 28.8202L11.1168 30.9724C10.6601 31.8229 9.59676 32.1455 8.72892 31.6809ZM14.4712 34.888C14.2516 35.2989 13.8827 35.6002 13.4325 35.7366C12.9826 35.873 12.5084 35.827 12.0819 35.5992C11.6968 35.4068 11.4073 35.0574 11.2669 34.6156C11.118 34.1482 11.1588 33.6444 11.3784 33.2339L12.2608 31.5845L13.4119 29.4323C13.6315 29.0216 14.0004 28.7203 14.4503 28.5839C14.9005 28.4472 15.3743 28.4934 15.7854 28.7131C16.1961 28.9327 16.4973 29.3016 16.6337 29.7518C16.7701 30.2017 16.7241 30.676 16.5043 31.0869L16.181 31.6916C16.1808 31.6922 16.1804 31.6928 16.18 31.6934L14.8666 34.1488C14.8666 34.149 14.8666 34.149 14.8664 34.1492L14.4712 34.888ZM18.0648 37.2633C17.6146 37.3997 17.1408 37.3537 16.7142 37.1259C16.329 36.9335 16.0397 36.5843 15.8992 36.1426C15.7508 35.6756 15.7909 35.1729 16.0096 34.7626L16.0107 34.7608L17.324 32.3053C17.3241 32.3051 17.3242 32.3048 17.3243 32.3045L17.325 32.3033C17.5449 31.8934 17.9133 31.593 18.3626 31.4568C18.8123 31.3198 19.2866 31.3661 19.6974 31.586C20.5499 32.0421 20.8726 33.1069 20.4167 33.9595L19.7601 35.1873L19.178 36.2756C19.1778 36.2759 19.1775 36.2764 19.1774 36.2768L19.1035 36.4149C18.8839 36.8254 18.5148 37.1269 18.0648 37.2633ZM21.2941 39.3927C20.4438 38.9379 19.8354 37.797 20.322 36.8872L20.9041 35.7989L20.9048 35.7974C21.1318 35.3743 21.5353 35.0344 22.0123 34.865C22.4884 34.6957 22.9664 34.7183 23.3587 34.9281C24.2134 35.385 24.3513 35.7849 24.3804 36.0459C24.4247 36.4405 24.2577 36.9652 23.8394 37.7471C23.8392 37.7477 23.839 37.7484 23.8387 37.7489L23.4149 38.5414C22.6969 39.8848 21.7783 39.6513 21.2941 39.3927ZM27.5936 37.4525C27.2877 38.0363 26.6129 38.4371 25.7944 38.016L25.4469 37.8346C25.3894 37.8043 25.3358 37.7761 25.286 37.7502C25.5487 37.1659 25.7401 36.531 25.6696 35.9016C25.5901 35.1918 25.1963 34.5999 24.4817 34.1007L27.0363 35.4725C27.89 36.0719 27.8871 36.8933 27.5936 37.4525ZM38.5308 27.7676C38.1132 28.2255 37.5399 28.2643 36.8264 27.8824L34.9764 26.893C34.9751 26.8923 34.9739 26.8917 34.9725 26.8911C34.9536 26.881 34.9338 26.8752 34.9144 26.8671L28.9488 23.6289C28.6347 23.4576 28.2404 23.5746 28.0694 23.8896C27.8986 24.2044 28.0152 24.598 28.3302 24.769L34.4219 28.0757C34.8252 28.3122 35.1246 28.6841 35.2624 29.1382C35.4073 29.6162 35.3585 30.1198 35.125 30.5563C34.8916 30.9927 34.4998 31.3128 34.0217 31.4577C33.5429 31.6023 33.0397 31.5538 32.6037 31.3204L30.7643 30.3366C30.7323 30.3105 30.6978 30.2867 30.6601 30.2666L26.2211 27.8931C25.9048 27.7238 25.512 27.8437 25.3434 28.1593C25.1744 28.4752 25.2935 28.8682 25.6096 29.037L29.9371 31.3509C29.9692 31.3771 30.004 31.401 30.0419 31.4213C30.4721 31.6513 30.7875 32.0372 30.9302 32.5085C31.0729 32.9796 31.0248 33.4757 30.7949 33.9057C30.5649 34.3358 30.1787 34.651 29.7076 34.7939C29.2368 34.9364 28.7404 34.8885 28.3105 34.6586L27.3715 34.1564C27.3242 34.1312 27.2751 34.1144 27.2255 34.1018L23.4356 32.0668C23.1199 31.8961 22.7265 32.0155 22.5574 32.3313C22.3878 32.6468 22.5063 33.0402 22.822 33.2095L23.6185 33.6372C23.0777 33.4378 22.4854 33.4002 21.8927 33.5477C22.0602 32.3197 21.4641 31.0596 20.3091 30.4418C19.5994 30.0622 18.7828 29.9796 18.0076 30.2087C18.0021 29.93 17.9582 29.6501 17.8751 29.3754C17.6382 28.5935 17.1131 27.9521 16.3968 27.569C15.6768 27.1843 14.8703 27.118 14.1404 27.3215C14.1279 26.2196 13.4284 25.3032 12.5954 24.7183C12.5669 24.6964 12.5366 24.6767 12.5042 24.6595C11.2606 23.9946 9.75764 24.2819 8.83645 25.2658C8.82154 24.5913 8.91379 23.914 9.1012 23.2511L12.8033 11.7767C14.0548 11.9216 15.2127 11.692 16.3366 11.4679C18.2053 11.0963 19.9799 10.743 22.2732 11.993C21.7736 12.3908 21.2711 12.8447 20.7715 13.3494C20.376 13.7493 19.9694 14.1486 19.5726 14.5381C18.1262 15.9587 16.8771 17.1856 16.5199 18.0564C16.4336 18.2668 16.4638 18.5071 16.5995 18.6896C19.1812 22.1616 22.3099 20.9834 24.8229 20.0371C26.7069 19.3274 28.334 18.7143 29.6302 19.74C29.6547 19.7594 29.6804 19.777 29.7074 19.7926C30.3265 20.1513 31.1791 20.5723 32.1664 21.0599C34.5534 22.2389 37.8225 23.8536 38.6673 25.1376C39.235 25.9998 39.0549 27.1934 38.5308 27.7676ZM39.6503 24.2889C38.5179 22.7532 35.3258 21.1735 32.7412 19.8972C31.7957 19.4301 30.9763 19.0256 30.3964 18.6926C28.5345 17.2536 26.4157 18.0513 24.3659 18.8233C21.9365 19.7377 19.824 20.5329 17.8944 18.2371C18.3477 17.5598 19.43 16.4968 20.4817 15.464C20.8829 15.07 21.2938 14.6663 21.6937 14.2621C22.3867 13.5622 23.0802 12.9734 23.7563 12.5082C27.0239 10.2612 29.4462 11.2736 31.5839 12.1682C32.5835 12.5867 33.6038 13.0138 34.613 13.0138C34.9837 13.0138 35.3524 12.9462 35.7186 12.8094L39.9431 24.1835C39.8446 24.2189 39.745 24.2548 39.6503 24.2889ZM46.4203 24.3989L42.9005 25.7061C42.4107 25.8868 41.8669 25.6377 41.6858 25.1495L36.4271 10.9902C36.3399 10.7554 36.35 10.4993 36.4556 10.2687C36.5613 10.0381 36.7488 9.8631 36.9837 9.77582L40.5034 8.46866C40.6092 8.42938 40.7192 8.40978 40.8292 8.40978C40.9639 8.40978 41.0984 8.43913 41.2253 8.49716C41.4556 8.60272 41.6307 8.79041 41.7179 9.02544L46.9768 23.1844C47.1582 23.6728 46.9084 24.2175 46.4203 24.3989Z"/>
</mask>
<path d="M48.193 22.7328L42.9341 8.57394C42.7261 8.01397 42.3112 7.5681 41.7659 7.31806C41.2202 7.0685 40.612 7.04506 40.052 7.25263L36.5321 8.55978C35.3733 8.99028 34.7806 10.2834 35.2109 11.4421L35.268 11.5959C34.4353 11.912 33.5058 11.5667 32.0851 10.9717C29.9639 10.0836 27.0868 8.8911 23.4344 11.1755C20.47 9.33041 18.1439 9.78556 16.084 10.1957C15.0376 10.4037 14.041 10.5994 13.0117 10.4929C12.9827 10.2224 12.9086 9.95591 12.7806 9.70588C12.5069 9.17169 12.0433 8.77644 11.4751 8.59316L7.90185 7.4405C7.33345 7.25722 6.72623 7.3071 6.19223 7.5801C5.65823 7.85375 5.26298 8.31744 5.07989 8.88556L0.441792 23.2601C0.0623855 24.4365 0.710761 25.7023 1.88732 26.0818L5.46051 27.2348C5.68598 27.3076 5.91745 27.3437 6.14798 27.3437C6.49889 27.3437 6.84773 27.2601 7.16995 27.0952C7.36898 26.9932 7.54101 26.8573 7.69767 26.707C7.7197 26.8157 7.74923 26.9233 7.77585 27.0313L6.88129 28.7037C6.49767 29.4213 6.42332 30.2915 6.67776 31.0908C6.92545 31.8691 7.44782 32.4907 8.13295 32.833C8.73004 33.1525 9.38779 33.2523 10.0124 33.1603C9.83395 33.7519 9.83732 34.4008 10.0307 35.0088C10.2784 35.7871 10.8008 36.4089 11.4859 36.7512C12.2025 37.1344 13.0274 37.2144 13.8091 36.9779C14.1214 36.8832 14.4116 36.7425 14.6716 36.5618C14.9225 37.328 15.4409 37.9395 16.1182 38.278C16.8346 38.6612 17.6595 38.7412 18.4412 38.5048C18.6148 38.452 18.7816 38.3852 18.94 38.3053C19.175 39.2488 19.846 40.0892 20.6823 40.5366C21.0818 40.7501 21.5522 40.8877 22.0406 40.8877C22.928 40.8877 23.8743 40.4329 24.5589 39.1533L24.6924 38.9036C24.7444 38.9308 24.7962 38.958 24.8437 38.9829L25.2007 39.1691C25.6379 39.3942 26.0654 39.4933 26.4672 39.4933C27.4696 39.4933 28.3117 38.8755 28.7422 38.055C29.0386 37.4905 29.143 36.8192 28.9992 36.1677C29.3609 36.1864 29.7266 36.1434 30.084 36.0351C30.8868 35.7918 31.5456 35.2528 31.939 34.5174C32.2568 33.9232 32.3718 33.2563 32.276 32.5985C32.9474 32.8772 33.69 32.9135 34.3982 32.699C35.2079 32.4537 35.8724 31.9097 36.2692 31.168C36.5935 30.5613 36.7086 29.8796 36.6056 29.2086C37.6999 29.6448 38.7558 29.4453 39.4889 28.6421C40.2322 27.828 40.4821 26.5809 40.2042 25.468C40.2616 25.4473 40.3199 25.4264 40.3845 25.4032L40.3949 25.3995L40.4699 25.6013C40.8052 26.5035 41.6635 27.0624 42.5739 27.0624C42.8327 27.0624 43.0956 27.0174 43.3519 26.9222L46.8717 25.6151C48.0306 25.1846 48.6233 23.8918 48.193 22.7328ZM7.04798 25.3913C6.97092 25.6299 6.80432 25.825 6.57857 25.9405C6.35245 26.056 6.09698 26.0773 5.85876 26.0005L2.28539 24.8472C1.78964 24.6873 1.51635 24.154 1.6762 23.6582L6.31448 9.28381C6.39135 9.04541 6.55795 8.85031 6.7836 8.73481C6.92001 8.66497 7.06757 8.62944 7.2156 8.62944C7.31235 8.62944 7.40901 8.64444 7.50323 8.67481C7.50342 8.67481 7.50342 8.67481 7.50342 8.675L11.0768 9.82785C11.3152 9.90472 11.5103 10.0713 11.6258 10.297C11.7413 10.5227 11.7626 10.7782 11.6858 11.0168L7.98295 22.4935C7.96673 22.5248 7.95107 22.5568 7.93992 22.5915C7.90739 22.6918 7.88226 22.7934 7.85367 22.8943L7.04798 25.3913ZM8.72892 31.6809C8.34379 31.4885 8.05429 31.1393 7.91395 30.6975C7.76507 30.2298 7.80567 29.7261 8.02523 29.3156L9.03585 27.426C9.03604 27.4258 9.03632 27.4257 9.03642 27.4254L9.51914 26.5228C9.96885 25.6824 11.0109 25.3576 11.8565 25.7844C12.4112 26.1722 13.2433 26.9969 12.6119 28.1771L12.268 28.8202L11.1168 30.9724C10.6601 31.8229 9.59676 32.1455 8.72892 31.6809ZM14.4712 34.888C14.2516 35.2989 13.8827 35.6002 13.4325 35.7366C12.9826 35.873 12.5084 35.827 12.0819 35.5992C11.6968 35.4068 11.4073 35.0574 11.2669 34.6156C11.118 34.1482 11.1588 33.6444 11.3784 33.2339L12.2608 31.5845L13.4119 29.4323C13.6315 29.0216 14.0004 28.7203 14.4503 28.5839C14.9005 28.4472 15.3743 28.4934 15.7854 28.7131C16.1961 28.9327 16.4973 29.3016 16.6337 29.7518C16.7701 30.2017 16.7241 30.676 16.5043 31.0869L16.181 31.6916C16.1808 31.6922 16.1804 31.6928 16.18 31.6934L14.8666 34.1488C14.8666 34.149 14.8666 34.149 14.8664 34.1492L14.4712 34.888ZM18.0648 37.2633C17.6146 37.3997 17.1408 37.3537 16.7142 37.1259C16.329 36.9335 16.0397 36.5843 15.8992 36.1426C15.7508 35.6756 15.7909 35.1729 16.0096 34.7626L16.0107 34.7608L17.324 32.3053C17.3241 32.3051 17.3242 32.3048 17.3243 32.3045L17.325 32.3033C17.5449 31.8934 17.9133 31.593 18.3626 31.4568C18.8123 31.3198 19.2866 31.3661 19.6974 31.586C20.5499 32.0421 20.8726 33.1069 20.4167 33.9595L19.7601 35.1873L19.178 36.2756C19.1778 36.2759 19.1775 36.2764 19.1774 36.2768L19.1035 36.4149C18.8839 36.8254 18.5148 37.1269 18.0648 37.2633ZM21.2941 39.3927C20.4438 38.9379 19.8354 37.797 20.322 36.8872L20.9041 35.7989L20.9048 35.7974C21.1318 35.3743 21.5353 35.0344 22.0123 34.865C22.4884 34.6957 22.9664 34.7183 23.3587 34.9281C24.2134 35.385 24.3513 35.7849 24.3804 36.0459C24.4247 36.4405 24.2577 36.9652 23.8394 37.7471C23.8392 37.7477 23.839 37.7484 23.8387 37.7489L23.4149 38.5414C22.6969 39.8848 21.7783 39.6513 21.2941 39.3927ZM27.5936 37.4525C27.2877 38.0363 26.6129 38.4371 25.7944 38.016L25.4469 37.8346C25.3894 37.8043 25.3358 37.7761 25.286 37.7502C25.5487 37.1659 25.7401 36.531 25.6696 35.9016C25.5901 35.1918 25.1963 34.5999 24.4817 34.1007L27.0363 35.4725C27.89 36.0719 27.8871 36.8933 27.5936 37.4525ZM38.5308 27.7676C38.1132 28.2255 37.5399 28.2643 36.8264 27.8824L34.9764 26.893C34.9751 26.8923 34.9739 26.8917 34.9725 26.8911C34.9536 26.881 34.9338 26.8752 34.9144 26.8671L28.9488 23.6289C28.6347 23.4576 28.2404 23.5746 28.0694 23.8896C27.8986 24.2044 28.0152 24.598 28.3302 24.769L34.4219 28.0757C34.8252 28.3122 35.1246 28.6841 35.2624 29.1382C35.4073 29.6162 35.3585 30.1198 35.125 30.5563C34.8916 30.9927 34.4998 31.3128 34.0217 31.4577C33.5429 31.6023 33.0397 31.5538 32.6037 31.3204L30.7643 30.3366C30.7323 30.3105 30.6978 30.2867 30.6601 30.2666L26.2211 27.8931C25.9048 27.7238 25.512 27.8437 25.3434 28.1593C25.1744 28.4752 25.2935 28.8682 25.6096 29.037L29.9371 31.3509C29.9692 31.3771 30.004 31.401 30.0419 31.4213C30.4721 31.6513 30.7875 32.0372 30.9302 32.5085C31.0729 32.9796 31.0248 33.4757 30.7949 33.9057C30.5649 34.3358 30.1787 34.651 29.7076 34.7939C29.2368 34.9364 28.7404 34.8885 28.3105 34.6586L27.3715 34.1564C27.3242 34.1312 27.2751 34.1144 27.2255 34.1018L23.4356 32.0668C23.1199 31.8961 22.7265 32.0155 22.5574 32.3313C22.3878 32.6468 22.5063 33.0402 22.822 33.2095L23.6185 33.6372C23.0777 33.4378 22.4854 33.4002 21.8927 33.5477C22.0602 32.3197 21.4641 31.0596 20.3091 30.4418C19.5994 30.0622 18.7828 29.9796 18.0076 30.2087C18.0021 29.93 17.9582 29.6501 17.8751 29.3754C17.6382 28.5935 17.1131 27.9521 16.3968 27.569C15.6768 27.1843 14.8703 27.118 14.1404 27.3215C14.1279 26.2196 13.4284 25.3032 12.5954 24.7183C12.5669 24.6964 12.5366 24.6767 12.5042 24.6595C11.2606 23.9946 9.75764 24.2819 8.83645 25.2658C8.82154 24.5913 8.91379 23.914 9.1012 23.2511L12.8033 11.7767C14.0548 11.9216 15.2127 11.692 16.3366 11.4679C18.2053 11.0963 19.9799 10.743 22.2732 11.993C21.7736 12.3908 21.2711 12.8447 20.7715 13.3494C20.376 13.7493 19.9694 14.1486 19.5726 14.5381C18.1262 15.9587 16.8771 17.1856 16.5199 18.0564C16.4336 18.2668 16.4638 18.5071 16.5995 18.6896C19.1812 22.1616 22.3099 20.9834 24.8229 20.0371C26.7069 19.3274 28.334 18.7143 29.6302 19.74C29.6547 19.7594 29.6804 19.777 29.7074 19.7926C30.3265 20.1513 31.1791 20.5723 32.1664 21.0599C34.5534 22.2389 37.8225 23.8536 38.6673 25.1376C39.235 25.9998 39.0549 27.1934 38.5308 27.7676ZM39.6503 24.2889C38.5179 22.7532 35.3258 21.1735 32.7412 19.8972C31.7957 19.4301 30.9763 19.0256 30.3964 18.6926C28.5345 17.2536 26.4157 18.0513 24.3659 18.8233C21.9365 19.7377 19.824 20.5329 17.8944 18.2371C18.3477 17.5598 19.43 16.4968 20.4817 15.464C20.8829 15.07 21.2938 14.6663 21.6937 14.2621C22.3867 13.5622 23.0802 12.9734 23.7563 12.5082C27.0239 10.2612 29.4462 11.2736 31.5839 12.1682C32.5835 12.5867 33.6038 13.0138 34.613 13.0138C34.9837 13.0138 35.3524 12.9462 35.7186 12.8094L39.9431 24.1835C39.8446 24.2189 39.745 24.2548 39.6503 24.2889ZM46.4203 24.3989L42.9005 25.7061C42.4107 25.8868 41.8669 25.6377 41.6858 25.1495L36.4271 10.9902C36.3399 10.7554 36.35 10.4993 36.4556 10.2687C36.5613 10.0381 36.7488 9.8631 36.9837 9.77582L40.5034 8.46866C40.6092 8.42938 40.7192 8.40978 40.8292 8.40978C40.9639 8.40978 41.0984 8.43913 41.2253 8.49716C41.4556 8.60272 41.6307 8.79041 41.7179 9.02544L46.9768 23.1844C47.1582 23.6728 46.9084 24.2175 46.4203 24.3989Z" fill="#43B7FF"/>
<path d="M48.193 22.7328L42.9341 8.57394C42.7261 8.01397 42.3112 7.5681 41.7659 7.31806C41.2202 7.0685 40.612 7.04506 40.052 7.25263L36.5321 8.55978C35.3733 8.99028 34.7806 10.2834 35.2109 11.4421L35.268 11.5959C34.4353 11.912 33.5058 11.5667 32.0851 10.9717C29.9639 10.0836 27.0868 8.8911 23.4344 11.1755C20.47 9.33041 18.1439 9.78556 16.084 10.1957C15.0376 10.4037 14.041 10.5994 13.0117 10.4929C12.9827 10.2224 12.9086 9.95591 12.7806 9.70588C12.5069 9.17169 12.0433 8.77644 11.4751 8.59316L7.90185 7.4405C7.33345 7.25722 6.72623 7.3071 6.19223 7.5801C5.65823 7.85375 5.26298 8.31744 5.07989 8.88556L0.441792 23.2601C0.0623855 24.4365 0.710761 25.7023 1.88732 26.0818L5.46051 27.2348C5.68598 27.3076 5.91745 27.3437 6.14798 27.3437C6.49889 27.3437 6.84773 27.2601 7.16995 27.0952C7.36898 26.9932 7.54101 26.8573 7.69767 26.707C7.7197 26.8157 7.74923 26.9233 7.77585 27.0313L6.88129 28.7037C6.49767 29.4213 6.42332 30.2915 6.67776 31.0908C6.92545 31.8691 7.44782 32.4907 8.13295 32.833C8.73004 33.1525 9.38779 33.2523 10.0124 33.1603C9.83395 33.7519 9.83732 34.4008 10.0307 35.0088C10.2784 35.7871 10.8008 36.4089 11.4859 36.7512C12.2025 37.1344 13.0274 37.2144 13.8091 36.9779C14.1214 36.8832 14.4116 36.7425 14.6716 36.5618C14.9225 37.328 15.4409 37.9395 16.1182 38.278C16.8346 38.6612 17.6595 38.7412 18.4412 38.5048C18.6148 38.452 18.7816 38.3852 18.94 38.3053C19.175 39.2488 19.846 40.0892 20.6823 40.5366C21.0818 40.7501 21.5522 40.8877 22.0406 40.8877C22.928 40.8877 23.8743 40.4329 24.5589 39.1533L24.6924 38.9036C24.7444 38.9308 24.7962 38.958 24.8437 38.9829L25.2007 39.1691C25.6379 39.3942 26.0654 39.4933 26.4672 39.4933C27.4696 39.4933 28.3117 38.8755 28.7422 38.055C29.0386 37.4905 29.143 36.8192 28.9992 36.1677C29.3609 36.1864 29.7266 36.1434 30.084 36.0351C30.8868 35.7918 31.5456 35.2528 31.939 34.5174C32.2568 33.9232 32.3718 33.2563 32.276 32.5985C32.9474 32.8772 33.69 32.9135 34.3982 32.699C35.2079 32.4537 35.8724 31.9097 36.2692 31.168C36.5935 30.5613 36.7086 29.8796 36.6056 29.2086C37.6999 29.6448 38.7558 29.4453 39.4889 28.6421C40.2322 27.828 40.4821 26.5809 40.2042 25.468C40.2616 25.4473 40.3199 25.4264 40.3845 25.4032L40.3949 25.3995L40.4699 25.6013C40.8052 26.5035 41.6635 27.0624 42.5739 27.0624C42.8327 27.0624 43.0956 27.0174 43.3519 26.9222L46.8717 25.6151C48.0306 25.1846 48.6233 23.8918 48.193 22.7328ZM7.04798 25.3913C6.97092 25.6299 6.80432 25.825 6.57857 25.9405C6.35245 26.056 6.09698 26.0773 5.85876 26.0005L2.28539 24.8472C1.78964 24.6873 1.51635 24.154 1.6762 23.6582L6.31448 9.28381C6.39135 9.04541 6.55795 8.85031 6.7836 8.73481C6.92001 8.66497 7.06757 8.62944 7.2156 8.62944C7.31235 8.62944 7.40901 8.64444 7.50323 8.67481C7.50342 8.67481 7.50342 8.67481 7.50342 8.675L11.0768 9.82785C11.3152 9.90472 11.5103 10.0713 11.6258 10.297C11.7413 10.5227 11.7626 10.7782 11.6858 11.0168L7.98295 22.4935C7.96673 22.5248 7.95107 22.5568 7.93992 22.5915C7.90739 22.6918 7.88226 22.7934 7.85367 22.8943L7.04798 25.3913ZM8.72892 31.6809C8.34379 31.4885 8.05429 31.1393 7.91395 30.6975C7.76507 30.2298 7.80567 29.7261 8.02523 29.3156L9.03585 27.426C9.03604 27.4258 9.03632 27.4257 9.03642 27.4254L9.51914 26.5228C9.96885 25.6824 11.0109 25.3576 11.8565 25.7844C12.4112 26.1722 13.2433 26.9969 12.6119 28.1771L12.268 28.8202L11.1168 30.9724C10.6601 31.8229 9.59676 32.1455 8.72892 31.6809ZM14.4712 34.888C14.2516 35.2989 13.8827 35.6002 13.4325 35.7366C12.9826 35.873 12.5084 35.827 12.0819 35.5992C11.6968 35.4068 11.4073 35.0574 11.2669 34.6156C11.118 34.1482 11.1588 33.6444 11.3784 33.2339L12.2608 31.5845L13.4119 29.4323C13.6315 29.0216 14.0004 28.7203 14.4503 28.5839C14.9005 28.4472 15.3743 28.4934 15.7854 28.7131C16.1961 28.9327 16.4973 29.3016 16.6337 29.7518C16.7701 30.2017 16.7241 30.676 16.5043 31.0869L16.181 31.6916C16.1808 31.6922 16.1804 31.6928 16.18 31.6934L14.8666 34.1488C14.8666 34.149 14.8666 34.149 14.8664 34.1492L14.4712 34.888ZM18.0648 37.2633C17.6146 37.3997 17.1408 37.3537 16.7142 37.1259C16.329 36.9335 16.0397 36.5843 15.8992 36.1426C15.7508 35.6756 15.7909 35.1729 16.0096 34.7626L16.0107 34.7608L17.324 32.3053C17.3241 32.3051 17.3242 32.3048 17.3243 32.3045L17.325 32.3033C17.5449 31.8934 17.9133 31.593 18.3626 31.4568C18.8123 31.3198 19.2866 31.3661 19.6974 31.586C20.5499 32.0421 20.8726 33.1069 20.4167 33.9595L19.7601 35.1873L19.178 36.2756C19.1778 36.2759 19.1775 36.2764 19.1774 36.2768L19.1035 36.4149C18.8839 36.8254 18.5148 37.1269 18.0648 37.2633ZM21.2941 39.3927C20.4438 38.9379 19.8354 37.797 20.322 36.8872L20.9041 35.7989L20.9048 35.7974C21.1318 35.3743 21.5353 35.0344 22.0123 34.865C22.4884 34.6957 22.9664 34.7183 23.3587 34.9281C24.2134 35.385 24.3513 35.7849 24.3804 36.0459C24.4247 36.4405 24.2577 36.9652 23.8394 37.7471C23.8392 37.7477 23.839 37.7484 23.8387 37.7489L23.4149 38.5414C22.6969 39.8848 21.7783 39.6513 21.2941 39.3927ZM27.5936 37.4525C27.2877 38.0363 26.6129 38.4371 25.7944 38.016L25.4469 37.8346C25.3894 37.8043 25.3358 37.7761 25.286 37.7502C25.5487 37.1659 25.7401 36.531 25.6696 35.9016C25.5901 35.1918 25.1963 34.5999 24.4817 34.1007L27.0363 35.4725C27.89 36.0719 27.8871 36.8933 27.5936 37.4525ZM38.5308 27.7676C38.1132 28.2255 37.5399 28.2643 36.8264 27.8824L34.9764 26.893C34.9751 26.8923 34.9739 26.8917 34.9725 26.8911C34.9536 26.881 34.9338 26.8752 34.9144 26.8671L28.9488 23.6289C28.6347 23.4576 28.2404 23.5746 28.0694 23.8896C27.8986 24.2044 28.0152 24.598 28.3302 24.769L34.4219 28.0757C34.8252 28.3122 35.1246 28.6841 35.2624 29.1382C35.4073 29.6162 35.3585 30.1198 35.125 30.5563C34.8916 30.9927 34.4998 31.3128 34.0217 31.4577C33.5429 31.6023 33.0397 31.5538 32.6037 31.3204L30.7643 30.3366C30.7323 30.3105 30.6978 30.2867 30.6601 30.2666L26.2211 27.8931C25.9048 27.7238 25.512 27.8437 25.3434 28.1593C25.1744 28.4752 25.2935 28.8682 25.6096 29.037L29.9371 31.3509C29.9692 31.3771 30.004 31.401 30.0419 31.4213C30.4721 31.6513 30.7875 32.0372 30.9302 32.5085C31.0729 32.9796 31.0248 33.4757 30.7949 33.9057C30.5649 34.3358 30.1787 34.651 29.7076 34.7939C29.2368 34.9364 28.7404 34.8885 28.3105 34.6586L27.3715 34.1564C27.3242 34.1312 27.2751 34.1144 27.2255 34.1018L23.4356 32.0668C23.1199 31.8961 22.7265 32.0155 22.5574 32.3313C22.3878 32.6468 22.5063 33.0402 22.822 33.2095L23.6185 33.6372C23.0777 33.4378 22.4854 33.4002 21.8927 33.5477C22.0602 32.3197 21.4641 31.0596 20.3091 30.4418C19.5994 30.0622 18.7828 29.9796 18.0076 30.2087C18.0021 29.93 17.9582 29.6501 17.8751 29.3754C17.6382 28.5935 17.1131 27.9521 16.3968 27.569C15.6768 27.1843 14.8703 27.118 14.1404 27.3215C14.1279 26.2196 13.4284 25.3032 12.5954 24.7183C12.5669 24.6964 12.5366 24.6767 12.5042 24.6595C11.2606 23.9946 9.75764 24.2819 8.83645 25.2658C8.82154 24.5913 8.91379 23.914 9.1012 23.2511L12.8033 11.7767C14.0548 11.9216 15.2127 11.692 16.3366 11.4679C18.2053 11.0963 19.9799 10.743 22.2732 11.993C21.7736 12.3908 21.2711 12.8447 20.7715 13.3494C20.376 13.7493 19.9694 14.1486 19.5726 14.5381C18.1262 15.9587 16.8771 17.1856 16.5199 18.0564C16.4336 18.2668 16.4638 18.5071 16.5995 18.6896C19.1812 22.1616 22.3099 20.9834 24.8229 20.0371C26.7069 19.3274 28.334 18.7143 29.6302 19.74C29.6547 19.7594 29.6804 19.777 29.7074 19.7926C30.3265 20.1513 31.1791 20.5723 32.1664 21.0599C34.5534 22.2389 37.8225 23.8536 38.6673 25.1376C39.235 25.9998 39.0549 27.1934 38.5308 27.7676ZM39.6503 24.2889C38.5179 22.7532 35.3258 21.1735 32.7412 19.8972C31.7957 19.4301 30.9763 19.0256 30.3964 18.6926C28.5345 17.2536 26.4157 18.0513 24.3659 18.8233C21.9365 19.7377 19.824 20.5329 17.8944 18.2371C18.3477 17.5598 19.43 16.4968 20.4817 15.464C20.8829 15.07 21.2938 14.6663 21.6937 14.2621C22.3867 13.5622 23.0802 12.9734 23.7563 12.5082C27.0239 10.2612 29.4462 11.2736 31.5839 12.1682C32.5835 12.5867 33.6038 13.0138 34.613 13.0138C34.9837 13.0138 35.3524 12.9462 35.7186 12.8094L39.9431 24.1835C39.8446 24.2189 39.745 24.2548 39.6503 24.2889ZM46.4203 24.3989L42.9005 25.7061C42.4107 25.8868 41.8669 25.6377 41.6858 25.1495L36.4271 10.9902C36.3399 10.7554 36.35 10.4993 36.4556 10.2687C36.5613 10.0381 36.7488 9.8631 36.9837 9.77582L40.5034 8.46866C40.6092 8.42938 40.7192 8.40978 40.8292 8.40978C40.9639 8.40978 41.0984 8.43913 41.2253 8.49716C41.4556 8.60272 41.6307 8.79041 41.7179 9.02544L46.9768 23.1844C47.1582 23.6728 46.9084 24.2175 46.4203 24.3989Z" stroke="#43B7FF" mask="url(#path-1-outside-1_47_205)"/>
</g>
<defs>
<clipPath id="clip0_47_205">
<rect width="48" height="48" fill="white" transform="translate(0.333252)"/>
</clipPath>
</defs>
</svg>
