<svg width="210" height="29" viewBox="0 0 210 29" fill="none" xmlns="http://www.w3.org/2000/svg">
<path d="M0 0H210V29H0V0Z" fill="white"/>
<path d="M11.5685 4.69878C10.6577 4.69878 9.91665 5.43955 9.91665 6.35C9.91665 7.26045 10.6577 8.00122 11.5685 8.00122C12.4801 8.00122 13.2217 7.26045 13.2217 6.35C13.2217 5.43955 12.4801 4.69878 11.5685 4.69878ZM11.5685 7.01646C11.2007 7.01646 10.9015 6.71748 10.9015 6.35C10.9015 5.98252 11.2007 5.68359 11.5685 5.68359C11.9371 5.68359 12.237 5.98257 12.237 6.35005C12.237 6.71753 11.9371 7.01646 11.5685 7.01646Z" fill="black"/>
<path d="M26.0119 4.69878H21.6453C20.7344 4.69878 19.9934 5.43955 19.9934 6.35C19.9934 7.26045 20.7344 8.00122 21.6453 8.00122H26.0119C26.9228 8.00122 27.6638 7.26045 27.6638 6.35C27.6638 5.43955 26.9228 4.69878 26.0119 4.69878ZM26.0119 7.01646H21.6453C21.2774 7.01646 20.9782 6.71748 20.9782 6.35C20.9782 5.98252 21.2775 5.68355 21.6453 5.68355H26.0119C26.3797 5.68355 26.679 5.98252 26.679 6.35C26.679 6.71748 26.3797 7.01646 26.0119 7.01646Z" fill="black"/>
<path d="M15.8494 4.69878C14.9385 4.69878 14.1975 5.43955 14.1975 6.35C14.1975 7.26045 14.9385 8.00122 15.8494 8.00122C16.7609 8.00122 17.5026 7.26045 17.5026 6.35C17.5026 5.43955 16.7609 4.69878 15.8494 4.69878ZM15.8494 7.01646C15.4815 7.01646 15.1823 6.71748 15.1823 6.35C15.1823 5.98252 15.4816 5.68355 15.8494 5.68355C16.2179 5.68355 16.5178 5.98252 16.5178 6.35C16.5178 6.71748 16.2179 7.01646 15.8494 7.01646Z" fill="black"/>
<path d="M15.0465 12.8615C14.7821 12.7982 14.5163 12.9614 14.4531 13.226L13.4763 17.3138C13.4131 17.5783 13.5762 17.8439 13.8407 17.9071C13.8792 17.9163 13.9177 17.9208 13.9556 17.9208C14.1782 17.9208 14.3801 17.7687 14.4341 17.5427L15.4109 13.4549C15.4742 13.1904 15.311 12.9248 15.0465 12.8615Z" fill="black"/>
<path d="M16.8542 17.4267C16.9481 17.5103 17.0651 17.5514 17.1816 17.5514C17.3172 17.5514 17.4522 17.4958 17.5495 17.3865L18.9303 15.8365C19.1581 15.5829 19.1581 15.1857 18.9317 14.9337L17.5495 13.3821C17.3685 13.179 17.0572 13.1611 16.8542 13.3419C16.6511 13.5229 16.6332 13.8341 16.8141 14.0372L18.0141 15.3843L16.8141 16.7314C16.6332 16.9346 16.6512 17.2458 16.8542 17.4267Z" fill="black"/>
<path d="M12.033 13.342C11.8299 13.1611 11.5187 13.1792 11.3378 13.3822L9.95718 14.932C9.72905 15.1857 9.72905 15.5831 9.95562 15.835L11.3378 17.3866C11.4352 17.4959 11.5701 17.5515 11.7058 17.5515C11.8223 17.5515 11.9393 17.5104 12.0331 17.4268C12.2362 17.2459 12.2542 16.9346 12.0733 16.7315L10.8732 15.3844L12.0733 14.0373C12.2541 13.8341 12.2361 13.5229 12.033 13.342Z" fill="black"/>
<path d="M30.896 18.5787H30.7132C30.6175 18.2686 30.4934 17.9691 30.342 17.683L30.4725 17.5521C30.6809 17.345 30.7958 17.0685 30.7963 16.7735C30.7967 16.4778 30.6821 16.2001 30.4735 15.9916L30.2193 15.7375V5.24927C30.2193 3.78057 29.1829 2.58574 27.9089 2.58574H9.31045C8.03643 2.58574 7 3.78057 7 5.24927V19.0116C7 20.4803 8.03643 21.6751 9.31045 21.6751H12.1994C12.4713 21.6751 12.6918 21.4547 12.6918 21.1828C12.6918 20.9108 12.4713 20.6904 12.1994 20.6904H9.31045C8.59189 20.6904 7.98481 19.9216 7.98481 19.0117V10.0784H29.2345V15.0542C29.1784 15.0456 29.1215 15.0399 29.0637 15.0399H29.062C28.7669 15.0404 28.4904 15.1552 28.285 15.3618L28.1519 15.4943C27.8597 15.34 27.5555 15.2145 27.2417 15.1186V14.9432C27.2417 14.3346 26.7465 13.8396 26.1378 13.8396H25.2467C24.6388 13.8396 24.1442 14.3346 24.1442 14.9432V15.1306C23.8364 15.2273 23.5392 15.3518 23.2551 15.503L23.1275 15.3758C22.9204 15.1677 22.6438 15.0527 22.3488 15.0523H22.3472C22.0521 15.0523 21.775 15.1668 21.5669 15.3748L20.9374 16.0041C20.7288 16.2125 20.6142 16.4902 20.6146 16.7859C20.615 17.0809 20.73 17.3574 20.9368 17.5629L21.0728 17.6993C20.9251 17.981 20.8039 18.2749 20.7101 18.5786H20.5231C19.9151 18.5786 19.4205 19.073 19.4205 19.6809V20.5728C19.4205 20.6125 19.4227 20.6516 19.4268 20.6902H16.5618C16.2899 20.6902 16.0694 20.9106 16.0694 21.1826C16.0694 21.4545 16.2899 21.675 16.5618 21.675H20.712C20.8072 21.9815 20.9303 22.2778 21.0804 22.5614L20.9474 22.6938C20.519 23.1245 20.5194 23.8237 20.9484 24.2523L21.5783 24.882C21.7854 25.0901 22.062 25.2051 22.357 25.2055H22.3586C22.6537 25.2055 22.9308 25.091 23.1389 24.883L23.2708 24.7512C23.5569 24.902 23.8544 25.0252 24.1607 25.1199V25.3105C24.1607 25.9191 24.6553 26.4142 25.2633 26.4142H26.1557C26.7637 26.4142 27.2583 25.9191 27.2583 25.3105V25.1211C27.5674 25.0257 27.8661 24.902 28.1519 24.7511L28.2832 24.8819C28.4903 25.0901 28.7668 25.205 29.0618 25.2055H29.0635C29.3586 25.2055 29.6356 25.091 29.8442 24.8826L30.4724 24.2534C30.6807 24.0463 30.7957 23.7698 30.7961 23.4748C30.7966 23.1791 30.682 22.9014 30.4733 22.6929L30.3419 22.5615C30.4918 22.2777 30.6148 21.9812 30.7099 21.675H30.8959C31.5047 21.675 31.9999 21.1806 31.9999 20.5728V19.6809C32 19.0731 31.5048 18.5787 30.896 18.5787ZM7.98481 9.09355V5.24927C7.98481 4.33936 8.59189 3.57056 9.31045 3.57056H27.9089C28.6274 3.57056 29.2345 4.33936 29.2345 5.24927V9.0936L7.98481 9.09355ZM31.0152 20.5729C31.0152 20.6354 30.9595 20.6903 30.896 20.6903H30.3329C30.1033 20.6903 29.9042 20.8489 29.8529 21.0727C29.7466 21.5368 29.5639 21.977 29.31 22.381C29.1876 22.5756 29.2162 22.8289 29.3788 22.9914L29.7772 23.3896C29.807 23.4193 29.8114 23.4549 29.8114 23.4734C29.8114 23.4956 29.8056 23.5278 29.7769 23.5563L29.1478 24.1865C29.1179 24.2163 29.0823 24.2208 29.0636 24.2208C29.0412 24.2208 29.0088 24.215 28.98 24.1859L28.5801 23.7877C28.4174 23.6257 28.1646 23.5977 27.9704 23.7197C27.5658 23.9743 27.1238 24.1572 26.6566 24.2635C26.4326 24.3146 26.2735 24.5138 26.2735 24.7437V25.3106C26.2735 25.3739 26.2185 25.4295 26.1558 25.4295H25.2634C25.2006 25.4295 25.1456 25.374 25.1456 25.3106V24.7423C25.1456 24.5122 24.9862 24.3127 24.7618 24.262C24.3006 24.1577 23.8594 23.975 23.4505 23.7192C23.37 23.6687 23.2794 23.6441 23.1895 23.6441C23.0623 23.6441 22.9362 23.6933 22.8412 23.7883L22.4428 24.1865C22.413 24.2163 22.3774 24.2208 22.3586 24.2208C22.3363 24.2208 22.3039 24.215 22.2756 24.1866L21.6447 23.556C21.6005 23.5118 21.601 23.4336 21.6441 23.3902L22.0439 22.992C22.2073 22.8293 22.2359 22.5751 22.1128 22.3802C21.8584 21.9774 21.6755 21.5376 21.5691 21.0729C21.5178 20.8491 21.3187 20.6904 21.0891 20.6904H20.5231C20.4593 20.6904 20.4054 20.6366 20.4054 20.573V19.6811C20.4054 19.6174 20.4593 19.5636 20.5231 19.5636H21.0876C21.3175 19.5636 21.5168 19.4046 21.5678 19.1805C21.6729 18.7187 21.8535 18.2807 22.1045 17.8785C22.2257 17.6843 22.1971 17.4322 22.0354 17.2701L21.6326 16.8661C21.6052 16.8389 21.5995 16.8067 21.5994 16.7846C21.5994 16.766 21.6038 16.7305 21.6336 16.7007L22.2631 16.0715C22.2929 16.0417 22.3285 16.0373 22.3473 16.0373C22.3696 16.0373 22.4021 16.0431 22.4309 16.0721L22.828 16.4676C22.9911 16.6301 23.2449 16.6579 23.4391 16.5347C23.8415 16.2796 24.2821 16.0948 24.7488 15.9856C24.9715 15.9335 25.129 15.7349 25.129 15.5062V14.9434C25.129 14.879 25.1829 14.8245 25.2467 14.8245H26.1377C26.2023 14.8245 26.2569 14.879 26.2569 14.9434V15.4979C26.2569 15.7286 26.4171 15.9283 26.6423 15.9785C27.1108 16.0828 27.5578 16.2671 27.9708 16.5262C28.1649 16.6479 28.4175 16.6198 28.58 16.458L28.9815 16.0581C29.0088 16.0307 29.0411 16.0249 29.0634 16.0249C29.0821 16.0249 29.1179 16.0293 29.1477 16.0591L29.7772 16.6883C29.807 16.7181 29.8114 16.7536 29.8114 16.7722C29.8113 16.7943 29.8056 16.8265 29.7766 16.8553L29.3781 17.2549C29.2159 17.4177 29.1877 17.671 29.3104 17.8653C29.5653 18.2695 29.7487 18.7121 29.8555 19.1807C29.9066 19.4047 30.1058 19.5637 30.3356 19.5637H30.896C30.9595 19.5637 31.0152 19.6186 31.0152 19.6811V20.5729Z" fill="black"/>
<path d="M25.7103 17.1197C24.051 17.1197 22.7011 18.469 22.7011 20.1276C22.7011 21.7853 24.051 23.1341 25.7103 23.1341C27.3688 23.1341 28.7181 21.7854 28.7181 20.1276C28.7181 18.4691 27.3688 17.1197 25.7103 17.1197ZM25.7103 22.1493C24.5941 22.1493 23.6859 21.2423 23.6859 20.1276C23.6859 19.0121 24.5941 18.1045 25.7103 18.1045C26.8258 18.1045 27.7333 19.0121 27.7333 20.1276C27.7333 21.2423 26.8257 22.1493 25.7103 22.1493Z" fill="black"/>
<path d="M14.3952 20.6903H14.3855C14.1136 20.6903 13.8932 20.9108 13.8932 21.1827C13.8932 21.4546 14.1136 21.6751 14.3855 21.6751H14.3952C14.6671 21.6751 14.8876 21.4546 14.8876 21.1827C14.8876 20.9108 14.6671 20.6903 14.3952 20.6903Z" fill="black"/>
<path d="M38.7031 18.0391L40.0625 17.7188V9.07812L38.7031 8.75781V7.88281L43.2656 7.79688V8.75781L41.7422 9.07812V12.6016H47.1016V9.07812L45.5859 8.75781V7.88281L50.1406 7.79688V8.75781L48.7812 9.07812V17.7188L50.1406 18.0391V19H45.5859V18.0391L47.1016 17.7188V13.8828H41.7422V17.7188L43.2656 18.0391V19H38.7031V18.0391Z" fill="black"/>
<path d="M60.7812 18.9219L58.1406 19L57.9844 17.8828C57.6667 18.1693 57.2344 18.4531 56.6875 18.7344C56.1406 19.0156 55.5859 19.1562 55.0234 19.1562C54.1693 19.1562 53.5286 18.9062 53.1016 18.4062C52.6745 17.9062 52.4609 17.2031 52.4609 16.2969V11.7969L51.1016 11.4766V10.6016L54.0625 10.5234V16.1328C54.0625 16.7005 54.1745 17.1198 54.3984 17.3906C54.6224 17.6615 54.9896 17.7969 55.5 17.7969C55.9062 17.7969 56.2786 17.7057 56.6172 17.5234C56.9609 17.3359 57.2474 17.1302 57.4766 16.9062C57.7057 16.6823 57.8203 16.5599 57.8203 16.5391V11.7969L56.4609 11.4766V10.6016L59.4219 10.5234V17.7188L60.7812 18.0391V18.9219Z" fill="black"/>
<path d="M63.2188 17.8125C63.2188 17.8229 63.3516 17.8516 63.6172 17.8984C63.8828 17.9401 64.1979 17.9609 64.5625 17.9609C65.7656 17.9609 66.3698 17.5391 66.375 16.6953C66.375 16.3516 66.2266 16.0938 65.9297 15.9219C65.638 15.7448 65.1823 15.5599 64.5625 15.3672C63.9948 15.1849 63.5339 15.0104 63.1797 14.8438C62.8307 14.6719 62.5312 14.4271 62.2812 14.1094C62.0312 13.7865 61.9062 13.3698 61.9062 12.8594C61.9062 12.0573 62.1771 11.4401 62.7188 11.0078C63.2656 10.5755 63.9714 10.3594 64.8359 10.3594C65.2109 10.3594 65.599 10.3958 66 10.4688C66.4062 10.5365 66.75 10.6094 67.0312 10.6875C67.3177 10.7656 67.4974 10.8177 67.5703 10.8438L67.5234 13H66.4844L66.2266 11.75C66.1953 11.7396 66.125 11.7188 66.0156 11.6875C65.9115 11.6562 65.763 11.6276 65.5703 11.6016C65.3776 11.5755 65.1641 11.5625 64.9297 11.5625C63.9818 11.5625 63.5078 11.9193 63.5078 12.6328C63.5078 12.9766 63.6589 13.2422 63.9609 13.4297C64.2682 13.612 64.7292 13.8047 65.3438 14.0078C65.8958 14.2005 66.349 14.3802 66.7031 14.5469C67.0573 14.7083 67.3568 14.9453 67.6016 15.2578C67.8464 15.5651 67.9688 15.9531 67.9688 16.4219C67.9688 17.3073 67.6354 17.9844 66.9688 18.4531C66.3021 18.9219 65.4635 19.1562 64.4531 19.1562C64.0156 19.1562 63.6094 19.1302 63.2344 19.0781C62.8594 19.026 62.5599 18.974 62.3359 18.9219C62.112 18.8698 61.974 18.8307 61.9219 18.8047V16.4375H63.0469L63.2188 17.8125Z" fill="black"/>
<path d="M70.7188 17.8125C70.7188 17.8229 70.8516 17.8516 71.1172 17.8984C71.3828 17.9401 71.6979 17.9609 72.0625 17.9609C73.2656 17.9609 73.8698 17.5391 73.875 16.6953C73.875 16.3516 73.7266 16.0938 73.4297 15.9219C73.138 15.7448 72.6823 15.5599 72.0625 15.3672C71.4948 15.1849 71.0339 15.0104 70.6797 14.8438C70.3307 14.6719 70.0312 14.4271 69.7812 14.1094C69.5312 13.7865 69.4062 13.3698 69.4062 12.8594C69.4062 12.0573 69.6771 11.4401 70.2188 11.0078C70.7656 10.5755 71.4714 10.3594 72.3359 10.3594C72.7109 10.3594 73.099 10.3958 73.5 10.4688C73.9062 10.5365 74.25 10.6094 74.5312 10.6875C74.8177 10.7656 74.9974 10.8177 75.0703 10.8438L75.0234 13H73.9844L73.7266 11.75C73.6953 11.7396 73.625 11.7188 73.5156 11.6875C73.4115 11.6562 73.263 11.6276 73.0703 11.6016C72.8776 11.5755 72.6641 11.5625 72.4297 11.5625C71.4818 11.5625 71.0078 11.9193 71.0078 12.6328C71.0078 12.9766 71.1589 13.2422 71.4609 13.4297C71.7682 13.612 72.2292 13.8047 72.8438 14.0078C73.3958 14.2005 73.849 14.3802 74.2031 14.5469C74.5573 14.7083 74.8568 14.9453 75.1016 15.2578C75.3464 15.5651 75.4688 15.9531 75.4688 16.4219C75.4688 17.3073 75.1354 17.9844 74.4688 18.4531C73.8021 18.9219 72.9635 19.1562 71.9531 19.1562C71.5156 19.1562 71.1094 19.1302 70.7344 19.0781C70.3594 19.026 70.0599 18.974 69.8359 18.9219C69.612 18.8698 69.474 18.8307 69.4219 18.8047V16.4375H70.5469L70.7188 17.8125Z" fill="black"/>
<path d="M77.3906 11C77.474 10.9688 77.6823 10.9036 78.0156 10.8047C78.3542 10.7005 78.7526 10.6016 79.2109 10.5078C79.6693 10.4089 80.1016 10.3594 80.5078 10.3594C81.4766 10.3594 82.2109 10.5521 82.7109 10.9375C83.2161 11.3229 83.4688 11.9583 83.4688 12.8438V17.7188L84.75 18.0391V18.9219L82.2656 19L81.9297 17.8828C81.5859 18.2266 81.1875 18.526 80.7344 18.7812C80.2865 19.0312 79.8099 19.1562 79.3047 19.1562C78.5495 19.1562 77.9609 18.9479 77.5391 18.5312C77.1172 18.1094 76.9062 17.5182 76.9062 16.7578C76.9062 15.8724 77.224 15.2396 77.8594 14.8594C78.4948 14.474 79.4036 14.2812 80.5859 14.2812H81.8672V13C81.8672 12.5312 81.737 12.1745 81.4766 11.9297C81.2161 11.6849 80.8385 11.5625 80.3438 11.5625C80.0573 11.5625 79.7943 11.5807 79.5547 11.6172C79.3151 11.6536 79.125 11.6901 78.9844 11.7266C78.849 11.763 78.7656 11.7865 78.7344 11.7969L78.5078 13H77.4688L77.3906 11ZM80.75 15.3203C79.9583 15.3203 79.3906 15.4271 79.0469 15.6406C78.7083 15.8542 78.5391 16.2005 78.5391 16.6797C78.5391 17.0443 78.6432 17.3359 78.8516 17.5547C79.0599 17.7734 79.3464 17.8828 79.7109 17.8828C80.0651 17.8828 80.401 17.7865 80.7188 17.5938C81.0365 17.401 81.3073 17.1927 81.5312 16.9688C81.7552 16.7448 81.8672 16.6224 81.8672 16.6016V15.3203H80.75Z" fill="black"/>
<path d="M86.9141 7.88281C86.9141 7.52865 87.0156 7.2526 87.2188 7.05469C87.4219 6.85677 87.6667 6.75781 87.9531 6.75781C88.6458 6.75781 88.9922 7.13281 88.9922 7.88281C88.9922 8.22656 88.8854 8.5 88.6719 8.70312C88.4583 8.90104 88.2188 9 87.9531 9C87.6354 9 87.3828 8.90104 87.1953 8.70312C87.0078 8.50521 86.9141 8.23177 86.9141 7.88281ZM90.0312 19H85.875V18.1172L87.2344 17.7188V11.7969L85.875 11.4766V10.6016L88.8359 10.5234V17.7188L90.0312 18.1172V19Z" fill="black"/>
<path d="M94.0156 11.6562C94.349 11.3698 94.7839 11.0833 95.3203 10.7969C95.862 10.5052 96.4193 10.3594 96.9922 10.3594C97.8464 10.3594 98.487 10.6146 98.9141 11.125C99.3411 11.6302 99.5547 12.3359 99.5547 13.2422V17.7188L100.75 18.1172V19H96.9141V18.1172L97.9531 17.7188V13.3984C97.9531 12.8203 97.8411 12.3958 97.6172 12.125C97.3932 11.8542 97.026 11.7188 96.5156 11.7188C96.1094 11.7188 95.7344 11.8151 95.3906 12.0078C95.0521 12.2005 94.7682 12.4089 94.5391 12.6328C94.3099 12.8568 94.1953 12.9792 94.1953 13V17.7188L95.2344 18.1172V19H91.2344V18.1172L92.5938 17.7188V11.7969L91.2344 11.4766V10.6016L93.875 10.5234L94.0156 11.6562Z" fill="black"/>
<path d="M105 7.88281L109.484 7.79688V8.75781L108.094 9.07812L109.805 16.3281L112.445 7.88281L113.961 7.79688L116.555 16.5078L118.539 9.07812L117.078 8.75781V7.88281L121.398 7.79688V8.75781L120.141 9.07812L117.32 19H115.562L113.641 11.6406L113.18 9.91406L112.68 11.7188L110.523 19H108.922L106.25 9.07812L105 8.75781V7.88281Z" fill="black"/>
<path d="M123.805 15C123.805 15.875 124.018 16.5755 124.445 17.1016C124.872 17.6224 125.432 17.8828 126.125 17.8828C126.594 17.8828 127.029 17.8177 127.43 17.6875C127.831 17.5573 128.161 17.4167 128.422 17.2656C128.682 17.1094 128.812 17.0208 128.812 17L129.375 17.8281C129.375 17.849 129.201 17.9792 128.852 18.2188C128.508 18.4531 128.081 18.6693 127.57 18.8672C127.065 19.0599 126.529 19.1562 125.961 19.1562C124.701 19.1562 123.745 18.776 123.094 18.0156C122.448 17.2552 122.125 16.1979 122.125 14.8438C122.125 14 122.289 13.237 122.617 12.5547C122.951 11.8724 123.414 11.3359 124.008 10.9453C124.607 10.5547 125.286 10.3594 126.047 10.3594C128.286 10.3594 129.406 11.612 129.406 14.1172C129.406 14.2891 129.396 14.4609 129.375 14.6328C129.354 14.8047 129.339 14.9167 129.328 14.9688L123.805 15ZM127.711 13.7969C127.711 13.1458 127.57 12.6198 127.289 12.2188C127.013 11.8125 126.57 11.6094 125.961 11.6094C125.341 11.6094 124.849 11.8177 124.484 12.2344C124.125 12.651 123.919 13.1719 123.867 13.7969H127.711Z" fill="black"/>
<path d="M133.086 11.2891C133.872 10.6693 134.672 10.3594 135.484 10.3594C136.604 10.3594 137.443 10.7318 138 11.4766C138.562 12.2161 138.844 13.2318 138.844 14.5234C138.844 15.4401 138.674 16.2474 138.336 16.9453C138.003 17.6432 137.505 18.1875 136.844 18.5781C136.182 18.9635 135.383 19.1562 134.445 19.1562C133.924 19.1562 133.445 19.1276 133.008 19.0703C132.57 19.013 132.221 18.9531 131.961 18.8906C131.706 18.8229 131.547 18.7786 131.484 18.7578V7.96094L130.203 7.64062V6.75781L133.086 6.67969V11.2891ZM133.086 17.7188C133.086 17.7292 133.229 17.7604 133.516 17.8125C133.802 17.8594 134.193 17.8828 134.688 17.8828C135.562 17.8828 136.193 17.5885 136.578 17C136.969 16.4115 137.164 15.638 137.164 14.6797C137.164 13.7422 137 13.0026 136.672 12.4609C136.349 11.9141 135.846 11.6406 135.164 11.6406C134.737 11.6406 134.367 11.7188 134.055 11.875C133.747 12.026 133.508 12.1901 133.336 12.3672C133.169 12.5443 133.086 12.6484 133.086 12.6797V17.7188Z" fill="black"/>
<path d="M145.328 9.07812L143.969 8.75781V7.88281L147.008 7.79688H149.008C150.586 7.79688 151.82 8.27083 152.711 9.21875C153.602 10.1615 154.047 11.5026 154.047 13.2422C154.047 14.4036 153.831 15.4193 153.398 16.2891C152.971 17.1589 152.357 17.8281 151.555 18.2969C150.753 18.7656 149.826 19 148.773 19H143.969V18.0391L145.328 17.7188V9.07812ZM148.852 17.7188C149.898 17.7188 150.719 17.3542 151.312 16.625C151.911 15.8958 152.211 14.7943 152.211 13.3203C152.211 11.8828 151.922 10.8177 151.344 10.125C150.771 9.42708 149.966 9.07812 148.93 9.07812H147.008V17.7188H148.852Z" fill="black"/>
<path d="M157.258 15C157.258 15.875 157.471 16.5755 157.898 17.1016C158.326 17.6224 158.885 17.8828 159.578 17.8828C160.047 17.8828 160.482 17.8177 160.883 17.6875C161.284 17.5573 161.615 17.4167 161.875 17.2656C162.135 17.1094 162.266 17.0208 162.266 17L162.828 17.8281C162.828 17.849 162.654 17.9792 162.305 18.2188C161.961 18.4531 161.534 18.6693 161.023 18.8672C160.518 19.0599 159.982 19.1562 159.414 19.1562C158.154 19.1562 157.198 18.776 156.547 18.0156C155.901 17.2552 155.578 16.1979 155.578 14.8438C155.578 14 155.742 13.237 156.07 12.5547C156.404 11.8724 156.867 11.3359 157.461 10.9453C158.06 10.5547 158.74 10.3594 159.5 10.3594C161.74 10.3594 162.859 11.612 162.859 14.1172C162.859 14.2891 162.849 14.4609 162.828 14.6328C162.807 14.8047 162.792 14.9167 162.781 14.9688L157.258 15ZM161.164 13.7969C161.164 13.1458 161.023 12.6198 160.742 12.2188C160.466 11.8125 160.023 11.6094 159.414 11.6094C158.794 11.6094 158.302 11.8177 157.938 12.2344C157.578 12.651 157.372 13.1719 157.32 13.7969H161.164Z" fill="black"/>
<path d="M165.609 17.8125C165.609 17.8229 165.742 17.8516 166.008 17.8984C166.273 17.9401 166.589 17.9609 166.953 17.9609C168.156 17.9609 168.76 17.5391 168.766 16.6953C168.766 16.3516 168.617 16.0938 168.32 15.9219C168.029 15.7448 167.573 15.5599 166.953 15.3672C166.385 15.1849 165.924 15.0104 165.57 14.8438C165.221 14.6719 164.922 14.4271 164.672 14.1094C164.422 13.7865 164.297 13.3698 164.297 12.8594C164.297 12.0573 164.568 11.4401 165.109 11.0078C165.656 10.5755 166.362 10.3594 167.227 10.3594C167.602 10.3594 167.99 10.3958 168.391 10.4688C168.797 10.5365 169.141 10.6094 169.422 10.6875C169.708 10.7656 169.888 10.8177 169.961 10.8438L169.914 13H168.875L168.617 11.75C168.586 11.7396 168.516 11.7188 168.406 11.6875C168.302 11.6562 168.154 11.6276 167.961 11.6016C167.768 11.5755 167.555 11.5625 167.32 11.5625C166.372 11.5625 165.898 11.9193 165.898 12.6328C165.898 12.9766 166.049 13.2422 166.352 13.4297C166.659 13.612 167.12 13.8047 167.734 14.0078C168.286 14.2005 168.74 14.3802 169.094 14.5469C169.448 14.7083 169.747 14.9453 169.992 15.2578C170.237 15.5651 170.359 15.9531 170.359 16.4219C170.359 17.3073 170.026 17.9844 169.359 18.4531C168.693 18.9219 167.854 19.1562 166.844 19.1562C166.406 19.1562 166 19.1302 165.625 19.0781C165.25 19.026 164.951 18.974 164.727 18.9219C164.503 18.8698 164.365 18.8307 164.312 18.8047V16.4375H165.438L165.609 17.8125Z" fill="black"/>
<path d="M172.758 7.88281C172.758 7.52865 172.859 7.2526 173.062 7.05469C173.266 6.85677 173.51 6.75781 173.797 6.75781C174.49 6.75781 174.836 7.13281 174.836 7.88281C174.836 8.22656 174.729 8.5 174.516 8.70312C174.302 8.90104 174.062 9 173.797 9C173.479 9 173.227 8.90104 173.039 8.70312C172.852 8.50521 172.758 8.23177 172.758 7.88281ZM175.875 19H171.719V18.1172L173.078 17.7188V11.7969L171.719 11.4766V10.6016L174.68 10.5234V17.7188L175.875 18.1172V19Z" fill="black"/>
<path d="M183.844 11.7031C183.865 11.7344 183.909 11.8151 183.977 11.9453C184.049 12.0703 184.117 12.2552 184.18 12.5C184.247 12.7396 184.281 13.013 184.281 13.3203C184.281 14.3672 183.966 15.1484 183.336 15.6641C182.706 16.1797 181.846 16.4375 180.758 16.4375C180.461 16.4375 180.201 16.4193 179.977 16.3828C179.753 16.3464 179.612 16.3177 179.555 16.2969L179.477 17.7969H181.961C183.008 17.7969 183.802 17.9948 184.344 18.3906C184.885 18.7865 185.156 19.362 185.156 20.1172C185.156 21.0234 184.805 21.7292 184.102 22.2344C183.398 22.7448 182.365 23 181 23C179.797 23 178.854 22.8203 178.172 22.4609C177.495 22.1068 177.156 21.513 177.156 20.6797C177.156 20.2526 177.281 19.888 177.531 19.5859C177.781 19.2891 178.06 19.0599 178.367 18.8984C178.68 18.7318 178.836 18.6589 178.836 18.6797C178.836 18.6901 178.747 18.6693 178.57 18.6172C178.398 18.5651 178.24 18.4714 178.094 18.3359C177.948 18.2005 177.875 18.0104 177.875 17.7656C177.875 17.6042 177.935 17.3906 178.055 17.125C178.18 16.8594 178.31 16.6146 178.445 16.3906C178.581 16.1667 178.669 16.0234 178.711 15.9609C178.711 15.9922 178.596 15.9115 178.367 15.7188C178.138 15.526 177.932 15.2474 177.75 14.8828C177.568 14.513 177.477 14.0443 177.477 13.4766C177.477 12.4609 177.794 11.6875 178.43 11.1562C179.065 10.625 179.922 10.3594 181 10.3594C181.307 10.3594 181.578 10.3802 181.812 10.4219C182.047 10.4635 182.227 10.5104 182.352 10.5625C182.482 10.6094 182.562 10.6432 182.594 10.6641L185.398 10.6016V11.4766L183.844 11.7031ZM180.914 11.4766C180.289 11.4766 179.826 11.6354 179.523 11.9531C179.227 12.2656 179.078 12.7474 179.078 13.3984C179.078 13.987 179.227 14.4557 179.523 14.8047C179.826 15.1484 180.263 15.3203 180.836 15.3203C181.477 15.3203 181.943 15.1693 182.234 14.8672C182.531 14.5599 182.68 14.0703 182.68 13.3984C182.68 12.7786 182.531 12.3047 182.234 11.9766C181.943 11.6432 181.503 11.4766 180.914 11.4766ZM179.797 19C179.797 18.9792 179.701 19.0339 179.508 19.1641C179.315 19.2995 179.141 19.474 178.984 19.6875C178.833 19.901 178.758 20.151 178.758 20.4375C178.758 20.9583 178.964 21.3151 179.375 21.5078C179.786 21.7005 180.406 21.7969 181.234 21.7969C182.047 21.7969 182.651 21.6719 183.047 21.4219C183.443 21.1719 183.641 20.7917 183.641 20.2812C183.641 19.7917 183.466 19.4557 183.117 19.2734C182.768 19.0911 182.247 19 181.555 19H179.797Z" fill="black"/>
<path d="M189.219 11.6562C189.552 11.3698 189.987 11.0833 190.523 10.7969C191.065 10.5052 191.622 10.3594 192.195 10.3594C193.049 10.3594 193.69 10.6146 194.117 11.125C194.544 11.6302 194.758 12.3359 194.758 13.2422V17.7188L195.953 18.1172V19H192.117V18.1172L193.156 17.7188V13.3984C193.156 12.8203 193.044 12.3958 192.82 12.125C192.596 11.8542 192.229 11.7188 191.719 11.7188C191.312 11.7188 190.938 11.8151 190.594 12.0078C190.255 12.2005 189.971 12.4089 189.742 12.6328C189.513 12.8568 189.398 12.9792 189.398 13V17.7188L190.438 18.1172V19H186.438V18.1172L187.797 17.7188V11.7969L186.438 11.4766V10.6016L189.078 10.5234L189.219 11.6562Z" fill="black"/>
<path d="M198.469 17.8125C198.469 17.8229 198.602 17.8516 198.867 17.8984C199.133 17.9401 199.448 17.9609 199.812 17.9609C201.016 17.9609 201.62 17.5391 201.625 16.6953C201.625 16.3516 201.477 16.0938 201.18 15.9219C200.888 15.7448 200.432 15.5599 199.812 15.3672C199.245 15.1849 198.784 15.0104 198.43 14.8438C198.081 14.6719 197.781 14.4271 197.531 14.1094C197.281 13.7865 197.156 13.3698 197.156 12.8594C197.156 12.0573 197.427 11.4401 197.969 11.0078C198.516 10.5755 199.221 10.3594 200.086 10.3594C200.461 10.3594 200.849 10.3958 201.25 10.4688C201.656 10.5365 202 10.6094 202.281 10.6875C202.568 10.7656 202.747 10.8177 202.82 10.8438L202.773 13H201.734L201.477 11.75C201.445 11.7396 201.375 11.7188 201.266 11.6875C201.161 11.6562 201.013 11.6276 200.82 11.6016C200.628 11.5755 200.414 11.5625 200.18 11.5625C199.232 11.5625 198.758 11.9193 198.758 12.6328C198.758 12.9766 198.909 13.2422 199.211 13.4297C199.518 13.612 199.979 13.8047 200.594 14.0078C201.146 14.2005 201.599 14.3802 201.953 14.5469C202.307 14.7083 202.607 14.9453 202.852 15.2578C203.096 15.5651 203.219 15.9531 203.219 16.4219C203.219 17.3073 202.885 17.9844 202.219 18.4531C201.552 18.9219 200.714 19.1562 199.703 19.1562C199.266 19.1562 198.859 19.1302 198.484 19.0781C198.109 19.026 197.81 18.974 197.586 18.9219C197.362 18.8698 197.224 18.8307 197.172 18.8047V16.4375H198.297L198.469 17.8125Z" fill="black"/>
</svg>
