<svg width="20" height="20" viewBox="0 0 20 20" fill="none" xmlns="http://www.w3.org/2000/svg">
<path d="M10.0001 7.93342C9.59133 7.93342 9.19176 8.05462 8.8519 8.28171C8.51204 8.5088 8.24715 8.83157 8.09073 9.2092C7.93431 9.58684 7.89338 10.0024 7.97313 10.4033C8.05287 10.8042 8.2497 11.1724 8.53873 11.4614C8.82776 11.7505 9.196 11.9473 9.5969 12.027C9.99779 12.1068 10.4133 12.0659 10.791 11.9094C11.1686 11.753 11.4914 11.4881 11.7185 11.1483C11.9455 10.8084 12.0667 10.4088 12.0667 10.0001C12.0667 9.72868 12.0133 9.45994 11.9094 9.2092C11.8056 8.95846 11.6533 8.73064 11.4614 8.53873C11.2695 8.34682 11.0417 8.19459 10.791 8.09073C10.5402 7.98687 10.2715 7.93342 10.0001 7.93342V7.93342ZM18.2751 5.89175C18.2707 5.24821 18.1522 4.61056 17.9251 4.00841C17.7578 3.5678 17.499 3.16766 17.1658 2.8344C16.8325 2.50115 16.4324 2.24235 15.9917 2.07508C15.3896 1.84797 14.752 1.72947 14.1084 1.72508C13.0334 1.66675 12.7167 1.66675 10.0001 1.66675C7.28341 1.66675 6.96675 1.66675 5.89175 1.72508C5.24821 1.72947 4.61056 1.84797 4.00841 2.07508C3.5678 2.24235 3.16766 2.50115 2.8344 2.8344C2.50115 3.16766 2.24235 3.5678 2.07508 4.00841C1.84797 4.61056 1.72947 5.24821 1.72508 5.89175C1.66675 6.96675 1.66675 7.28341 1.66675 10.0001C1.66675 12.7167 1.66675 13.0334 1.72508 14.1084C1.73405 14.7542 1.85239 15.3938 2.07508 16.0001C2.2416 16.4387 2.50019 16.8365 2.83341 17.1667C3.16524 17.502 3.56624 17.7608 4.00841 17.9251C4.61056 18.1522 5.24821 18.2707 5.89175 18.2751C6.96675 18.3334 7.28341 18.3334 10.0001 18.3334C12.7167 18.3334 13.0334 18.3334 14.1084 18.2751C14.752 18.2707 15.3896 18.1522 15.9917 17.9251C16.4339 17.7608 16.8349 17.502 17.1667 17.1667C17.5 16.8365 17.7586 16.4387 17.9251 16.0001C18.152 15.395 18.2705 14.7546 18.2751 14.1084C18.3334 13.0334 18.3334 12.7167 18.3334 10.0001C18.3334 7.28341 18.3334 6.96675 18.2751 5.89175V5.89175ZM16.1584 12.5584C16.1317 13.0727 16.0219 13.5792 15.8334 14.0584C15.6716 14.4582 15.4311 14.8213 15.1262 15.1262C14.8213 15.4311 14.4582 15.6716 14.0584 15.8334C13.5747 16.0114 13.0653 16.1099 12.5501 16.1251C11.8917 16.1251 11.7167 16.1251 10.0001 16.1251C8.28342 16.1251 8.10841 16.1251 7.45008 16.1251C6.93486 16.1099 6.42549 16.0114 5.94175 15.8334C5.5285 15.6798 5.15531 15.4349 4.85008 15.1167C4.54814 14.8178 4.31495 14.4566 4.16675 14.0584C3.98805 13.5752 3.89225 13.0652 3.88341 12.5501C3.88341 11.8917 3.88341 11.7167 3.88341 10.0001C3.88341 8.28342 3.88341 8.10841 3.88341 7.45008C3.89225 6.93494 3.98805 6.42499 4.16675 5.94175C4.32032 5.5285 4.56531 5.15531 4.88341 4.85008C5.18369 4.54977 5.54447 4.31683 5.94175 4.16675C6.42549 3.98875 6.93486 3.89026 7.45008 3.87508V3.87508C8.10841 3.87508 8.28342 3.87508 10.0001 3.87508C11.7167 3.87508 11.8917 3.87508 12.5501 3.87508C13.0653 3.89026 13.5747 3.98875 14.0584 4.16675C14.4717 4.32032 14.8449 4.56531 15.1501 4.88341C15.452 5.18237 15.6852 5.54353 15.8334 5.94175C16.0114 6.42549 16.1099 6.93486 16.1251 7.45008C16.1251 8.10841 16.1251 8.28342 16.1251 10.0001C16.1251 11.7167 16.1834 11.8917 16.1584 12.5501V12.5584ZM14.8251 6.35842C14.7259 6.08924 14.5694 5.84478 14.3666 5.64193C14.1637 5.43907 13.9193 5.28263 13.6501 5.18341C13.2805 5.0553 12.8912 4.99324 12.5001 5.00008C11.8501 5.00008 11.6667 5.00008 10.0001 5.00008C8.33342 5.00008 8.15008 5.00008 7.50008 5.00008C7.10697 5.00392 6.71764 5.07728 6.35008 5.21675C6.08502 5.31146 5.84316 5.46151 5.64057 5.65692C5.43798 5.85232 5.2793 6.08861 5.17508 6.35008C5.05406 6.72122 4.99494 7.10974 5.00008 7.50008C5.00008 8.15008 5.00008 8.33342 5.00008 10.0001C5.00008 11.6667 5.00008 11.8501 5.00008 12.5001C5.00834 12.8927 5.08156 13.2813 5.21675 13.6501C5.31597 13.9193 5.4724 14.1637 5.67526 14.3666C5.87812 14.5694 6.12257 14.7259 6.39175 14.8251C6.7473 14.9558 7.12146 15.029 7.50008 15.0417V15.0417C8.15008 15.0417 8.33342 15.0417 10.0001 15.0417C11.6667 15.0417 11.8501 15.0417 12.5001 15.0417C12.8932 15.0379 13.2825 14.9646 13.6501 14.8251C13.9193 14.7259 14.1637 14.5694 14.3666 14.3666C14.5694 14.1637 14.7259 13.9193 14.8251 13.6501C14.9646 13.2825 15.0379 12.8932 15.0417 12.5001C15.0417 11.8501 15.0417 11.6667 15.0417 10.0001C15.0417 8.33342 15.0417 8.15008 15.0417 7.50008C15.042 7.10658 14.9685 6.71652 14.8251 6.35008V6.35842ZM10.0001 13.1834C9.58243 13.1834 9.16889 13.101 8.78313 12.9409C8.39738 12.7809 8.047 12.5462 7.75207 12.2505C7.45713 11.9548 7.22344 11.6038 7.06437 11.2177C6.9053 10.8315 6.82399 10.4177 6.82508 10.0001V10.0001C6.82508 9.37012 7.012 8.75433 7.36215 8.23065C7.71231 7.70698 8.20997 7.29897 8.79214 7.05828C9.3743 6.81758 10.0148 6.75503 10.6325 6.87854C11.2503 7.00205 11.8175 7.30606 12.2623 7.75209C12.7072 8.19812 13.0097 8.76611 13.1316 9.38417C13.2535 10.0022 13.1893 10.6425 12.947 11.2241C12.7048 11.8056 12.2955 12.3022 11.7709 12.651C11.2463 12.9998 10.63 13.1851 10.0001 13.1834V13.1834ZM13.3334 7.44175C13.1492 7.42225 12.9787 7.33527 12.8548 7.19756C12.7309 7.05985 12.6624 6.88116 12.6624 6.69591C12.6624 6.51067 12.7309 6.33198 12.8548 6.19427C12.9787 6.05656 13.1492 5.96958 13.3334 5.95008V5.95008C13.5176 5.96958 13.6881 6.05656 13.812 6.19427C13.9359 6.33198 14.0045 6.51067 14.0045 6.69591C14.0045 6.88116 13.9359 7.05985 13.812 7.19756C13.6881 7.33527 13.5176 7.42225 13.3334 7.44175Z" fill="white"/>
</svg>
