<svg width="40" height="40" viewBox="0 0 40 40" fill="none" xmlns="http://www.w3.org/2000/svg">
<g clip-path="url(#clip0_41_490)">
<path d="M31.3282 14.7483C31.1565 14.5013 30.8832 14.3441 30.5834 14.32H22.8182L30.453 1.24762C30.6233 0.987496 30.6233 0.651173 30.453 0.391053C30.287 0.152493 30.0174 0.00724499 29.7268 3.34194e-08H19.336C19.0194 -8.72552e-05 18.7274 0.170824 18.5724 0.446918L8.64713 21.303C8.49262 21.5543 8.49262 21.8711 8.64713 22.1224C8.78504 22.3775 9.06794 22.519 9.35477 22.4762H17.1758L11.5894 38.9563C11.4616 39.3214 11.6198 39.7251 11.9618 39.906C12.1008 39.9736 12.2543 40.0057 12.4087 39.9991C12.6588 39.991 12.8973 39.8917 13.0791 39.7198L31.3282 15.6421C31.5153 15.3735 31.5153 15.0169 31.3282 14.7483Z" fill="white"/>
</g>
<defs>
<clipPath id="clip0_41_490">
<rect width="40" height="40" fill="white"/>
</clipPath>
</defs>
</svg>
