<svg id="Layer_1" enable-background="new 0 0 100 100" viewBox="0 0 100 100" xmlns="http://www.w3.org/2000/svg"><path d="m59.2492485 3.4188583c-25.730793-5.1091541-50.7216597 11.6030171-55.8304436 37.3319466s11.6030207 50.7216606 37.3319473 55.8304405 50.7216599-11.6030197 55.8304398-37.3319435c5.1087875-25.7289314-11.6030197-50.7216606-37.3319473-55.8304443zm-19.653347 77.8739579 4.9739418-25.0498314-15.1936855-3.0168877c-.5481873-.1088486-.7708588-.771946-.3994713-1.1895905l30.1867504-33.9467773c.4897041-.5507011 1.3929634-.1015778 1.2494354.6212482l-4.9739418 25.0498352 15.1936913 3.0168877c.5481873.1088486.7708588.771946.3994675 1.1895905l-30.1867524 33.9467716c-.4897003.550705-1.3929596.1015778-1.2494354-.6212463z" fill="#ff8818"/></svg>