<svg width="80" height="78" viewBox="0 0 80 78" fill="none" xmlns="http://www.w3.org/2000/svg">
<path d="M53.3556 51.5356C61.8686 38.5113 60.7984 40.1362 61.0437 39.7966C64.1431 35.5343 65.7812 30.5178 65.7812 25.2891C65.7812 11.4227 54.2405 0 40 0C25.8059 0 14.2188 11.4002 14.2188 25.2891C14.2188 30.5145 15.8913 35.6623 19.0922 39.982L26.6441 51.5358C18.5698 52.7455 4.84375 56.3507 4.84375 64.2891C4.84375 67.1828 6.78094 71.3068 16.0097 74.5203C22.4538 76.7642 30.9736 78 40 78C56.8789 78 75.1562 73.3578 75.1562 64.2891C75.1562 56.3494 61.4463 52.748 53.3556 51.5356ZM23.0077 37.4682C22.9819 37.4289 22.955 37.3905 22.9269 37.3527C20.2633 33.7799 18.9062 29.5457 18.9062 25.2891C18.9062 13.8605 28.3447 4.57031 40 4.57031C51.6311 4.57031 61.0938 13.8647 61.0938 25.2891C61.0938 29.5526 59.7623 33.6431 57.2428 37.1218C57.017 37.4121 58.195 35.6279 40 63.4647L23.0077 37.4682ZM40 73.4297C21.5634 73.4297 9.53125 68.146 9.53125 64.2891C9.53125 61.6968 15.7137 57.4344 29.4137 55.7729L38.0234 68.945C38.4538 69.6034 39.1991 70.002 39.9998 70.002C40.8006 70.002 41.5461 69.6033 41.9762 68.945L50.5858 55.7729C64.2861 57.4344 70.4688 61.6968 70.4688 64.2891C70.4688 68.1132 58.5448 73.4297 40 73.4297Z" fill="black"/>
<path d="M40 13.8633C33.5383 13.8633 28.2812 18.9889 28.2812 25.2891C28.2812 31.5892 33.5383 36.7148 40 36.7148C46.4617 36.7148 51.7188 31.5892 51.7188 25.2891C51.7188 18.9889 46.4617 13.8633 40 13.8633ZM40 32.1445C36.123 32.1445 32.9688 29.0692 32.9688 25.2891C32.9688 21.509 36.123 18.4336 40 18.4336C43.877 18.4336 47.0312 21.509 47.0312 25.2891C47.0312 29.0692 43.877 32.1445 40 32.1445Z" fill="black"/>
</svg>
