<svg width="69" height="68" viewBox="0 0 69 68" fill="none" xmlns="http://www.w3.org/2000/svg">
<path d="M57.3829 16.575C53.1967 7.79878 44.5692 2.25253 34.8579 2.12503C25.1254 1.99753 16.4979 7.35253 12.1629 16.15C7.65793 25.2663 8.72043 35.8275 14.9679 43.7538L31.0967 64.2388C31.9254 65.28 33.1579 65.875 34.4754 65.875C35.7929 65.875 37.0254 65.28 37.8542 64.2388L54.4079 43.2013C60.4217 35.5513 61.5479 25.3725 57.3829 16.5963V16.575ZM51.0929 40.5663L34.4542 61.6038L18.3254 41.1188C13.1192 34.51 12.2267 25.6488 15.9879 18.0413C19.6004 10.7313 26.5067 6.39628 34.4967 6.39628H34.8154C43.0179 6.52378 50.0304 11.0075 53.5579 18.4238C57.0854 25.84 56.1717 34.1063 51.0929 40.5663Z" fill="#E12213"/>
<path d="M34.4754 15.215C28.0792 15.215 22.8729 20.4213 22.8729 26.8175C22.8729 33.2138 28.0792 38.42 34.4754 38.42C40.8717 38.42 46.0779 33.2138 46.0779 26.8175C46.0779 20.4213 40.8717 15.215 34.4754 15.215ZM34.4754 34.1488C30.4167 34.1488 27.1229 30.855 27.1229 26.7963C27.1229 22.7375 30.4167 19.4438 34.4754 19.4438C38.5342 19.4438 41.8279 22.7375 41.8279 26.7963C41.8279 30.855 38.5342 34.1488 34.4754 34.1488Z" fill="#E12213"/>
</svg>
