<svg width="33" height="32" viewBox="0 0 33 32" fill="none" xmlns="http://www.w3.org/2000/svg">
<path fill-rule="evenodd" clip-rule="evenodd" d="M15.6999 25.6191L12.4318 31.2785C12.3455 31.428 12.1795 31.513 12.0077 31.4958C11.8359 31.4786 11.6901 31.3624 11.6351 31.1987L10.5148 27.8648L7.06658 28.5603C6.89736 28.5944 6.7238 28.5263 6.6231 28.3861C6.52233 28.2459 6.51304 28.0597 6.59938 27.9101L9.54557 22.8078C7.83677 21.0819 6.78146 18.7078 6.78146 16.0874C6.78146 12.9223 8.32192 10.1161 10.6943 8.37822C10.8898 8.23497 11.1648 8.27739 11.3081 8.47297C11.4514 8.66848 11.4089 8.94355 11.2133 9.08686C9.05905 10.665 7.6599 13.2132 7.6599 16.0874C7.6599 20.8776 11.5436 24.7613 16.3338 24.7613C21.1227 24.7613 25.0064 20.8776 25.0064 16.0874C25.0064 13.2021 23.5965 10.6455 21.4284 9.06873C21.2324 8.92611 21.1889 8.65122 21.3316 8.45515C21.4741 8.25913 21.749 8.21571 21.9451 8.35827C24.3326 10.0946 25.8848 12.9102 25.8848 16.0874C25.8848 18.7079 24.8295 21.082 23.1208 22.8079L26.0669 27.9101C26.1533 28.0597 26.144 28.2459 26.0432 28.3861C25.9425 28.5263 25.7689 28.5944 25.5997 28.5603L22.1515 27.8648L21.0312 31.1987C20.9762 31.3624 20.8304 31.4786 20.6586 31.4958C20.4868 31.513 20.3209 31.428 20.2345 31.2785L16.9664 25.6191C16.7573 25.6328 16.5464 25.6398 16.3338 25.6398C16.1208 25.6398 15.9095 25.6328 15.6999 25.6191ZM10.2081 23.4171L7.84663 27.5069L10.7209 26.9271C10.9379 26.8833 11.1535 27.0079 11.2241 27.2178L12.1578 29.9964L14.7492 25.5089C13.0389 25.2233 11.4824 24.4833 10.2081 23.4171ZM22.4583 23.4172C21.1839 24.4835 19.6274 25.2236 17.9172 25.5091L20.5085 29.9964L21.4422 27.2178C21.5128 27.0079 21.7284 26.8833 21.9454 26.9271L24.8197 27.5069L22.4583 23.4172ZM11.5592 6.82823L10.416 2.26955C10.3736 2.10013 10.4355 1.92162 10.5738 1.81496C10.7121 1.70829 10.9004 1.69367 11.0535 1.77775L14.139 3.47218L15.9603 0.699977C16.0415 0.576369 16.1795 0.501953 16.3274 0.501953C16.4753 0.501953 16.6133 0.576432 16.6945 0.700102L18.5189 3.47915L21.6126 1.77787C21.7658 1.69361 21.9545 1.70823 22.0928 1.81521C22.2312 1.92219 22.2929 2.10101 22.25 2.27055L21.0956 6.82873V8.07849C21.0956 8.321 20.8989 8.5177 20.6564 8.5177H11.9984C11.7558 8.5177 11.5592 8.321 11.5592 8.07849V6.82823ZM20.3145 6.3348L21.1503 3.0346L18.5863 4.4446C18.3854 4.5551 18.1334 4.49248 18.0075 4.30079L16.3272 1.74129L14.6503 4.2937C14.5245 4.4852 14.2727 4.54776 14.0718 4.43751L11.5129 3.03221L12.3411 6.3348H20.3145ZM17.022 5.1471C17.022 5.53053 16.7108 5.84181 16.3274 5.84181C15.9439 5.84181 15.6327 5.53053 15.6327 5.1471C15.6327 4.76366 15.9439 4.45238 16.3274 4.45238C16.7108 4.45238 17.022 4.76366 17.022 5.1471ZM20.2171 7.21323H12.4376V7.63927C12.4376 7.63927 20.2171 7.63927 20.2171 7.63921V7.21323ZM16.3325 22.5255C12.7881 22.5255 9.89569 19.6332 9.89569 16.0874C9.89569 12.5431 12.7881 9.65063 16.3325 9.65063C19.8783 9.65063 22.7706 12.5431 22.7706 16.0874C22.7706 19.6332 19.8783 22.5255 16.3325 22.5255ZM16.3325 21.6471C19.3944 21.6471 21.8922 19.1494 21.8922 16.0874C21.8922 13.0268 19.3944 10.5291 16.3325 10.5291C13.2718 10.5291 10.7741 13.0268 10.7741 16.0874C10.7741 19.1494 13.2718 21.6471 16.3325 21.6471ZM16.7411 12.3572L17.4947 14.2685L19.5451 14.3943C19.7252 14.4053 19.8802 14.5254 19.9359 14.697C19.9916 14.8687 19.9367 15.0569 19.7974 15.1716L18.2118 16.4779L18.7271 18.4661C18.7723 18.6408 18.7061 18.8254 18.5602 18.9315C18.4143 19.0377 18.2183 19.0438 18.066 18.9469L16.3325 17.8436L14.6004 18.9468C14.4482 19.0437 14.2521 19.0377 14.1061 18.9316C13.9602 18.8255 13.894 18.6408 13.9392 18.4661L14.4545 16.4779L12.8689 15.1716C12.7296 15.0569 12.6747 14.8687 12.7304 14.697C12.7861 14.5254 12.9412 14.4053 13.1212 14.3943L15.1714 14.2685L15.9238 12.3574C15.9899 12.1895 16.1519 12.0791 16.3323 12.0791C16.5128 12.0791 16.6749 12.1894 16.7411 12.3572ZM16.3328 13.7165L15.8863 14.8506C15.8238 15.0094 15.6749 15.1177 15.5045 15.1281L14.2882 15.2028L15.2292 15.9779C15.361 16.0865 15.4179 16.2618 15.3751 16.4271L15.0694 17.6066L16.0965 16.9525C16.2404 16.8609 16.4244 16.8608 16.5683 16.9524L17.597 17.6071L17.2912 16.4271C17.2484 16.2618 17.3053 16.0865 17.4372 15.9779L18.3781 15.2028L17.1618 15.1281C16.9915 15.1177 16.8426 15.0096 16.7801 14.8508L16.3328 13.7165Z" fill="white"/>
</svg>
