<svg width="72" height="72" viewBox="0 0 72 72" fill="none" xmlns="http://www.w3.org/2000/svg">
<g clip-path="url(#clip0_50_274)">
<path d="M51.4688 -0.25H20.5312C17.4853 -0.25 15.0078 2.22752 15.0078 5.27344V66.7266C15.0078 69.7725 17.4853 72.25 20.5312 72.25H51.4688C54.5147 72.25 56.9922 69.7725 56.9922 66.7266V5.27344C56.9922 2.22752 54.5147 -0.25 51.4688 -0.25ZM54.3828 56.9844H24.75C24.0295 56.9844 23.4453 57.5685 23.4453 58.2891C23.4453 59.0096 24.0295 59.5938 24.75 59.5938H54.3828V66.7266C54.3828 68.3332 53.0754 69.6406 51.4688 69.6406H20.5312C18.9246 69.6406 17.6172 68.3332 17.6172 66.7266V59.5938H20.5312C21.2518 59.5938 21.8359 59.0096 21.8359 58.2891C21.8359 57.5685 21.2518 56.9844 20.5312 56.9844H17.6172V10.7969H54.3828V56.9844ZM54.3828 8.1875H17.6172V5.27344C17.6172 3.66677 18.9246 2.35938 20.5312 2.35938H51.4688C53.0754 2.35938 54.3828 3.66677 54.3828 5.27344V8.1875Z" fill="#43B7FF" stroke="#43B7FF" stroke-width="0.5"/>
<path d="M40.2188 4.21875H36C35.4175 4.21875 34.9453 4.69097 34.9453 5.27344C34.9453 5.85591 35.4175 6.32812 36 6.32812H40.2188C40.8012 6.32812 41.2734 5.85591 41.2734 5.27344C41.2734 4.69097 40.8012 4.21875 40.2188 4.21875Z" fill="#43B7FF"/>
<path d="M36 61.4531C34.2553 61.4531 32.8359 62.8725 32.8359 64.6172C32.8359 66.3619 34.2553 67.7812 36 67.7812C37.7447 67.7812 39.1641 66.3619 39.1641 64.6172C39.1641 62.8725 37.7447 61.4531 36 61.4531ZM36 65.6719C35.4184 65.6719 34.9453 65.1988 34.9453 64.6172C34.9453 64.0356 35.4184 63.5625 36 63.5625C36.5816 63.5625 37.0547 64.0356 37.0547 64.6172C37.0547 65.1988 36.5816 65.6719 36 65.6719Z" fill="#43B7FF"/>
<path d="M31.7812 6.32812C32.3637 6.32812 32.8359 5.85593 32.8359 5.27344C32.8359 4.69095 32.3637 4.21875 31.7812 4.21875C31.1988 4.21875 30.7266 4.69095 30.7266 5.27344C30.7266 5.85593 31.1988 6.32812 31.7812 6.32812Z" fill="#43B7FF"/>
</g>
<defs>
<clipPath id="clip0_50_274">
<rect width="72" height="72" fill="white"/>
</clipPath>
</defs>
</svg>
