<svg width="32" height="32" viewBox="0 0 32 32" fill="none" xmlns="http://www.w3.org/2000/svg">
<g clip-path="url(#clip0_17_347)">
<path d="M27.3137 4.68632C24.2917 1.66425 20.2738 0 16 0C11.7263 0 7.70827 1.66425 4.68632 4.68626C1.66425 7.70827 0 11.7263 0 16C0 20.2738 1.66425 24.2917 4.68632 27.3137C7.70827 30.3358 11.7263 32 16 32C20.2739 32 24.2917 30.3357 27.3138 27.3137C30.3357 24.2917 32.0001 20.2737 32.0001 16C32.0001 11.7262 30.3358 7.70827 27.3137 4.68632ZM6.01351 6.01351C7.42045 4.60657 9.07214 3.53344 10.8724 2.83301C10.3929 3.43163 9.94421 4.1197 9.53302 4.89357C9.05546 5.79232 8.64339 6.77939 8.3002 7.8337C7.11133 7.63639 6.00976 7.39376 5.02564 7.10901C5.33407 6.72989 5.66314 6.36389 6.01351 6.01351ZM3.88932 8.72408C5.04039 9.09264 6.35676 9.40346 7.79314 9.64964C7.39314 11.3475 7.1577 13.1746 7.10151 15.0616H1.9085C2.056 12.797 2.73613 10.6358 3.88932 8.72408ZM3.78713 23.1024C2.69619 21.2337 2.05157 19.1349 1.90844 16.9385H7.10508C7.16645 18.7715 7.3972 20.5467 7.7837 22.2001C6.31783 22.4377 4.96839 22.7407 3.78713 23.1024ZM6.01351 25.9866C5.61476 25.5877 5.24339 25.169 4.89907 24.7331C5.91926 24.4502 7.05976 24.2107 8.28745 24.0185C8.63308 25.0875 9.04958 26.0876 9.53296 26.9974C9.98108 27.8407 10.4738 28.5817 11.0023 29.2165C9.15171 28.5176 7.45427 27.4272 6.01351 25.9866ZM15.0615 29.8822C13.636 29.4829 12.2875 28.1812 11.1905 26.1167C10.8068 25.3947 10.4698 24.607 10.1811 23.7675C11.7268 23.5974 13.3715 23.4968 15.0615 23.4732V29.8822ZM15.0615 21.5961C13.1873 21.6217 11.3605 21.7394 9.64964 21.9403C9.27227 20.3802 9.04521 18.6917 8.98289 16.9385H15.0616V21.5961H15.0615ZM15.0615 15.0615H8.97933C9.03627 13.2594 9.26696 11.5237 9.65608 9.92396C11.356 10.1365 13.179 10.2657 15.0615 10.3027V15.0615ZM15.0615 8.42552C13.3649 8.39133 11.7238 8.2807 10.1891 8.1002C10.4761 7.26945 10.8105 6.4897 11.1905 5.77426C12.2875 3.70976 13.636 2.408 15.0615 2.00869V8.42552ZM28.1699 8.82377C29.287 10.7108 29.9466 12.8362 30.0917 15.0615H24.8987C24.8431 13.1963 24.6122 11.3897 24.2206 9.70858C25.6664 9.47508 26.9991 9.17802 28.1699 8.82377ZM25.9865 6.01351C26.3633 6.39033 26.7153 6.78533 27.0436 7.19539C26.0391 7.4697 24.9204 7.70252 23.7184 7.88989C23.3716 6.81439 22.9532 5.80832 22.4671 4.89357C22.0559 4.1197 21.6072 3.43163 21.1277 2.83301C22.9279 3.53344 24.5796 4.60657 25.9865 6.01351ZM16.9385 16.9385H23.0172C22.9545 18.7053 22.7244 20.4067 22.3416 21.9768C20.642 21.7655 18.8198 21.6374 16.9385 21.6014V16.9385ZM16.9385 15.0615V10.309C18.8139 10.2843 20.6421 10.1676 22.3545 9.96746C22.7374 11.5551 22.9643 13.2757 23.0207 15.0615H16.9385ZM16.9384 2.00869H16.9385C18.364 2.408 19.7125 3.70976 20.8095 5.77426C21.1956 6.50095 21.5345 7.29414 21.8245 8.13977C20.2768 8.30927 18.6302 8.40908 16.9384 8.43189V2.00869ZM16.9385 29.8822V23.4786C18.6335 23.5119 20.2734 23.6215 21.8075 23.8009C21.5213 24.6279 21.188 25.4042 20.8095 26.1167C19.7125 28.1812 18.364 29.4829 16.9385 29.8822ZM25.9865 25.9866C24.5458 27.4272 22.8484 28.5176 20.9977 29.2164C21.5262 28.5817 22.0189 27.8407 22.467 26.9974C22.9433 26.1011 23.3544 25.1169 23.697 24.0658C24.9136 24.2666 26.0391 24.5149 27.0417 24.807C26.7141 25.2161 26.3626 25.6104 25.9865 25.9866ZM28.1629 23.1881C26.9982 22.8137 25.6629 22.4986 24.205 22.25C24.5985 20.5825 24.8331 18.79 24.8951 16.9385H30.0917C29.9462 19.1684 29.2844 21.2981 28.1629 23.1881Z" fill="white"/>
</g>
<defs>
<clipPath id="clip0_17_347">
<rect width="32" height="32" fill="white"/>
</clipPath>
</defs>
</svg>
