<svg width="32" height="32" viewBox="0 0 32 32" fill="none" xmlns="http://www.w3.org/2000/svg">
<g clip-path="url(#clip0_47_249)">
<path d="M27.7249 6.71052H20.4874C21.0955 5.47365 21.653 4.11427 21.9999 3.01865C22.5437 1.30115 22.5349 0.429272 21.9705 0.103647C21.4055 -0.221978 20.6468 0.205522 19.4312 1.5349C18.5955 2.44865 17.6187 3.72677 16.8168 4.95427C16.4099 5.57615 16.0855 6.15115 15.8049 6.71052H4.27678C3.02615 6.71052 2.00928 7.72677 2.00928 8.97615V25.9436C2.00928 27.1943 3.02678 28.2111 4.27678 28.2111H13.0049L12.0068 31.0011H10.093C9.81678 31.0011 9.59365 31.2249 9.59365 31.5005C9.59365 31.7761 9.8174 31.9999 10.093 31.9999H21.908C22.1843 31.9999 22.4074 31.7761 22.4074 31.5005C22.4074 31.2249 22.1837 31.0011 21.908 31.0011H19.9937L18.9955 28.2111H27.7249C28.9743 28.2111 29.9912 27.1936 29.9912 25.9436V8.97615C29.9905 7.72677 28.9743 6.71052 27.7249 6.71052ZM13.9743 15.2149C13.4587 15.3811 12.8849 15.5655 12.3399 15.9361C12.2043 14.1643 12.6768 13.1018 13.8843 12.4649L15.403 13.3436C15.4262 13.3568 15.4499 13.3693 15.4737 13.3805C15.5505 14.7068 14.9993 14.8855 13.9743 15.2149ZM16.2905 11.8061C16.3124 11.8186 16.3212 11.838 16.3249 11.8518C16.3287 11.8655 16.3305 11.8861 16.3187 11.9068L16.0068 12.448C15.9855 12.4843 15.9374 12.498 15.9037 12.4786L14.2899 11.5449C14.2893 11.5449 14.2887 11.5443 14.2887 11.5443C14.2674 11.5318 14.2587 11.513 14.2549 11.4999C14.2512 11.4861 14.2493 11.4655 14.2618 11.4443L14.5749 10.9011C14.588 10.878 14.6143 10.8649 14.6399 10.8649C14.653 10.8649 14.6655 10.868 14.6774 10.8749L16.2905 11.8061ZM13.7087 10.4011L13.3955 10.9449C13.2687 11.1649 13.2249 11.4168 13.2687 11.6649C11.2462 12.828 11.2118 14.8818 11.3774 16.368C11.4055 16.643 11.5699 16.8824 11.8149 17.0068C11.9355 17.0693 12.0637 17.0999 12.1918 17.0999C12.3293 17.0999 12.4662 17.0643 12.593 16.9924C12.6205 16.9768 12.6462 16.9586 12.6705 16.9386C13.1543 16.5293 13.7274 16.3449 14.2812 16.1668C15.358 15.8205 16.5693 15.4299 16.4712 13.3455C16.6318 13.2543 16.7712 13.1211 16.8712 12.9505L17.1843 12.4068C17.3274 12.1593 17.3649 11.8699 17.2899 11.5918C17.2812 11.5586 17.2705 11.5261 17.2587 11.4949C17.3812 11.3405 17.5012 11.1893 17.6193 11.0411C17.923 10.6593 18.2149 10.2936 18.4974 9.92115H26.6268V24.9999H5.37553V9.92052H14.303C14.0605 9.9999 13.8455 10.1636 13.7087 10.4011ZM17.653 5.50052C18.3587 4.42052 19.198 3.3074 19.9549 2.4474C20.7243 1.57302 21.1749 1.22552 21.4018 1.08865C21.3962 1.35365 21.3205 1.9174 20.948 3.02115C20.5818 4.10615 20.038 5.38927 19.4555 6.54177C18.6405 8.15427 17.8049 9.20365 16.8374 10.418C16.7387 10.5418 16.6387 10.6674 16.5374 10.7949L15.4274 10.1543C15.4874 10.0024 15.5462 9.85302 15.6043 9.70552C16.173 8.2599 16.6643 7.01177 17.653 5.50052ZM18.933 31.0011H13.0687L14.0668 28.2111H17.9355L18.933 31.0011ZM28.9912 25.9436C28.9912 26.643 28.423 27.2124 27.7243 27.2124H4.27678C3.5774 27.2124 3.00803 26.6436 3.00803 25.9436V8.97615C3.00803 8.2774 3.57678 7.70927 4.27678 7.70927H15.338C15.1643 8.10802 15.003 8.50865 14.8393 8.92115H4.87553C4.59928 8.92115 4.37615 9.1449 4.37615 9.42052V25.498C4.37615 25.7743 4.5999 25.9974 4.87553 25.9974H27.1255C27.4018 25.9974 27.6249 25.7736 27.6249 25.498V9.42115C27.6249 9.14552 27.4012 8.92177 27.1255 8.92177H19.2162C19.4699 8.54615 19.718 8.14865 19.9649 7.7099H27.7249C28.4237 7.7099 28.9918 8.27802 28.9918 8.97677V25.9436H28.9912ZM14.8655 22.6286L16.1712 17.7568C16.2424 17.4905 16.5162 17.3318 16.783 17.4036C17.0493 17.4749 17.2074 17.7493 17.1362 18.0155L15.8305 22.8874C15.7705 23.1105 15.5687 23.258 15.348 23.258C15.3055 23.258 15.2618 23.2524 15.2187 23.2411C14.9518 23.1693 14.7937 22.8949 14.8655 22.6286ZM10.2918 20.1843C10.2974 20.0255 10.3774 19.8786 10.5087 19.7893L12.7993 18.2193C13.0268 18.063 13.338 18.1211 13.4937 18.3493C13.6499 18.5768 13.5918 18.888 13.3637 19.0436L11.633 20.2299L13.3912 21.618C13.6074 21.7893 13.6449 22.103 13.4737 22.3199C13.3749 22.4449 13.2287 22.5099 13.0812 22.5099C12.9724 22.5099 12.8637 22.4749 12.7718 22.4024L10.4812 20.5936C10.3568 20.4949 10.2868 20.343 10.2918 20.1843ZM18.5074 18.3493C18.6637 18.1218 18.9743 18.0636 19.2018 18.2199L21.4905 19.7899C21.6218 19.8799 21.7018 20.0261 21.7074 20.1849C21.713 20.3436 21.6424 20.4955 21.518 20.5936L19.2293 22.4024C19.1374 22.4749 19.028 22.5099 18.9199 22.5099C18.7724 22.5099 18.6262 22.4449 18.5274 22.3199C18.3562 22.1036 18.393 21.7893 18.6099 21.618L20.3668 20.2299L18.6374 19.0436C18.4093 18.888 18.3518 18.5768 18.5074 18.3493Z" fill="#43B7FF"/>
</g>
<defs>
<clipPath id="clip0_47_249">
<rect width="32" height="32" fill="white"/>
</clipPath>
</defs>
</svg>
