<svg xmlns="http://www.w3.org/2000/svg" version="1.1" xmlns:xlink="http://www.w3.org/1999/xlink" width="512" height="512" x="0" y="0" viewBox="0 0 32 32" style="enable-background:new 0 0 512 512" xml:space="preserve" fill-rule="evenodd" class=""><g><path d="M10.899 1.597 3.818 8.678a.593.593 0 0 0-.156.401v19.389c0 1.172.95 2.122 2.122 2.122h19.077a2.123 2.123 0 0 0 2.122-2.122v-7.517a.59.59 0 0 0-1.18 0v7.517a.94.94 0 0 1-.942.942H5.784a.943.943 0 0 1-.943-.942v-18.8h6.475a.59.59 0 0 0 .59-.589V2.604h12.955a.94.94 0 0 1 .942.942v9.337a.59.59 0 1 0 1.18 0V3.546a2.12 2.12 0 0 0-2.122-2.122H11.316a.59.59 0 0 0-.417.173zM8.549 25.08h11.419a.59.59 0 0 0 0-1.18H8.549a.59.59 0 1 0 0 1.18zm14.886-7.542-1.527-1.561a.59.59 0 0 0-.834-.01l-1.519 1.485a.59.59 0 0 0-.009.834l3.424 3.502a.59.59 0 0 0 .834.01l6.936-6.783a.59.59 0 0 0 .009-.834l-1.485-1.519a.59.59 0 0 0-.834-.009zm-14.886 3.3h9.06a.59.59 0 0 0 0-1.18h-9.06a.59.59 0 0 0 0 1.18zm14.454-2.054a.592.592 0 0 0 .835.01l4.995-4.885.66.675-6.092 5.958-2.599-2.659.675-.66 1.526 1.561zM8.549 16.597h9.06a.591.591 0 0 0 0-1.18h-9.06a.59.59 0 1 0 0 1.18zm0-4.242h13.547a.59.59 0 0 0 0-1.179H8.549a.59.59 0 1 0 0 1.179zm2.178-8.917v5.051H5.676zm4.02 4.676h7.349a.59.59 0 0 0 0-1.18h-7.349a.59.59 0 1 0 0 1.18z" fill="#e53825" opacity="1" data-original="#000000" class=""></path></g></svg>