<svg width="32" height="32" viewBox="0 0 32 32" fill="none" xmlns="http://www.w3.org/2000/svg">
<g clip-path="url(#clip0_47_306)">
<path d="M16.7913 15.2094C16.5469 14.965 16.1513 14.965 15.9069 15.2094C15.6632 15.4532 15.6632 15.8488 15.9069 16.0932C16.1513 16.3369 16.5469 16.3369 16.7913 16.0932C17.0351 15.8488 17.0351 15.4532 16.7913 15.2094Z" fill="#43B7FF"/>
<path d="M24.7457 7.25429C23.5245 6.03311 21.5475 6.03304 20.3261 7.25429C19.1081 8.47235 19.108 10.4548 20.3263 11.6739C21.5448 12.8917 23.5273 12.8922 24.7457 11.6738C25.9668 10.4527 25.9671 8.4756 24.7457 7.25429ZM23.8618 10.7898C23.131 11.5207 21.9414 11.5207 21.2102 10.79C20.4793 10.0586 20.4792 8.86898 21.2101 8.13816C21.9428 7.40548 23.129 7.40535 23.8618 8.13816C24.5945 8.87079 24.5946 10.0571 23.8618 10.7898Z" fill="#43B7FF"/>
<path d="M31.8169 0.183068C31.6942 0.060381 31.5267 -0.00611886 31.3525 0.000443624C31.2112 0.00550611 27.8466 0.140756 23.8469 1.55444C20.6419 2.68606 17.9704 4.30625 15.9068 6.36999C15.4443 6.83243 14.9943 7.3228 14.5638 7.83224C12.5233 6.63112 10.8881 7.00774 9.85446 7.56093C7.47441 8.83468 6.00122 12.2932 6.00122 14.7669C6.00141 15.0197 6.15372 15.2476 6.38722 15.3443C6.46453 15.3764 6.54578 15.3919 6.62628 15.3919C6.78897 15.3919 6.94878 15.3284 7.06834 15.2089C8.32353 13.9537 9.87171 14.0322 10.3775 14.0987L10.5963 14.3175C10.1656 15.3425 9.81859 16.3618 9.56409 17.3531C9.47221 17.7118 9.50321 18.0915 9.63978 18.4387C9.03803 18.716 8.45747 19.1232 7.95197 19.6287C6.34316 21.2376 6.01647 25.1585 6.00335 25.3246C5.98897 25.5069 6.0551 25.6864 6.18441 25.8157C6.3021 25.9333 6.46128 25.9988 6.62628 25.9988C6.64266 25.9988 6.65909 25.9981 6.67553 25.9968C6.84166 25.9838 10.7626 25.6571 12.3715 24.0483C12.8768 23.543 13.2839 22.9625 13.5612 22.3608C13.9288 22.5054 14.3072 22.5232 14.6475 22.436C15.6383 22.1816 16.6575 21.8347 17.6826 21.4039L17.9014 21.6228C17.9679 22.1286 18.0464 23.6768 16.7913 24.9318C16.6126 25.1106 16.5591 25.3794 16.6558 25.6129C16.7525 25.8465 16.9804 25.9987 17.2332 25.9987C19.7069 25.9987 23.1654 24.5255 24.4391 22.1455C24.9923 21.1119 25.3689 19.4768 24.1678 17.4362C24.677 17.0058 25.1674 16.5558 25.6301 16.0932C27.6938 14.0295 29.3139 11.358 30.4455 8.1533C31.8593 4.15344 31.9945 0.788692 31.9995 0.647442C32.0058 0.474005 31.9396 0.305818 31.8169 0.183068ZM7.39859 13.4226C7.78684 11.5437 8.91453 9.48186 10.4445 8.66299C11.467 8.11587 12.5845 8.16949 13.7728 8.81993C12.7605 10.1513 11.8804 11.5857 11.1468 13.1004C11.1375 13.0946 11.025 12.9532 10.816 12.906C10.7301 12.8866 9.0764 12.5309 7.39859 13.4226ZM11.4876 23.1643C10.6282 24.0237 8.61228 24.477 7.33809 24.662C7.52322 23.3878 7.97653 21.3719 8.83584 20.5126C9.31709 20.0313 9.87509 19.6665 10.436 19.461L12.5392 21.5642C12.3337 22.1251 11.9689 22.6831 11.4876 23.1643ZM14.337 21.2252C14.1561 21.2715 13.9466 21.2035 13.7908 21.048C12.9823 20.2394 12.666 19.9231 12.5667 19.8239C12.3847 19.6419 11.9384 19.1956 10.9526 18.2097C10.7967 18.0535 10.7287 17.8441 10.7749 17.6635C10.9751 16.8839 11.2369 16.084 11.5553 15.2765L16.7237 20.4449C15.916 20.7633 15.1163 21.0251 14.337 21.2252ZM23.3372 21.5557C22.5183 23.0856 20.4566 24.2133 18.5777 24.6015C19.1768 23.4742 19.3088 22.0392 19.0899 21.169C19.0391 20.9668 18.9073 20.8652 18.8999 20.8533C20.4144 20.1197 21.8488 19.2397 23.1803 18.2273C23.8307 19.4157 23.8842 20.5334 23.3372 21.5557ZM24.7463 15.2094C24.1831 15.7725 23.5767 16.3165 22.9438 16.8263C21.4224 18.0513 19.7479 19.089 17.9614 19.915L12.0852 14.0389C12.9112 12.2522 13.9488 10.5777 15.1737 9.05655C15.684 8.42324 16.228 7.81674 16.7909 7.25387C18.6424 5.40225 21.0321 3.92862 23.8953 2.86788L29.1323 8.10487C28.0717 10.968 26.5981 13.3577 24.7463 15.2094ZM29.582 6.78668L25.2135 2.41819C27.5936 1.67894 29.6641 1.40213 30.6976 1.30263C30.598 2.33631 30.3212 4.40687 29.582 6.78668Z" fill="#43B7FF"/>
<path d="M15.0231 25.8156C14.7789 25.5715 14.3832 25.5716 14.1392 25.8157L12.3717 27.5838C12.1277 27.8279 12.1277 28.2237 12.3718 28.4677C12.616 28.7117 13.0117 28.7117 13.2557 28.4675L15.0232 26.6994C15.2672 26.4553 15.2672 26.0596 15.0231 25.8156Z" fill="#43B7FF"/>
<path d="M6.1845 16.9768C5.9405 16.7327 5.54481 16.7327 5.30063 16.9767L3.53251 18.7442C3.28838 18.9882 3.28832 19.3839 3.53232 19.6281C3.77626 19.8721 4.17194 19.8723 4.41619 19.6282L6.18431 17.8607C6.42844 17.6167 6.4285 17.2209 6.1845 16.9768Z" fill="#43B7FF"/>
<path d="M10.6039 26.6999C10.36 26.4558 9.96419 26.4558 9.72007 26.6998L5.48632 30.933C5.2422 31.177 5.2422 31.5728 5.48626 31.8168C5.7302 32.0609 6.12601 32.061 6.37013 31.8169L10.6039 27.5838C10.848 27.3397 10.848 26.944 10.6039 26.6999Z" fill="#43B7FF"/>
<path d="M5.60394 26.6999C5.35994 26.4558 4.96413 26.4558 4.72007 26.6998L0.486324 30.933C0.242199 31.177 0.242199 31.5728 0.486261 31.8168C0.730198 32.0609 1.12601 32.061 1.37013 31.8169L5.60388 27.5838C5.848 27.3397 5.848 26.944 5.60394 26.6999Z" fill="#43B7FF"/>
<path d="M5.30003 21.3961C5.05603 21.1521 4.66022 21.1521 4.41616 21.3962L0.183039 25.6299C-0.0610233 25.8741 -0.0610233 26.2697 0.183101 26.5139C0.427163 26.7579 0.822912 26.7579 1.06697 26.5138L5.30009 22.2801C5.54415 22.0359 5.54415 21.6403 5.30003 21.3961Z" fill="#43B7FF"/>
<path d="M19.4427 12.5573C19.1986 12.3133 18.8029 12.3133 18.5587 12.5573L17.675 13.4411C17.4309 13.6851 17.4309 14.0809 17.675 14.325C17.9191 14.5691 18.3148 14.5691 18.5589 14.325L19.4427 13.4412C19.6867 13.1972 19.6867 12.8014 19.4427 12.5573Z" fill="#43B7FF"/>
</g>
<defs>
<clipPath id="clip0_47_306">
<rect width="32" height="32" fill="white"/>
</clipPath>
</defs>
</svg>
