<svg width="72" height="73" viewBox="0 0 72 73" fill="none" xmlns="http://www.w3.org/2000/svg">
<path d="M7.10159 49.8748C6.51911 49.8748 6.04688 50.4546 6.04688 51.1697C6.04688 51.8849 6.51911 52.4647 7.10159 52.4647H16.3128C16.8952 52.4647 17.3675 51.8849 17.3675 51.1697C17.3675 50.4546 16.8952 49.8748 16.3128 49.8748H7.10159Z" fill="#43B7FF"/>
<path d="M70.8166 59.3499L66.3757 53.8975L66.3767 10.0814C66.3767 8.89144 65.5882 7.92316 64.6188 7.92316L54.467 7.9223C50.4702 3.22522 44.8545 0.470416 39.2694 0.493553C33.3974 0.493553 28.0533 3.31898 24.0898 7.91971L14.2783 7.9185C13.6958 7.9185 13.2234 8.49812 13.2234 9.21328C13.2234 9.92862 13.6955 10.5082 14.278 10.5084L22.1297 10.5095C21.5471 11.3864 21.0085 12.3089 20.5173 13.2715L2.11027 13.2701V10.5079L9.35602 10.5084C9.9385 10.5084 10.4107 9.92879 10.4107 9.21346C10.4107 8.49812 9.93864 7.9185 9.35602 7.9185L1.75856 7.91798C0.789207 7.91798 0.000703143 8.88609 0.000703143 10.0762L0 58.4174C0 59.6075 0.788504 60.5756 1.75786 60.5756L16.0497 60.5769C16.6321 60.5769 17.1044 59.9972 17.1044 59.2819C17.1044 58.5666 16.6323 57.9869 16.0497 57.9869L2.10943 57.9857L2.11027 15.86L19.3494 15.8614C18.6718 17.5813 18.139 19.402 17.7677 21.2992H7.17206C6.58957 21.2992 6.11734 21.879 6.11734 22.5942V32.9538C6.11734 33.669 6.58957 34.2488 7.17206 34.2488H17.8199C18.0681 35.463 18.383 36.6448 18.7596 37.7884H7.10174C6.51926 37.7884 6.04703 38.3682 6.04703 39.0833C6.04703 39.7985 6.51926 40.3783 7.10174 40.3783H19.7454C20.2702 41.5862 20.8663 42.7406 21.5284 43.8315H7.10174C6.51926 43.8315 6.04703 44.4113 6.04703 45.1265C6.04703 45.8416 6.51926 46.4214 7.10174 46.4214H23.3141C27.3414 51.5778 33.0052 54.7931 39.2695 54.7931C43.1374 54.7931 46.8811 53.5649 50.1782 51.2654L52.2871 53.8546C52.6813 54.3386 53.1991 54.5807 53.7169 54.5807C54.179 54.5807 54.6404 54.3866 55.0146 54.0012L58.2635 57.9904L20.9717 57.9871C20.3892 57.9871 19.9169 58.5667 19.9169 59.2821C19.9169 59.9974 20.389 60.577 20.9717 60.577L25.5739 60.5774L24.6491 64.7195L22.8254 64.719C20.2035 64.719 18.0706 67.3378 18.0706 70.5567V71.1934C18.0706 71.9086 18.5427 72.4884 19.1252 72.4884L47.2505 72.4934H47.2506C47.5303 72.4934 47.7985 72.357 47.9964 72.1142C48.1942 71.8713 48.3053 71.542 48.3053 71.1984V70.5617C48.3053 67.3428 46.1724 64.724 43.5507 64.724L41.7272 64.7235L40.8017 60.5786L60.3732 60.5803L65.0939 66.3764C65.8583 67.3148 66.8745 67.8316 67.9552 67.8316C69.0361 67.8316 70.0523 67.3148 70.8167 66.3764C72.3944 64.4391 72.3944 61.2872 70.8166 59.3499ZM46.1411 69.9033L20.2345 69.8987C20.483 68.4222 21.5501 67.3089 22.825 67.3089L43.5503 67.3139C44.8253 67.3139 45.8926 68.4271 46.1411 69.9033ZM39.5395 64.7231L26.8361 64.72L27.7611 60.5775L38.6142 60.5786L39.5395 64.7231ZM64.2672 13.2751L58.0313 13.2746C57.5437 12.3158 57.0076 11.3928 56.4242 10.5124L64.2672 10.5131V13.2751ZM8.22677 31.6591V23.8893H17.369C17.2301 25.1169 17.1567 26.3698 17.1567 27.6435C17.1567 29.0077 17.2399 30.3484 17.399 31.6591H8.22677ZM19.2661 27.6435C19.2661 14.1011 28.2396 3.08364 39.2695 3.08364C49.1976 3.08364 57.5099 11.8106 59.034 23.8346C59.1236 24.5413 59.6629 25.0256 60.2384 24.9149C60.814 24.8049 61.208 24.1429 61.1183 23.4362C60.7834 20.7949 60.1297 18.2455 59.1943 15.8647L64.2671 15.8652L64.2664 51.3079L60.7376 46.9751C61.043 46.529 61.2103 45.9713 61.2103 45.3816C61.2103 44.7186 60.9999 44.0951 60.6181 43.6262L58.51 41.038C60.1042 37.5927 61.0723 33.7365 61.3192 29.7097C61.363 28.9966 60.9276 28.3749 60.3467 28.3212C59.766 28.2689 59.2596 28.802 59.2157 29.5153C58.4354 42.2375 49.6739 52.2031 39.2695 52.2031C28.2396 52.2033 19.2661 41.1858 19.2661 27.6435ZM52.0025 49.8425C52.8178 49.136 53.599 48.3592 54.3391 47.5126C55.4697 46.2196 56.4764 44.7996 57.3513 43.2781L59.0645 45.3816L53.7169 51.9474L52.0025 49.8425ZM69.3251 64.545C68.9592 64.9942 68.4726 65.2416 67.9552 65.2416C67.4379 65.2416 66.9513 64.9942 66.5854 64.545L56.5124 52.1776L59.252 48.8138L69.3249 61.1812C70.0803 62.1087 70.0803 63.6176 69.3251 64.545Z" fill="#43B7FF"/>
<path d="M39.2693 5.66479C29.3986 5.66479 21.3682 15.5244 21.3682 27.6435C21.3682 34.6432 24.1221 41.2869 28.7347 45.4152C29.2054 45.8366 29.8652 45.7094 30.2084 45.1315C30.5515 44.5536 30.4481 43.7435 29.9773 43.3222C25.9075 39.6796 23.4776 33.8182 23.4776 27.6433C23.4776 16.9523 30.5618 8.25454 39.2693 8.25454C47.9769 8.25454 55.0611 16.9523 55.0611 27.6433C55.0611 38.3343 47.9769 47.0322 39.2693 47.0322C37.4759 47.0322 35.7168 46.6663 34.0409 45.9447C33.491 45.7077 32.8893 46.0634 32.6966 46.7381C32.5038 47.413 32.7932 48.1519 33.3428 48.3886C35.2436 49.2072 37.2374 49.6221 39.2693 49.6221C49.1401 49.6221 57.1705 39.7624 57.1705 27.6433C57.1705 15.5243 49.1402 5.66479 39.2693 5.66479Z" fill="#43B7FF"/>
<path d="M39.7708 24.2984C40.3533 24.2984 40.8255 23.7186 40.8255 23.0035C40.8255 22.2883 40.3533 21.7085 39.7708 21.7085H36.586C36.0035 21.7085 35.5312 22.2883 35.5312 23.0035V32.2835C35.5312 32.9986 36.0035 33.5784 36.586 33.5784H39.7708C40.3533 33.5784 40.8255 32.9986 40.8255 32.2835C40.8255 31.5683 40.3533 30.9885 39.7708 30.9885H37.6407V28.9385H39.5359C40.1184 28.9385 40.5906 28.3587 40.5906 27.6435C40.5906 26.9284 40.1184 26.3486 39.5359 26.3486H37.6407V24.2984H39.7708Z" fill="#43B7FF"/>
<path d="M29.6641 31.0313C28.9341 31.0313 28.2325 30.6713 27.7875 30.0683C27.3964 29.5386 26.7294 29.4982 26.2976 29.9784C25.8659 30.4586 25.8333 31.2775 26.2244 31.8076C27.0752 32.9601 28.3289 33.6212 29.664 33.6212C31.3206 33.6212 32.7124 32.3186 32.9734 30.524C33.1704 29.1686 32.6746 27.4004 30.6913 26.5024C30.0541 26.2175 29.009 25.7496 28.6117 25.4754C28.5006 25.4011 28.4525 25.2679 28.4684 25.0791C28.4905 24.8177 28.6491 24.4883 29.0285 24.3479C30.0489 23.9708 31.0045 24.8916 31.0346 24.9211C31.4805 25.3746 32.1415 25.3022 32.5145 24.7568C32.8893 24.2094 32.8317 23.3926 32.3857 22.9323C32.312 22.8563 30.5556 21.0781 28.42 21.868C27.2901 22.2858 26.4855 23.4416 26.3699 24.8125C26.266 26.0464 26.7382 27.172 27.6027 27.7499C28.0372 28.0575 29.0338 28.5213 29.9612 28.9322C30.2035 29.0419 30.9869 29.4481 30.8966 30.0689C30.8283 30.542 30.3483 31.0313 29.6641 31.0313Z" fill="#43B7FF"/>
<path d="M52.9093 27.6435C52.9093 24.3474 50.7252 21.6658 48.0406 21.6658C45.356 21.6658 43.1719 24.3474 43.1719 27.6435C43.1719 30.9396 45.356 33.6212 48.0406 33.6212C50.7252 33.6212 52.9093 30.9396 52.9093 27.6435ZM45.2813 27.6435C45.2813 25.7755 46.5191 24.2557 48.0406 24.2557C49.562 24.2557 50.7998 25.7755 50.7998 27.6435C50.7998 29.5115 49.562 31.0313 48.0406 31.0313C46.5191 31.0313 45.2813 29.5115 45.2813 27.6435Z" fill="#43B7FF"/>
</svg>
