<svg width="80" height="78" viewBox="0 0 80 78" fill="none" xmlns="http://www.w3.org/2000/svg">
<g clip-path="url(#clip0_46_169)">
<path d="M43.7333 78H36.2667C33.7433 78 31.6133 76.1572 31.3133 73.71L30.5167 67.613C28.9267 67.1093 27.3933 66.4885 25.9367 65.7637L20.9567 69.537C18.9367 71.0612 16.0933 70.8857 14.34 69.1275L9.09 64.0088C7.3 62.3155 7.12 59.5432 8.68333 57.577L12.5533 52.7183C11.8067 51.298 11.17 49.803 10.6567 48.2528L4.39 47.476C1.89 47.177 0 45.1003 0 42.64V35.36C0 32.8997 1.89 30.823 4.4 30.5305L10.6533 29.7537C11.17 28.2035 11.8067 26.7085 12.55 25.2882L8.68333 20.4328C7.11667 18.4633 7.3 15.6878 9.10667 13.9783L14.3567 8.8595C16.0933 7.11425 18.94 6.942 20.9533 8.463L25.9333 12.2395C27.39 11.5148 28.9233 10.894 30.5167 10.3903L31.3133 4.28025C31.6133 1.84275 33.7433 0 36.2667 0H43.7333C46.2567 0 48.3867 1.84275 48.6867 4.29L49.4833 10.387C51.0767 10.8907 52.61 11.5115 54.0667 12.2362L59.0467 8.463C61.07 6.93875 63.91 7.11425 65.6633 8.87575L70.9133 13.9945C72.7033 15.6878 72.8833 18.46 71.32 20.4263L67.45 25.285C68.1967 26.7052 68.8333 28.2003 69.3467 29.7505L75.6133 30.5272C78.11 30.823 80 32.8997 80 35.36V42.64C80 45.1003 78.11 47.177 75.6 47.4695L69.3467 48.2463C68.83 49.7965 68.1933 51.2915 67.45 52.7118L71.32 57.5672C72.8867 59.5367 72.7033 62.309 70.8967 64.0185L65.6467 69.1373C63.91 70.8825 61.0633 71.0612 59.05 69.5338L54.0667 65.7605C52.61 66.4885 51.0767 67.1092 49.4867 67.6097L48.69 73.7197C48.3867 76.1572 46.2567 78 43.7333 78ZM25.7667 62.205C26.0433 62.205 26.3267 62.2732 26.58 62.4097C28.4167 63.4107 30.4067 64.2168 32.4933 64.8018C33.1333 64.9805 33.6033 65.5135 33.6867 66.157L34.62 73.307C34.72 74.1227 35.4433 74.75 36.2667 74.75H43.7333C44.5567 74.75 45.28 74.1227 45.3767 73.3232L46.3133 66.1602C46.3967 65.5168 46.8667 64.9837 47.5067 64.805C49.5933 64.22 51.5833 63.414 53.42 62.413C54.0033 62.0945 54.73 62.1497 55.2533 62.5495L61.0867 66.9695C61.7567 67.4765 62.6967 67.4342 63.27 66.859L68.5533 61.7077C69.1567 61.1357 69.2033 60.2192 68.6833 59.5627L64.15 53.8752C63.74 53.3617 63.6833 52.6565 64.01 52.0878C65.0367 50.297 65.8633 48.3568 66.4633 46.3223C66.6467 45.6982 67.1933 45.24 67.8533 45.1588L75.1867 44.2487C76.0233 44.148 76.6667 43.4427 76.6667 42.64V35.36C76.6667 34.5573 76.0233 33.852 75.2033 33.7578L67.8567 32.8445C67.1967 32.7632 66.65 32.305 66.4667 31.681C65.8667 29.6465 65.04 27.7062 64.0133 25.9155C63.6867 25.3468 63.74 24.6415 64.1533 24.128L68.6867 18.4405C69.21 17.784 69.1633 16.8675 68.5767 16.315L63.2933 11.1637C62.71 10.5722 61.7667 10.5267 61.0933 11.037L55.26 15.457C54.73 15.8568 54.0067 15.912 53.4233 15.5935C51.5933 14.5925 49.6033 13.7897 47.51 13.2015C46.87 13.0227 46.4 12.4897 46.3167 11.8462L45.3833 4.69625C45.28 3.87725 44.5567 3.25 43.7333 3.25H36.2667C35.4433 3.25 34.72 3.87725 34.6233 4.67675L33.6867 11.8397C33.6033 12.4832 33.1333 13.0162 32.4933 13.1982C30.4 13.7832 28.41 14.5892 26.58 15.587C25.9967 15.9087 25.2733 15.8503 24.7433 15.4538L18.91 11.0337C18.2367 10.5235 17.3 10.569 16.73 11.141L11.4467 16.2955C10.8433 16.8675 10.7967 17.784 11.3167 18.4405L15.85 24.128C16.26 24.6415 16.3167 25.3468 15.99 25.9155C14.96 27.7062 14.1367 29.6465 13.5367 31.681C13.3533 32.305 12.8067 32.7632 12.1467 32.8445L4.81333 33.7545C3.97667 33.852 3.33333 34.5573 3.33333 35.36V42.64C3.33333 43.4427 3.97667 44.148 4.79667 44.2422L12.1433 45.1555C12.8033 45.2368 13.35 45.695 13.5333 46.319C14.1333 48.3535 14.96 50.2937 15.9867 52.0845C16.3133 52.6532 16.26 53.3585 15.8467 53.872L11.3133 59.5595C10.79 60.216 10.8367 61.1325 11.4233 61.685L16.7067 66.8363C17.29 67.4245 18.2267 67.47 18.9067 66.963L24.74 62.543C25.0433 62.322 25.4033 62.205 25.7667 62.205Z" fill="black"/>
<path d="M39.9999 55.25C30.8099 55.25 23.3333 47.9603 23.3333 39C23.3333 30.0398 30.8099 22.75 39.9999 22.75C49.1899 22.75 56.6666 30.0398 56.6666 39C56.6666 47.9603 49.1899 55.25 39.9999 55.25ZM39.9999 26C32.6466 26 26.6666 31.8305 26.6666 39C26.6666 46.1695 32.6466 52 39.9999 52C47.3533 52 53.3333 46.1695 53.3333 39C53.3333 31.8305 47.3533 26 39.9999 26Z" fill="black"/>
</g>
<defs>
<clipPath id="clip0_46_169">
<rect width="80" height="78" fill="white"/>
</clipPath>
</defs>
</svg>
