<svg width="110" height="110" viewBox="0 0 110 110" fill="none" xmlns="http://www.w3.org/2000/svg">
<g clip-path="url(#clip0_49_780)">
<path d="M60.1333 110H49.8667C46.3971 110 43.4683 107.401 43.0558 103.95L41.9604 95.3517C39.7742 94.6413 37.6658 93.7658 35.6629 92.7438L28.8154 98.065C26.0379 100.215 22.1283 99.9671 19.7175 97.4875L12.4988 90.2688C10.0375 87.8808 9.79 83.9713 11.9396 81.1983L17.2608 74.3463C16.2342 72.3433 15.3588 70.235 14.6529 68.0488L6.03625 66.9533C2.59875 66.5317 0 63.6029 0 60.1333V49.8667C0 46.3971 2.59875 43.4683 6.05 43.0558L14.6483 41.9604C15.3588 39.7742 16.2342 37.6658 17.2563 35.6629L11.9396 28.8154C9.78542 26.0379 10.0375 22.1238 12.5217 19.7129L19.7404 12.4942C22.1283 10.0329 26.0425 9.79 28.8108 11.935L35.6583 17.2608C37.6613 16.2388 39.7696 15.3633 41.9604 14.6529L43.0558 6.03625C43.4683 2.59875 46.3971 0 49.8667 0H60.1333C63.6029 0 66.5317 2.59875 66.9442 6.05L68.0396 14.6483C70.2304 15.3588 72.3388 16.2342 74.3417 17.2563L81.1892 11.935C83.9713 9.78542 87.8763 10.0329 90.2871 12.5171L97.5058 19.7358C99.9671 22.1238 100.215 26.0333 98.065 28.8062L92.7438 35.6583C93.7704 37.6613 94.6458 39.7696 95.3517 41.9558L103.968 43.0513C107.401 43.4683 110 46.3971 110 49.8667V60.1333C110 63.6029 107.401 66.5317 103.95 66.9442L95.3517 68.0396C94.6413 70.2258 93.7658 72.3342 92.7438 74.3371L98.065 81.1846C100.219 83.9621 99.9671 87.8717 97.4829 90.2825L90.2642 97.5013C87.8763 99.9625 83.9621 100.215 81.1938 98.0604L74.3417 92.7392C72.3388 93.7658 70.2304 94.6413 68.0442 95.3471L66.9488 103.964C66.5317 107.401 63.6029 110 60.1333 110ZM35.4292 87.725C35.8096 87.725 36.1992 87.8213 36.5475 88.0137C39.0729 89.4254 41.8092 90.5621 44.6783 91.3871C45.5583 91.6392 46.2046 92.3908 46.3192 93.2983L47.6025 103.382C47.74 104.532 48.7346 105.417 49.8667 105.417H60.1333C61.2654 105.417 62.26 104.532 62.3929 103.405L63.6808 93.3029C63.7954 92.3954 64.4417 91.6438 65.3217 91.3917C68.1908 90.5667 70.9271 89.43 73.4525 88.0183C74.2546 87.5692 75.2538 87.6471 75.9733 88.2108L83.9942 94.4442C84.9154 95.1592 86.2079 95.0996 86.9963 94.2883L94.2608 87.0238C95.0904 86.2171 95.1546 84.9246 94.4396 83.9987L88.2063 75.9779C87.6425 75.2538 87.5646 74.2592 88.0137 73.4571C89.4254 70.9317 90.5621 68.1954 91.3871 65.3263C91.6392 64.4463 92.3908 63.8 93.2983 63.6854L103.382 62.4021C104.532 62.26 105.417 61.2654 105.417 60.1333V49.8667C105.417 48.7346 104.532 47.74 103.405 47.6071L93.3029 46.3192C92.3954 46.2046 91.6438 45.5583 91.3917 44.6783C90.5667 41.8092 89.43 39.0729 88.0183 36.5475C87.5692 35.7454 87.6425 34.7508 88.2108 34.0267L94.4442 26.0058C95.1638 25.08 95.0996 23.7875 94.2929 23.0083L87.0283 15.7438C86.2263 14.9096 84.9292 14.8454 84.0033 15.565L75.9825 21.7983C75.2537 22.3621 74.2592 22.44 73.4571 21.9908C70.9408 20.5792 68.2046 19.4471 65.3263 18.6175C64.4463 18.3654 63.8 17.6138 63.6854 16.7063L62.4021 6.62292C62.26 5.46792 61.2654 4.58333 60.1333 4.58333H49.8667C48.7346 4.58333 47.74 5.46792 47.6071 6.59542L46.3192 16.6971C46.2046 17.6046 45.5583 18.3563 44.6783 18.6129C41.8 19.4379 39.0638 20.5746 36.5475 21.9817C35.7454 22.4354 34.7508 22.3529 34.0221 21.7938L26.0012 15.5604C25.0754 14.8408 23.7875 14.905 23.0038 15.7117L15.7392 22.9808C14.9096 23.7875 14.8454 25.08 15.5604 26.0058L21.7938 34.0267C22.3575 34.7508 22.4354 35.7454 21.9862 36.5475C20.57 39.0729 19.4379 41.8092 18.6129 44.6783C18.3608 45.5583 17.6092 46.2046 16.7017 46.3192L6.61833 47.6025C5.46792 47.74 4.58333 48.7346 4.58333 49.8667V60.1333C4.58333 61.2654 5.46792 62.26 6.59542 62.3929L16.6971 63.6808C17.6046 63.7954 18.3563 64.4417 18.6083 65.3217C19.4333 68.1908 20.57 70.9271 21.9817 73.4525C22.4308 74.2546 22.3575 75.2492 21.7892 75.9733L15.5558 83.9942C14.8363 84.92 14.9004 86.2125 15.7071 86.9917L22.9717 94.2563C23.7738 95.0858 25.0617 95.15 25.9967 94.435L34.0175 88.2017C34.4346 87.89 34.9296 87.725 35.4292 87.725Z" fill="#E12213"/>
<path d="M55.0002 77.9166C42.3639 77.9166 32.0835 67.6362 32.0835 54.9999C32.0835 42.3637 42.3639 32.0833 55.0002 32.0833C67.6364 32.0833 77.9168 42.3637 77.9168 54.9999C77.9168 67.6362 67.6364 77.9166 55.0002 77.9166ZM55.0002 36.6666C44.8893 36.6666 36.6668 44.8891 36.6668 54.9999C36.6668 65.1107 44.8893 73.3332 55.0002 73.3332C65.111 73.3332 73.3335 65.1107 73.3335 54.9999C73.3335 44.8891 65.111 36.6666 55.0002 36.6666Z" fill="#E12213"/>
</g>
<defs>
<clipPath id="clip0_49_780">
<rect width="110" height="110" fill="white"/>
</clipPath>
</defs>
</svg>
