<svg width="68" height="68" viewBox="0 0 68 68" fill="none" xmlns="http://www.w3.org/2000/svg">
<g clip-path="url(#clip0_19_200)">
<path d="M62.4958 17.5089C62.4608 15.673 62.4275 13.9386 62.4275 12.2608C62.4275 10.9463 61.3622 9.88058 60.0474 9.88058C49.8681 9.88058 42.118 6.95519 35.6579 0.674068C34.7337 -0.224685 33.2631 -0.224368 32.3393 0.674068C25.8798 6.95519 18.1309 9.88058 7.95231 9.88058C6.63782 9.88058 5.57214 10.9463 5.57214 12.2608C5.57214 13.9389 5.53913 15.6739 5.50391 17.5102C5.17766 34.5954 4.73083 57.9944 33.219 67.8689C33.4716 67.9565 33.735 68.0003 33.9984 68.0003C34.2618 68.0003 34.5255 67.9565 34.7778 67.8689C63.2682 57.9941 62.822 34.5944 62.4958 17.5089ZM33.9987 63.0943C9.56639 54.2188 9.93579 34.7759 10.2636 17.6009C10.2833 16.5701 10.3023 15.5711 10.3157 14.5917C19.8491 14.1893 27.4726 11.3004 33.9987 5.61531C40.5255 11.3004 48.1503 14.1897 57.6843 14.5917C57.6976 15.5708 57.7167 16.5692 57.7364 17.5993C58.0639 34.775 58.433 54.2185 33.9987 63.0943Z" fill="#E12213"/>
<path d="M42.1951 25.7319L30.7071 37.2193L25.8049 32.3171C24.8754 31.3878 23.3683 31.3878 22.439 32.3171C21.5095 33.2469 21.5095 34.7537 22.439 35.6833L29.0242 42.2684C29.4888 42.733 30.0981 42.9653 30.7071 42.9653C31.3161 42.9653 31.9255 42.733 32.3901 42.2684L45.5607 29.0981C46.4905 28.1686 46.4905 26.6614 45.561 25.7322C44.6318 24.8027 43.1247 24.8024 42.1951 25.7319Z" fill="#E12213"/>
</g>
<defs>
<clipPath id="clip0_19_200">
<rect width="68" height="68" fill="white"/>
</clipPath>
</defs>
</svg>
