<svg width="32" height="32" viewBox="0 0 32 32" fill="none" xmlns="http://www.w3.org/2000/svg">
<path d="M16.0001 4.13599C12.3089 4.13599 8.96166 5.63295 6.5303 8.05023C6.51974 8.05951 6.5063 8.06271 6.49638 8.07263C6.48646 8.08255 6.48326 8.09599 6.47398 8.10655C4.05702 10.5376 2.56006 13.8848 2.56006 17.576C2.56006 20.8227 3.73286 23.9565 5.86374 26.4016C6.12294 26.7001 6.57222 26.7321 6.87142 26.4784L9.68006 24.0989C9.98822 23.8393 10.0218 23.375 9.75494 23.0733C8.41606 21.5545 7.67942 19.6016 7.67942 17.5757C7.67942 12.9875 11.4116 9.25535 15.9997 9.25535C17.9095 9.25535 19.7761 9.91903 21.2535 11.1229C21.9885 11.7229 22.9015 10.6089 22.1629 10.0073C20.6157 8.74559 18.7053 7.99455 16.7197 7.84671V5.61215C23.0013 5.98783 28.0001 11.2022 28.0001 17.576C28.0001 20.2329 27.1197 22.8073 25.5073 24.8989L23.7927 23.4531C25.0666 21.7657 25.7604 19.7059 25.7604 17.576C25.7604 16.6291 25.6244 15.6915 25.3562 14.7888C25.0817 13.8694 23.7073 14.2947 23.9761 15.1993C24.2039 15.968 24.3201 16.7677 24.3201 17.576C24.3201 19.6009 23.5841 21.5529 22.2471 23.0707C21.9818 23.3705 22.0116 23.8349 22.3229 24.0973L25.1364 26.4701C25.4365 26.7241 25.8865 26.6886 26.1431 26.3923C28.2692 23.9491 29.4401 20.8179 29.4401 17.576C29.4401 10.1651 23.4109 4.13599 16.0001 4.13599ZM9.63526 10.1923L8.05222 8.60959C10.0026 6.87871 12.5143 5.77759 15.2801 5.61215V7.85183C13.1306 8.01023 11.1751 8.86303 9.63526 10.1923ZM8.21126 23.4569L6.49926 24.9072C5.0295 23.0035 4.17414 20.6985 4.02982 18.296H6.26918C6.40742 20.1683 7.07974 21.9593 8.21126 23.4569ZM6.27622 16.856H4.03654C4.20198 14.0899 5.3031 11.5782 7.03398 9.62783L8.61702 11.2102C7.28742 12.7504 6.4343 14.7062 6.27622 16.856Z" fill="#43B7FF"/>
<path d="M17.6295 21.2407C18.3073 20.562 23.9156 13.208 24.553 12.3719C25.0458 11.7248 24.2462 10.8884 23.5809 11.337C22.1351 12.2999 14.8874 17.1402 14.2078 17.8199C13.2647 18.7629 13.2647 20.2976 14.2078 21.2407C15.1489 22.1818 16.6842 22.1856 17.6295 21.2407ZM15.2257 18.8378C15.5406 18.5274 18.1018 16.7632 20.7457 14.9744C18.7994 17.5037 16.9255 19.9076 16.6113 20.2224C15.6951 21.1389 14.3092 19.7543 15.2257 18.8378Z" fill="#43B7FF"/>
<path d="M13.5223 25.136H18.4779C19.4308 25.136 19.4308 23.696 18.4779 23.696H13.5223C12.5694 23.696 12.5694 25.136 13.5223 25.136Z" fill="#43B7FF"/>
<path d="M22.0601 26.4241H9.94006C8.9871 26.4241 8.9871 27.8641 9.94006 27.8641H22.0601C23.0127 27.8641 23.0127 26.4241 22.0601 26.4241Z" fill="#43B7FF"/>
</svg>
