<svg width="33" height="32" viewBox="0 0 33 32" fill="none" xmlns="http://www.w3.org/2000/svg">
<g clip-path="url(#clip0_17_286)">
<path d="M26.636 27.871L25.4411 24.286C25.0236 23.0343 23.9583 22.1105 22.6597 21.8741L19.2104 21.2465V20.9791C19.8107 20.6307 20.333 20.1647 20.749 19.6129H21.7911C22.6447 19.6129 23.3395 18.9182 23.3395 18.0645V11.871C23.3395 8.17138 20.3294 5.16132 16.6298 5.16132C12.9302 5.16132 9.9201 8.17138 9.9201 11.871V15.4839C9.9201 16.479 10.6277 17.3115 11.566 17.5056C11.8556 18.9889 12.7826 20.2442 14.0491 20.9791V21.2465L10.5993 21.8741C9.30126 22.1105 8.23546 23.0343 7.81842 24.286L7.61197 24.9058L5.85404 23.1479C5.65275 22.9466 5.65275 22.6189 5.85404 22.4176L7.89275 20.3794L4.06617 16.5528L1.76217 18.8568C1.07984 19.5391 0.704102 20.4465 0.704102 21.4116C0.704102 22.3768 1.07984 23.2836 1.76217 23.966L8.73765 30.9414C9.41997 31.6238 10.3273 32 11.2925 32C12.2576 32 13.1645 31.6238 13.8308 30.9569L16.3449 28.6534L15.5609 27.871H26.636ZM22.3072 18.0645C22.3072 18.3494 22.0755 18.5807 21.7911 18.5807H21.357C21.5067 18.2395 21.6202 17.8798 21.6935 17.5056C21.9144 17.4596 22.1178 17.3719 22.3072 17.2614V18.0645ZM21.7911 16.3727V14.5951C22.0982 14.7742 22.3072 15.1035 22.3072 15.4839C22.3072 15.8643 22.0982 16.1936 21.7911 16.3727ZM11.4685 16.3727C11.1614 16.1936 10.9524 15.8643 10.9524 15.4839C10.9524 15.1035 11.1614 14.7742 11.4685 14.5951V16.3727ZM11.4685 12.9033V13.4927C11.2847 13.5407 11.1124 13.6129 10.9524 13.7063V11.871C10.9524 8.74067 13.4995 6.19357 16.6298 6.19357C19.7601 6.19357 22.3072 8.74067 22.3072 11.871V13.7063C22.1472 13.6129 21.9748 13.5402 21.7911 13.4927V12.9033H21.2749C19.7487 12.9033 18.3139 12.3087 17.2342 11.2294L16.6298 10.6251L16.0254 11.2294C14.9456 12.3087 13.5108 12.9033 11.9846 12.9033H11.4685ZM12.5007 16.5162V13.9159C14.0507 13.7993 15.4958 13.1598 16.6298 12.0816C17.7637 13.1598 19.2089 13.7998 20.7588 13.9159V16.5162C20.7588 17.2687 20.5534 17.9727 20.2004 18.5807H16.6298V19.6129H19.3518C18.6241 20.2534 17.6729 20.6452 16.6298 20.6452C14.3531 20.6452 12.5007 18.7928 12.5007 16.5162ZM18.1782 21.4395V21.4638L16.6298 23.0122L15.0814 21.4638V21.4395C15.5707 21.5933 16.0904 21.6774 16.6298 21.6774C17.1691 21.6774 17.6889 21.5933 18.1782 21.4395ZM8.797 24.6122C9.09481 23.7182 9.8561 23.0581 10.7836 22.8888L14.3913 22.2333L16.6298 24.4718L18.8677 22.2338L22.4749 22.8893C23.4024 23.0586 24.1637 23.7182 24.4615 24.6127L25.2042 26.8387H14.5286L12.5183 24.8284L10.2845 26.8491C10.0899 27.0447 9.74978 27.0447 9.55468 26.8491L8.42746 25.7218L8.797 24.6122ZM4.06565 18.0124L6.43262 20.3794L5.8721 20.9399L3.50513 18.5729L4.06565 18.0124ZM13.116 30.2127C12.6287 30.6989 11.9805 30.9678 11.2915 30.9678C10.6024 30.9678 9.95417 30.6989 9.46642 30.2116L2.49094 23.2367C2.00371 22.7494 1.73533 22.1012 1.73533 21.4122C1.73533 20.7226 2.00371 20.0743 2.49094 19.5871L2.77481 19.3033L5.14178 21.6702L5.1232 21.6888C4.51984 22.2927 4.51984 23.2749 5.1232 23.8787L8.82436 27.5799C9.117 27.872 9.50565 28.0336 9.91959 28.0336C10.3335 28.0336 10.7222 27.8725 10.9957 27.598L11.0344 27.5634L13.4122 29.9412L13.116 30.2127ZM14.174 29.2423L11.8014 26.8697L12.4832 26.2534L14.8517 28.622L14.174 29.2423Z" fill="white"/>
<path d="M31.0813 0H23.8555C23.0018 0 22.3071 0.69471 22.3071 1.54839V5.67742C22.3071 6.5311 23.0018 7.22581 23.8555 7.22581H25.2341L24.7004 10.3386L29.6811 7.22581H31.0813C31.935 7.22581 32.6297 6.5311 32.6297 5.67742V1.54839C32.6297 0.69471 31.935 0 31.0813 0ZM31.5975 5.67742C31.5975 5.96181 31.3657 6.19355 31.0813 6.19355H29.3848L26.1069 8.24207L26.4584 6.19355H23.8555C23.5711 6.19355 23.3394 5.96181 23.3394 5.67742V1.54839C23.3394 1.264 23.5711 1.03226 23.8555 1.03226H31.0813C31.3657 1.03226 31.5975 1.264 31.5975 1.54839V5.67742Z" fill="white"/>
<path d="M30.5651 2.06451H24.3716V3.09677H30.5651V2.06451Z" fill="white"/>
<path d="M28.5006 4.12903H24.3716V5.16129H28.5006V4.12903Z" fill="white"/>
<path d="M30.565 4.12903H29.5327V5.16129H30.565V4.12903Z" fill="white"/>
<path d="M16.6298 1.5484C9.88606 1.5484 4.07703 6.21317 2.56684 12.72L1.58877 11.0896L0.703613 11.6207L2.51781 14.6436L5.54077 12.8294L5.00968 11.9443L3.61097 12.7835C5.07368 6.83098 10.4265 2.58066 16.6298 2.58066C17.9857 2.58066 19.3235 2.78195 20.6061 3.17937L20.9116 2.19356C19.5299 1.76518 18.0894 1.5484 16.6298 1.5484Z" fill="white"/>
<path d="M32.379 11.4281L29.356 9.61395L27.5423 12.6374L28.4275 13.1685L29.3307 11.663C29.8061 13.054 30.0492 14.5089 30.0492 16C30.0492 19.0694 28.986 22.0702 27.0562 24.449L27.8577 25.0994C29.9367 22.5373 31.0814 19.3053 31.0814 16C31.0814 14.4212 30.827 12.8795 30.331 11.4034L31.8479 12.3133L32.379 11.4281Z" fill="white"/>
</g>
<defs>
<clipPath id="clip0_17_286">
<rect width="32" height="32" fill="white" transform="translate(0.666504)"/>
</clipPath>
</defs>
</svg>
