<svg width="41" height="40" viewBox="0 0 41 40" fill="none" xmlns="http://www.w3.org/2000/svg">
<path fill-rule="evenodd" clip-rule="evenodd" d="M13.8018 39.0206C13.8018 39.0206 14.8749 38.8161 16.0507 38.5606C17.2261 38.305 18.197 38.7651 19.6792 38.7651C21.1614 38.7651 17.7883 36.9763 20.8036 36.7717C23.8188 36.5674 24.7387 36.1583 27.4986 36.1074C30.2584 36.0563 32.0285 36.4253 32.7438 35.9143C33.4591 35.4034 35.4709 33.1432 34.9601 33.0409C34.4493 32.9386 31.2294 34.063 31.8937 32.5298C32.5582 30.9968 34.398 29.7701 34.398 29.4634C34.398 29.1568 35.7272 28.2877 34.8073 26.9589C33.8874 25.6303 32.0477 25.9877 31.792 26.039C31.5364 26.0902 29.7988 26.9078 30.1054 25.6302C30.4122 24.3524 30.3101 22.8192 29.7479 22.308C29.1857 21.797 28.7767 19.3948 27.8568 18.9349C26.9368 18.475 25.9147 17.504 25.8636 16.6863C25.8126 15.8685 24.4326 13.364 23.8705 13.0576C23.3083 12.751 22.0817 12.4956 22.0817 12.4956C22.0817 12.4956 21.6227 12.0224 22.3637 10.5146C23.1046 9.00688 23.999 7.75494 24.1013 7.42263C24.2035 7.09031 25.0211 5.35267 23.5902 5.19942C22.1592 5.04618 20.8048 5.09726 20.4214 5.25051C20.0383 5.40375 19.0416 5.86377 19.0416 5.86377C19.0416 5.86377 18.505 5.09726 19.2463 4.17722C19.9872 3.25717 20.7542 3.51259 21.163 2.33713C21.5716 1.16154 21.5716 1.00829 21.5716 1.00829C21.5716 1.00829 20.8051 1.21276 19.6041 1.16168C18.4031 1.1106 17.8152 0.829361 17.3552 1.08491C16.8955 1.34046 16.3587 2.23497 16.1288 2.54146C15.8988 2.84809 15.5666 4.10031 15.2345 4.6625C14.9022 5.22468 15.2345 7.09003 14.8511 6.93678C14.4678 6.78339 13.5479 4.6625 12.8323 5.199C12.1169 5.73579 11.9892 6.16999 12.3469 6.47662C12.7046 6.78325 13.9569 8.11209 14.0846 8.54658C14.2123 8.98091 13.5094 10.1948 13.5094 10.8845C13.5094 11.5744 14.9253 11.8047 14.8185 12.2737C14.7481 12.5823 14.5673 13.6295 14.5962 14.5147C14.6233 15.3536 14.8391 16.0473 15.5158 15.8286C15.9502 15.6882 16.5762 16.1352 16.589 16.2886C16.6018 16.442 16.4486 18.2559 16.6529 18.3837C16.8572 18.5114 19.3359 17.6683 19.5149 17.8217C19.6939 17.975 19.4637 18.7928 20.0516 19.789C20.6393 20.7857 21.3041 20.7858 21.5339 21.4246C21.7641 22.0634 21.2019 23.4434 21.2019 23.7499C21.2019 24.0566 21.8664 24.6445 20.8951 24.6188C19.9241 24.5933 18.5187 23.852 18.0077 23.9545C17.4965 24.0565 17.1131 25.0275 17.3688 25.2321C17.6243 25.4364 18.8507 25.4361 18.3654 27.2505C17.88 29.0651 17.6757 29.2948 16.8323 29.8059C15.989 30.317 14.7625 31.7993 15.3246 32.0291C15.8868 32.2591 16.8069 31.6714 17.8034 32.4124C18.8001 33.1534 21.0741 33.46 21.0741 33.46C21.0741 33.46 18.0873 34.058 17.6816 34.5331C17.2759 35.0084 16.9629 36.2584 15.8387 36.6927C14.7142 37.1277 13.2547 38.2393 13.8018 39.0206Z" fill="#EDA708"/>
<path fill-rule="evenodd" clip-rule="evenodd" d="M11.2738 16.4024C11.2738 16.4024 12.8579 16.9389 13.088 17.7055C13.318 18.4722 14.0335 20.1075 14.0335 20.4909C14.0335 20.8743 13.7779 21.002 12.8836 21.8453C11.9892 22.6886 10.9413 21.8964 10.2771 21.5131C9.61275 21.1299 9.3318 22.0498 8.30959 22.2541C7.28739 22.4586 5.75407 22.1775 5.62637 21.4108C5.49866 20.6442 5.34528 20.1075 6.39302 19.3155C7.44077 18.5233 7.82403 16.99 8.15621 16.5045C8.48838 16.0191 9.8683 16.1214 10.2517 16.1468C10.6347 16.1722 11.2738 16.4024 11.2738 16.4024Z" fill="#EDA708"/>
</svg>
