<svg width="64" height="64" viewBox="0 0 64 64" fill="none" xmlns="http://www.w3.org/2000/svg">
<path d="M47.7866 17.6533C47.516 17.0017 46.9982 16.4839 46.3466 16.2133C46.026 16.0767 45.6818 16.0042 45.3333 16H18.6666C17.9594 16 17.2811 16.281 16.781 16.781C16.2809 17.2811 16 17.9594 16 18.6667C16 19.3739 16.2809 20.0522 16.781 20.5523C17.2811 21.0524 17.9594 21.3333 18.6666 21.3333H38.9066L16.7733 43.44C16.5234 43.6879 16.325 43.9828 16.1896 44.3078C16.0542 44.6328 15.9845 44.9813 15.9845 45.3333C15.9845 45.6854 16.0542 46.0339 16.1896 46.3589C16.325 46.6838 16.5234 46.9788 16.7733 47.2267C17.0212 47.4766 17.3161 47.675 17.6411 47.8104C17.966 47.9458 18.3146 48.0155 18.6666 48.0155C19.0187 48.0155 19.3672 47.9458 19.6922 47.8104C20.0171 47.675 20.3121 47.4766 20.56 47.2267L42.6666 25.0933V45.3333C42.6666 46.0406 42.9476 46.7189 43.4477 47.219C43.9478 47.719 44.626 48 45.3333 48C46.0405 48 46.7188 47.719 47.2189 47.219C47.719 46.7189 48 46.0406 48 45.3333V18.6667C47.9957 18.3182 47.9233 17.9739 47.7866 17.6533Z" fill="#E12213"/>
</svg>
