<svg width="64" height="64" viewBox="0 0 64 64" fill="none" xmlns="http://www.w3.org/2000/svg">
<path d="M47.7865 17.6533C47.5159 17.0017 46.9981 16.4839 46.3465 16.2133C46.0259 16.0767 45.6816 16.0042 45.3332 16H18.6665C17.9593 16 17.281 16.281 16.7809 16.781C16.2808 17.2811 15.9998 17.9594 15.9998 18.6667C15.9998 19.3739 16.2808 20.0522 16.7809 20.5523C17.281 21.0524 17.9593 21.3333 18.6665 21.3333H38.9065L16.7732 43.44C16.5232 43.6879 16.3248 43.9828 16.1895 44.3078C16.0541 44.6328 15.9844 44.9813 15.9844 45.3333C15.9844 45.6854 16.0541 46.0339 16.1895 46.3589C16.3248 46.6838 16.5232 46.9788 16.7732 47.2267C17.0211 47.4766 17.316 47.675 17.641 47.8104C17.9659 47.9458 18.3145 48.0155 18.6665 48.0155C19.0185 48.0155 19.3671 47.9458 19.692 47.8104C20.017 47.675 20.3119 47.4766 20.5598 47.2267L42.6665 25.0933V45.3333C42.6665 46.0406 42.9475 46.7189 43.4475 47.219C43.9476 47.719 44.6259 48 45.3332 48C46.0404 48 46.7187 47.719 47.2188 47.219C47.7189 46.7189 47.9998 46.0406 47.9998 45.3333V18.6667C47.9956 18.3182 47.9231 17.9739 47.7865 17.6533V17.6533Z" fill="#EDA708"/>
</svg>
