<svg width="80" height="78" viewBox="0 0 80 78" fill="none" xmlns="http://www.w3.org/2000/svg">
<path d="M68.4 29.7712C70.6752 27.5986 72 24.6308 72 21.45C72 14.9989 66.6172 9.75 60 9.75C57.8138 9.75 55.6628 10.3359 53.7773 11.4448C53.1472 11.8162 52.9441 12.6147 53.3242 13.2298C53.7044 13.845 54.5247 14.0411 55.155 13.6716C56.625 12.8071 58.2995 12.3501 60 12.3501C65.1458 12.3501 69.3333 16.4323 69.3333 21.45C69.3333 24.54 67.7461 27.3882 65.082 29.0728C62.845 30.5036 60.0091 30.9162 57.4192 30.197C56.7188 30.0001 55.9739 30.3988 55.7708 31.0894C55.5689 31.78 55.9791 32.4992 56.6875 32.6966C57.7656 32.9975 58.8802 33.1498 60 33.1498C62.0966 33.1498 64.1231 32.5923 65.9223 31.5853C72.767 34.0034 77.3333 40.3042 77.3333 47.4499V53.9499H65.1752C64.2308 45.267 58.628 37.6687 50.4556 34.0607C53.0562 31.4791 54.6666 27.9459 54.6666 24.0501C54.6667 16.1649 48.0872 9.75 40 9.75C31.9128 9.75 25.3333 16.1649 25.3333 24.0501C25.3333 27.9472 26.9445 31.4814 29.5466 34.0633C26.7963 35.2816 24.2455 36.986 22.082 39.0833C17.9347 43.1386 15.4109 48.3434 14.8119 53.9503H2.66672V47.4502C2.66672 42.9484 4.47016 38.7038 7.73969 35.5026C9.53953 33.7589 11.7308 32.4287 14.0902 31.5926C15.8897 32.5955 17.9102 33.15 20 33.15C21.1198 33.15 22.2344 32.9977 23.3125 32.6968C24.0208 32.4993 24.4309 31.7801 24.2292 31.0896C24.0261 30.399 23.2812 30.0009 22.5808 30.1971C19.9922 30.9176 17.1577 30.5056 14.9116 29.0698C12.2541 27.3882 10.6667 24.5401 10.6667 21.45C10.6667 16.4323 14.8542 12.3501 20 12.3501C21.7005 12.3501 23.375 12.8071 24.845 13.6716C25.4778 14.0411 26.2942 13.843 26.6758 13.2298C27.0559 12.6148 26.8528 11.8162 26.2227 11.4448C24.3372 10.3359 22.1863 9.75 20 9.75C13.3828 9.75 8 14.9989 8 21.45C8 24.6283 9.32266 27.5939 11.5912 29.7645C9.47672 30.7229 7.52375 32.046 5.85422 33.6629C2.07937 37.3597 0 42.2557 0 47.4501V55.25C0 55.968 0.596406 56.55 1.33328 56.55H14.6666V66.9501C14.6666 67.668 15.263 68.25 15.9998 68.25H63.9998C64.7369 68.25 65.3331 67.6679 65.3331 66.9501V56.55H78.6664C79.4034 56.55 79.9997 55.9679 79.9997 55.25V47.4501C80 39.7635 75.4184 32.9258 68.4 29.7712ZM28 24.0501C28 17.5989 33.3828 12.3501 40 12.3501C46.6172 12.3501 52 17.5989 52 24.0501C52 30.5012 46.6172 35.7501 40 35.7501C33.3828 35.7501 28 30.501 28 24.0501ZM62.6667 65.65H17.3333V56.55C17.3333 50.6555 19.69 45.1046 23.9661 40.9227C26.2188 38.7381 28.9497 37.0436 31.8777 35.9473C34.205 37.4627 36.9975 38.3499 40 38.3499C43.0075 38.3499 45.8048 37.4601 48.1344 35.9402C56.8497 39.2051 62.6667 47.3972 62.6667 56.55V65.65Z" fill="black"/>
</svg>
