<svg width="50" height="50" viewBox="0 0 50 50" fill="none" xmlns="http://www.w3.org/2000/svg">
<path d="M20.5092 26.6517C20.6394 27.0934 21.0053 27.3802 21.4071 27.4831C21.8094 27.5861 22.275 27.5129 22.6299 27.2063L22.6299 27.2063C23.8856 26.1209 25.2904 26.1609 26.8425 26.2299C26.8687 26.2311 26.8949 26.2322 26.9211 26.2334C28.432 26.3009 30.0723 26.3742 31.6202 25.2408L31.4726 25.0391L31.6202 25.2408C33.5038 23.8616 33.9736 21.6851 33.3242 19.6532L42.6508 9.36708H44.8131C45.8649 9.36708 46.677 10.136 46.677 11.0293V28.7268H14.3252C13.6389 28.7268 13.0389 29.2356 13.0389 29.9143C13.0389 30.5931 13.6389 31.1018 14.3252 31.1018H46.6772V35.2421C46.6772 36.1355 45.8651 36.9043 44.8133 36.9043H44.8033H44.7925H44.7809H44.7685H44.7553H44.7414H44.7267H44.7112H44.695H44.678H44.6602H44.6417H44.6225H44.6024H44.5817H44.5602H44.5379H44.5149H44.4912H44.4668H44.4416H44.4157H44.3891H44.3617H44.3337H44.3049H44.2754H44.2453H44.2144H44.1828H44.1505H44.1175H44.0839H44.0495H44.0145H43.9787H43.9423H43.9053H43.8675H43.8291H43.79H43.7502H43.7098H43.6688H43.627H43.5847H43.5417H43.498H43.4537H43.4087H43.3632H43.3169H43.2701H43.2226H43.1745H43.1258H43.0765H43.0266H42.976H42.9248H42.8731H42.8207H42.7677H42.7142H42.66H42.6053H42.5499H42.494H42.4375H42.3804H42.3228H42.2646H42.2058H42.1464H42.0865H42.0261H41.965H41.9034H41.8413H41.7786H41.7154H41.6517H41.5874H41.5225H41.4572H41.3913H41.3249H41.2579H41.1905H41.1225H41.054H40.985H40.9155H40.8455H40.775H40.704H40.6325H40.5605H40.488H40.4151H40.3416H40.2677H40.1933H40.1184H40.0431H39.9673H39.891H39.8143H39.7371H39.6595H39.5814H39.5028H39.4239H39.3444H39.2646H39.1843H39.1035H39.0224H38.9408H38.8588H38.7763H38.6935H38.6102H38.5265H38.4424H38.3579H38.273H38.1878H38.1021H38.016H37.9295H37.8427H37.7554H37.6678H37.5798H37.4914H37.4027H37.3136H37.2241H37.1343H37.0441H36.9535H36.8626H36.7713H36.6797H36.5878H36.4955H36.4029H36.3099H36.2166H36.123H36.0291H35.9348H35.8402H35.7453H35.6501H35.5546H35.4587H35.3626H35.2662H35.1694H35.0724H34.9751H34.8775H34.7796H34.6814H34.583H34.4843H34.3853H34.286H34.1864H34.0866H33.9866H33.8863H33.7857H33.6849H33.5838H33.4825H33.3809H33.2791H33.1771H33.0748H32.9723H32.8696H32.7666H32.6635H32.5601H32.4565H32.3527H32.2487H32.1444H32.04H31.9354H31.8305H31.7255H31.6203H31.5149H31.4094H31.3036H31.1977H31.0916H30.9853H30.8788H30.7722H30.6654H30.5585H30.4514H30.3442H30.2368H30.1292H30.0215H29.9137H29.8058H29.6977H29.5894H29.4811H29.3726H29.264H29.1553H29.0464H28.9375H28.8284H28.7192H28.61H28.5006H28.3911H28.2815H28.1719H28.0621H27.9523H27.8424H27.7324H27.6223H27.5122H27.402H27.2917H27.1813H27.0709H26.9605H26.85H26.7394H26.6288H26.5181H26.4074H26.2967H26.1859H26.0751H25.9642H25.8534H25.7425H25.6315H25.5206H25.4097H25.2987H25.1877H25.0768H24.9658H24.8548H24.7439H24.6329H24.5219H24.411H24.3001H24.1892H24.0783H23.9674H23.8566H23.7458H23.635H23.5243H23.4136H23.303H23.1924H23.0818H22.9714H22.8609H22.7505H22.6402H22.53H22.4198H22.3097H22.1997H22.0897H21.9798H21.87H21.7603H21.6507H21.5412H21.4318H21.3224H21.2132H21.1041H20.9951H20.8862H20.7774H20.6687H20.5602H20.4518H20.3435H20.2353H20.1273H20.0194H19.9116H19.804H19.6965H19.5892H19.482H19.375H19.2681H19.1614H19.0549H18.9485H18.8423H18.7363H18.6305H18.5248H18.4193H18.314H18.2089H18.104H17.9992H17.8947H17.7904H17.6862H17.5823H17.4786H17.3751H17.2718H17.1687H17.0659H16.9633H16.8609H16.7587H16.6568H16.5551H16.4537H16.3525H16.2515H16.1508H16.0504H15.9502H15.8502H15.7506H15.6512H15.552H15.4531H15.3545H15.2562H15.1582H15.0604H14.963H14.8658H14.7689H14.6723H14.576H14.48H14.3843H14.289H14.1939H14.0991H14.0047H13.9106H13.8168H13.7234H13.6302H13.5374H13.445H13.3528H13.261H13.1696H13.0785H12.9878H12.8974H12.8074H12.7177H12.6284H12.5395H12.4509H12.3627H12.2749H12.1874H12.1004H12.0137H11.9274H11.8415H11.756H11.6709H11.5862H11.5019H11.418H11.3346H11.2515H11.1688H11.0866H11.0048H10.9234H10.8424H10.7619H10.6818H10.6021H10.5229H10.4442H10.3658H10.288H10.2105H10.1336H10.057H9.981H9.90542H9.8303H9.75566H9.68148H9.60779H9.53458H9.46185H9.38961H9.31785H9.24659H9.17583H9.10556H9.03579H8.96653H8.89778H8.82954H8.76181H8.6946H8.62791H8.56175H8.49611H8.431H8.36642H8.30238H8.23888H8.17592H8.1135H8.05163H7.99031H7.92955H7.86934H7.8097H7.75061H7.6921H7.63415H7.57678H7.51998H7.46376H7.40812H7.35307H7.2986H7.24473H7.19145H7.13876H7.08668H7.0352H6.98433H6.93406H6.88441H6.83537H6.78696H6.73916H6.69199H6.64545H6.59953H6.55426H6.50961H6.46561H6.42226H6.37955H6.33748H6.29607H6.25532H6.21522H6.17579H6.13702H6.09892H6.06149H6.02473H5.98866H5.95326H5.91854H5.88451H5.85117H5.81852H5.78657H5.75532H5.72477H5.69492H5.66578H5.63735H5.60964H5.58264H5.55636H5.53081H5.50598H5.48188H5.45851H5.43588H5.41399H5.39284H5.37243H5.35277H5.33387H5.31571H5.29832H5.28168H5.26581H5.2507H5.23636H5.2228H5.21001H5.19799H5.18676C4.13504 36.9043 3.32286 36.1355 3.32286 35.2421V31.1019H6.03442C6.72072 31.1019 7.3208 30.5932 7.3208 29.9144C7.3208 29.2357 6.72072 28.7269 6.03442 28.7269H3.32265V11.0293C3.32265 10.136 4.13483 9.36708 5.18656 9.36708H31.3893L26.9509 15.367C24.9168 15.4088 22.8711 16.0651 21.5107 17.5016C19.6127 19.5058 19.3193 22.6163 20.5092 26.6517ZM20.5092 26.6517L20.749 26.581M20.5092 26.6517C20.5092 26.6517 20.5092 26.6517 20.5092 26.6517L20.749 26.581M20.749 26.581C20.9508 27.2656 21.8951 27.5108 22.4664 27.0171L20.749 26.581ZM26.6743 23.8485C25.4336 23.8059 24.0066 23.8005 22.5917 24.3968C22.2986 22.8658 22.2771 21.4258 22.707 20.2841C23.1569 19.0896 24.1127 18.1898 25.8752 17.8595L25.8755 17.8595C26.3081 17.7779 26.773 17.7384 27.1759 17.7405L30.7962 20.1702C31.0332 20.8263 31.0965 21.4577 30.9612 22.0158C30.8222 22.5891 30.4686 23.1074 29.83 23.5118L29.9638 23.723L29.83 23.5118C29.4762 23.7358 29.0312 23.8364 28.4916 23.8706C28.0387 23.8994 27.5423 23.8808 26.9999 23.8604C26.8932 23.8564 26.7847 23.8523 26.6743 23.8485ZM38.4653 4.01398L38.2644 3.8653L38.4654 4.01396C39.1663 3.06625 40.6153 2.83473 41.6401 3.52257L41.7794 3.31499L41.6401 3.52259C42.6494 4.19985 42.8188 5.48101 42.0311 6.3498L35.2177 13.8639L32.5188 12.0525L38.4653 4.01398ZM43.1538 1.60153L43.0145 1.80911L43.1538 1.60152C40.9743 0.138881 37.8732 0.602169 36.3406 2.67385L33.1462 6.99221H5.18666C2.76423 6.99221 0.75 8.78005 0.75 11.0294V35.2421C0.75 37.4915 2.76423 39.2793 5.18666 39.2793H21.1246L20.0275 43.4477H17.5682C15.7259 43.4477 14.1836 44.8085 14.1836 46.533V46.875H11.1644C10.4781 46.875 9.87801 47.3838 9.87801 48.0625C9.87801 48.7413 10.4781 49.25 11.1644 49.25H38.8356C39.5219 49.25 40.122 48.7412 40.122 48.0625C40.122 47.3838 39.5219 46.875 38.8356 46.875H35.8163V46.533C35.8163 44.8085 34.2741 43.4477 32.4318 43.4477H29.9725L28.8754 39.2793H44.8133C47.2358 39.2793 49.25 37.4915 49.25 35.2421V29.9144V11.0293C49.25 8.77995 47.2358 6.99212 44.8132 6.99212H44.626C45.5995 5.1597 45.0527 2.87597 43.1538 1.60153ZM31.6458 17.8034L29.3864 16.287L31.0672 14.0149L33.5624 15.6896L31.6458 17.8034ZM33.2435 46.533V46.875H16.7564V46.533C16.7564 46.1646 17.0966 45.8227 17.5682 45.8227H32.4317C32.9033 45.8227 33.2435 46.1646 33.2435 46.533ZM26.2276 39.2793L27.3247 43.4477H22.6752L23.7723 39.2793H26.2276Z" fill="#43B7FF" stroke="#43B7FF" stroke-width="0.5"/>
<path d="M10.2841 28.7493L10.2841 28.7493L10.2834 28.7494C9.68375 28.8613 9.25342 29.3442 9.25342 29.9149C9.25342 30.6825 10.008 31.2196 10.7757 31.0796L10.7764 31.0795C11.466 30.9517 11.9242 30.3298 11.7813 29.6777L11.7811 29.6768C11.6335 29.0147 10.9458 28.6277 10.2841 28.7493Z" fill="#43B7FF" stroke="#43B7FF" stroke-width="0.5"/>
</svg>
