<svg width="41" height="40" viewBox="0 0 41 40" fill="none" xmlns="http://www.w3.org/2000/svg">
<g clip-path="url(#clip0_14_257)">
<path d="M28.0785 11.2678C25.3806 11.2678 22.828 12.1008 20.6667 13.6806C19.3199 12.6961 17.8211 12.002 16.2298 11.6185L19.6119 7.74259C19.6131 7.74126 19.6139 7.7397 19.615 7.73837C19.635 7.71501 19.6529 7.69001 19.6691 7.66376C19.6717 7.65955 19.6742 7.65541 19.6767 7.65119C19.6917 7.62533 19.7049 7.59837 19.7159 7.57017C19.7176 7.5658 19.7191 7.56142 19.7207 7.55697C19.731 7.52861 19.7396 7.49939 19.7455 7.46923C19.746 7.4665 19.7463 7.46376 19.7467 7.46111C19.7518 7.43291 19.7547 7.40408 19.7557 7.3747C19.7558 7.3708 19.7562 7.36697 19.7562 7.36306C19.7562 7.36095 19.7565 7.35884 19.7565 7.35673C19.7565 7.32869 19.7539 7.30126 19.7501 7.27439C19.7493 7.26908 19.7486 7.26392 19.7477 7.25861C19.7427 7.22884 19.7357 7.19978 19.7263 7.17181C19.725 7.16814 19.7235 7.16455 19.7223 7.16087C19.7117 7.13095 19.6992 7.10189 19.6841 7.07447C19.6835 7.0733 19.6827 7.0722 19.6821 7.07103C19.6658 7.04189 19.6471 7.01431 19.6263 6.98853C19.6257 6.98775 19.6253 6.98689 19.6246 6.98611L19.6225 6.98345L17.0066 3.77236C16.8951 3.63548 16.7278 3.55603 16.5514 3.55603H14.5593H11.9503H9.95847C9.7819 3.55603 9.61472 3.63548 9.50323 3.77236L6.88745 6.98298L6.88526 6.98564C6.88464 6.98642 6.88425 6.98728 6.88362 6.98806C6.86276 7.01384 6.84417 7.04142 6.82784 7.07056C6.82722 7.07173 6.82644 7.07283 6.82581 7.074C6.81073 7.1015 6.79823 7.13056 6.78761 7.16041C6.78628 7.16408 6.78479 7.16767 6.78362 7.17134C6.77433 7.19939 6.7673 7.22845 6.76222 7.25814C6.76136 7.26337 6.76058 7.26861 6.75979 7.27392C6.75597 7.30095 6.75339 7.32822 6.75339 7.35627C6.75339 7.35845 6.7537 7.36048 6.7537 7.36259C6.75378 7.3665 6.75417 7.37033 6.75425 7.37423C6.75511 7.40369 6.75808 7.43251 6.76315 7.46064C6.76362 7.46337 6.76386 7.46611 6.7644 7.46876C6.77026 7.499 6.77886 7.52822 6.78917 7.5565C6.79081 7.56095 6.79229 7.56533 6.79401 7.5697C6.80503 7.59791 6.81815 7.62486 6.83315 7.65072C6.83558 7.65494 6.83823 7.65908 6.84081 7.6633C6.85698 7.68962 6.87503 7.71455 6.89495 7.73791C6.89612 7.73923 6.89683 7.7408 6.898 7.74212L10.2839 11.6226C4.77198 12.9618 0.666748 17.9381 0.666748 23.8561C0.666748 30.7974 6.31386 36.4444 13.255 36.4444C15.9528 36.4444 18.5054 35.6114 20.6667 34.0317C22.828 35.6113 25.3805 36.4444 28.0785 36.4444C35.0197 36.4444 40.6667 30.7973 40.6667 23.8561C40.6667 16.9149 35.0196 11.2678 28.0785 11.2678ZM16.2725 4.72994L17.9338 6.76931H16.0232L15.3657 4.72994H16.2725ZM16.0139 7.94361H17.8778L14.8868 11.3715C14.8687 11.3692 14.8508 11.3667 14.8328 11.3644L16.0139 7.94361ZM12.3782 4.72986H14.1318L14.7893 6.76923H11.7207L12.3782 4.72986ZM14.7716 7.94369L13.6218 11.2737C13.4999 11.2702 13.3777 11.2679 13.2551 11.2679C13.1798 11.2679 13.1025 11.2691 13.024 11.2708C12.9788 11.2716 12.9335 11.2723 12.8882 11.2736L11.7385 7.94369H14.7716ZM10.2376 4.72986H11.1442L10.4868 6.76923H8.57628L10.2376 4.72986ZM8.63222 7.94369H10.496L11.6779 11.3664C11.6602 11.3687 11.6425 11.371 11.6248 11.3732L8.63222 7.94369ZM13.255 35.2699C6.96136 35.2699 1.84112 30.1497 1.84112 23.8561C1.84112 18.1627 6.03144 13.4298 11.4899 12.5788C11.6261 12.5577 11.7629 12.5392 11.9002 12.523C11.9173 12.521 11.9346 12.519 11.9517 12.517C12.1361 12.496 12.3211 12.4808 12.5062 12.4687C12.5091 12.4685 12.5119 12.4691 12.5148 12.4688C12.6514 12.4601 12.7765 12.4537 12.8945 12.4492C13.0147 12.4454 13.135 12.4422 13.2549 12.4422C13.4951 12.4422 13.7336 12.4574 13.9931 12.4742C14.0057 12.4749 14.0184 12.4753 14.0309 12.4753C14.0403 12.4753 14.0496 12.4736 14.0589 12.4731C14.3726 12.4967 14.6921 12.5336 15.0231 12.5851C15.0532 12.5898 15.0835 12.592 15.1134 12.592C15.1146 12.592 15.116 12.5919 15.1172 12.5918C17.0047 12.8985 18.7715 13.6735 20.3037 14.8782C20.4615 15.0023 20.6162 15.1308 20.7676 15.2633C20.915 15.3924 21.0591 15.5255 21.1999 15.6621C21.2759 15.736 21.3511 15.8106 21.4251 15.8865C21.6362 16.1029 21.8388 16.3277 22.0321 16.56C22.0321 16.56 22.0321 16.56 22.0321 16.5601C23.7324 18.6031 24.6688 21.1942 24.6688 23.856C24.6688 26.3277 23.8614 28.7384 22.3849 30.7059C22.3817 30.7032 22.3785 30.7007 22.3753 30.6981C22.294 30.6302 22.2139 30.5611 22.135 30.4904C22.1198 30.4768 22.105 30.4625 22.09 30.4488C22.0267 30.3913 21.9642 30.3334 21.9026 30.2742C21.8757 30.2482 21.8495 30.2217 21.8228 30.1953C21.7739 30.1471 21.7252 30.0986 21.6775 30.0492C21.6485 30.0193 21.6201 29.9889 21.5917 29.9587C21.5471 29.9114 21.5029 29.8637 21.4594 29.8154C21.4461 29.8007 21.4331 29.7856 21.4199 29.7709C22.3675 28.4642 22.9896 26.946 23.2269 25.3513C23.2746 25.0305 23.0533 24.7317 22.7326 24.6841C22.4114 24.6362 22.1131 24.8577 22.0654 25.1784C21.8728 26.4726 21.3921 27.7095 20.6656 28.7974C19.6851 27.3353 19.1704 25.6422 19.1704 23.856C19.1704 22.0697 19.6852 20.3766 20.6656 18.9146C21.4689 20.1163 21.9677 21.4916 22.1159 22.9355C22.147 23.2377 22.402 23.4627 22.6993 23.4627C22.7194 23.4627 22.7396 23.4617 22.76 23.4596C23.0827 23.4265 23.3173 23.1381 23.2842 22.8155C23.0864 20.8889 22.3396 19.0695 21.1248 17.5541C20.6359 16.9442 20.078 16.393 19.4632 15.9119C19.3753 15.8431 19.2863 15.7758 19.1962 15.7101C17.4621 14.4433 15.4076 13.7736 13.255 13.7736C10.8289 13.7736 8.48433 14.6478 6.65339 16.2351C6.40839 16.4475 6.38198 16.8184 6.59433 17.0634C6.80675 17.3084 7.17761 17.3348 7.42261 17.1224C9.04003 15.7202 11.1113 14.948 13.2549 14.948C14.952 14.948 16.5792 15.4202 17.9983 16.3166C16.3769 18.4841 15.49 21.1363 15.49 23.8559C15.49 26.5753 16.3769 29.2277 17.9983 31.3952C16.5792 32.2916 14.952 32.7638 13.2549 32.7638C8.343 32.7638 4.34698 28.7677 4.34698 23.8559C4.34698 22.0292 4.89573 20.2738 5.93386 18.7796C6.11894 18.5134 6.053 18.1474 5.78667 17.9624C5.52034 17.7772 5.15448 17.8432 4.96948 18.1095C3.79394 19.8014 3.17261 21.7885 3.17261 23.8559C3.17261 29.4153 7.6955 33.9381 13.2549 33.9381C15.2263 33.9381 17.1151 33.3767 18.7511 32.3091C18.7655 32.3249 18.7805 32.3403 18.795 32.356C18.8336 32.3982 18.8728 32.44 18.9121 32.4817C18.9496 32.5217 18.9873 32.5616 19.0255 32.6011C19.0654 32.6424 19.1059 32.6833 19.1464 32.7241C19.185 32.763 19.2235 32.8018 19.2626 32.8402C19.3036 32.8804 19.3451 32.9201 19.3866 32.9598C19.4262 32.9976 19.4657 33.0355 19.5058 33.0728C19.5478 33.1119 19.5903 33.1504 19.6328 33.1888C19.661 33.2145 19.6887 33.2406 19.7171 33.266C17.814 34.5796 15.5948 35.2699 13.255 35.2699ZM28.0785 35.2699C25.4939 35.2699 23.0564 34.4276 21.0296 32.834C20.3984 32.3375 19.8167 31.7717 19.3011 31.1521C17.6009 29.1089 16.6645 26.5179 16.6645 23.8561C16.6645 21.3845 17.4718 18.9738 18.9484 17.0063C18.9514 17.0088 18.9546 17.0112 18.9576 17.0137C19.039 17.0816 19.1192 17.1509 19.1982 17.2217C19.2139 17.2357 19.2292 17.2505 19.2448 17.2647C19.3075 17.3217 19.3696 17.3792 19.4306 17.4379C19.4578 17.4642 19.4844 17.4911 19.5114 17.5177C19.5598 17.5656 19.6082 17.6137 19.6555 17.6626C19.6849 17.6929 19.7136 17.7238 19.7425 17.7545C19.7864 17.8013 19.8302 17.8484 19.8732 17.8961C19.8867 17.9111 19.9001 17.9264 19.9135 17.9416C18.6739 19.6531 17.996 21.7347 17.996 23.8562C17.996 26.1403 18.7817 28.3784 20.2085 30.1579C20.7672 30.8548 21.4161 31.4752 22.1371 32.002C23.8712 33.2688 25.9257 33.9385 28.0784 33.9385C30.7151 33.9385 33.2089 32.9272 35.1004 31.0911C35.3331 30.8652 35.3386 30.4935 35.1127 30.2608C34.8868 30.0281 34.5151 30.0227 34.2824 30.2485C32.6113 31.8707 30.408 32.7641 28.0783 32.7641C26.3812 32.7641 24.754 32.2918 23.3348 31.3954C24.9562 29.228 25.8431 26.5756 25.8431 23.8561C25.8431 21.1366 24.9562 18.4842 23.3348 16.3168C24.754 15.4204 26.3812 14.9482 28.0783 14.9482C32.9902 14.9482 36.9862 18.9443 36.9862 23.8561C36.9862 25.5095 36.5301 27.1235 35.6671 28.5235C35.4969 28.7995 35.5828 29.1613 35.8589 29.3314C36.135 29.5017 36.4967 29.4157 36.6668 29.1397C37.6441 27.5544 38.1607 25.7274 38.1607 23.8561C38.1607 18.2967 33.6378 13.7738 28.0784 13.7738C26.1071 13.7738 24.2182 14.3353 22.5821 15.4029C22.5682 15.3875 22.5536 15.3725 22.5396 15.3572C22.4998 15.3138 22.4596 15.2709 22.4192 15.228C22.3827 15.1892 22.3461 15.1504 22.3091 15.112C22.268 15.0695 22.2264 15.0275 22.1847 14.9856C22.1473 14.9479 22.11 14.9102 22.0721 14.8731C22.0298 14.8316 21.9871 14.7906 21.9442 14.7497C21.9058 14.7131 21.8675 14.6764 21.8288 14.6403C21.7853 14.5999 21.7413 14.5599 21.6971 14.5201C21.67 14.4955 21.6435 14.4703 21.6161 14.446C23.5193 13.1327 25.7385 12.4424 28.0784 12.4424C34.372 12.4424 39.4922 17.5627 39.4922 23.8563C39.4924 30.1497 34.3721 35.2699 28.0785 35.2699Z" fill="#EDA708"/>
</g>
<defs>
<clipPath id="clip0_14_257">
<rect width="40" height="40" fill="white" transform="translate(0.666748)"/>
</clipPath>
</defs>
</svg>
