<svg width="110" height="110" viewBox="0 0 110 110" fill="none" xmlns="http://www.w3.org/2000/svg">
<path d="M107.812 19.5503C107.409 18.5335 106.522 17.7878 105.451 17.5665C104.378 17.3447 103.269 17.6773 102.495 18.4508L85.7388 35.2072L76.73 33.2702L74.7932 24.2614L91.5497 7.50471C92.3231 6.73128 92.6553 5.62054 92.434 4.54954C92.2125 3.47833 91.4668 2.59082 90.4501 2.18734C78.9459 -2.37464 65.8587 0.330234 57.1091 9.07908C52.8973 13.2909 50.0051 18.5807 48.7453 24.3772C47.6676 29.3362 47.8189 34.46 49.173 39.3183L4.45457 84.0368C1.58189 86.9093 0 90.7286 0 94.791C0 98.8535 1.5819 102.673 4.45479 105.545C7.32725 108.418 11.1465 110 15.209 110C19.2713 110 23.0908 108.418 25.9632 105.545L70.6819 60.8271C75.5402 62.1813 80.6638 62.3325 85.6228 61.2546C91.4193 59.9948 96.7094 57.1024 100.921 52.8908C109.67 44.1417 112.375 31.055 107.812 19.5503ZM96.3261 48.2962C89.6992 54.923 79.7021 57.1911 70.8563 54.0733C69.6769 53.6578 68.3637 53.956 67.4792 54.8403L21.3684 100.951C19.7231 102.596 17.5353 103.502 15.2086 103.502C12.8816 103.502 10.6943 102.596 9.04879 100.951C7.40352 99.3053 6.49731 97.1178 6.49731 94.791C6.49731 92.4643 7.40352 90.2767 9.04901 88.6313L55.1596 42.5207C56.0439 41.6364 56.3421 40.3231 55.9266 39.1436C52.809 30.2983 55.0767 20.3008 61.7036 13.6739C66.3872 8.99035 72.6432 6.4986 79.0191 6.4986C80.3568 6.4986 81.7002 6.60817 83.0346 6.83053L68.9473 20.9178C68.1674 21.6975 67.8363 22.8196 68.0681 23.8979L70.8179 36.6882C71.0867 37.9373 72.0623 38.9129 73.3112 39.1814L86.1017 41.9314C87.1806 42.1632 88.3019 41.8322 89.082 41.0523L103.169 26.965C104.451 34.6613 101.992 42.6301 96.3261 48.2962Z" fill="#E12213"/>
</svg>
