<svg width="80" height="78" viewBox="0 0 80 78" fill="none" xmlns="http://www.w3.org/2000/svg">
<g clip-path="url(#clip0_46_194)">
<path d="M78.4091 13.8627C78.1159 13.1417 77.4703 12.6129 76.6914 12.456C75.9114 12.2988 75.1044 12.5346 74.542 13.0831L62.3555 24.965L55.8036 23.5914L54.395 17.2033L66.5816 5.32129C67.1441 4.77285 67.3856 3.98523 67.2247 3.2258C67.0636 2.46622 66.5212 1.83688 65.7819 1.55078C57.4152 -1.68408 47.8972 0.233923 41.5339 6.43766C38.4708 9.42421 36.3673 13.1752 35.4511 17.2855C34.6673 20.8019 34.7773 24.4351 35.7622 27.88L3.23969 59.5896C1.15047 61.6265 0 64.3347 0 67.2154C0 70.096 1.15047 72.8042 3.23984 74.8412C5.32891 76.8782 8.10656 77.9999 11.0611 77.9999C14.0155 77.9999 16.7933 76.8782 18.8823 74.8412L51.405 43.1318C54.9383 44.092 58.6645 44.1993 62.2711 43.435C66.4867 42.5416 70.3341 40.4906 73.3972 37.5042C79.7598 31.3003 81.727 22.0206 78.4091 13.8627ZM70.0553 34.2462C65.2358 38.9452 57.9652 40.5535 51.5319 38.3427C50.6741 38.0481 49.7191 38.2595 49.0758 38.8866L15.5406 71.5832C14.3441 72.75 12.753 73.3926 11.0608 73.3926C9.36844 73.3926 7.77766 72.75 6.58094 71.5832C5.38438 70.4164 4.72531 68.8652 4.72531 67.2154C4.72531 65.5655 5.38438 64.0143 6.58109 62.8475L40.1161 30.1509C40.7592 29.5238 40.9761 28.5926 40.6739 27.7562C38.4066 21.484 40.0558 14.3949 44.8753 9.69584C48.2816 6.37475 52.8314 4.60786 57.4684 4.60786C58.4412 4.60786 59.4183 4.68556 60.3888 4.84324L50.1434 14.8324C49.5762 15.3853 49.3355 16.181 49.5041 16.9456L51.5039 26.0151C51.6994 26.9008 52.4089 27.5926 53.3172 27.783L62.6194 29.733C63.4041 29.8974 64.2195 29.6626 64.7869 29.1096L75.032 19.1204C75.9641 24.5778 74.1759 30.2284 70.0553 34.2462Z" fill="black"/>
</g>
<defs>
<clipPath id="clip0_46_194">
<rect width="80" height="78" fill="white"/>
</clipPath>
</defs>
</svg>
